<svg width="1427" height="637" viewBox="0 0 1427 637" fill="none" xmlns="http://www.w3.org/2000/svg">
<rect width="1427" height="637" fill="#ECEBEB"/>
<rect x="153" y="49" width="115" height="121" fill="#2135D9"/>
<rect x="153" y="189" width="115" height="121" fill="#2EA0FB"/>
<rect x="153" y="329" width="115" height="121" fill="#BABAFF"/>
<rect x="153" y="469" width="115" height="121" fill="white"/>
<rect x="307" y="469" width="115" height="121" fill="#02040D"/>
<rect x="276" y="49" width="115" height="121" fill="#3F54FB"/>
<rect x="399" y="49" width="115" height="121" fill="#5064FC"/>
<rect x="522" y="49" width="115" height="121" fill="#5B6DFC"/>
<rect x="645" y="49" width="115" height="121" fill="#6C7CFC"/>
<rect x="768" y="49" width="115" height="121" fill="#7E8CFD"/>
<rect x="891" y="49" width="115" height="121" fill="#8F9BFD"/>
<rect x="1014" y="49" width="115" height="121" fill="#A0ABFD"/>
<rect x="1137" y="49" width="115" height="121" fill="#ABB4FD"/>
<rect x="1260" y="49" width="115" height="121" fill="#BCC3FE"/>
<path d="M48.0454 64.112C47.8427 64.112 47.6987 64.048 47.6134 63.92C47.5387 63.792 47.5227 63.6213 47.5654 63.408L48.0134 61.04L48.5734 61.168H47.3094C47.1707 61.168 47.0481 61.1467 46.9414 61.104C46.8454 61.0613 46.7707 60.9973 46.7174 60.912C46.6747 60.8267 46.6534 60.7253 46.6534 60.608C46.6534 60.4267 46.7067 60.2933 46.8134 60.208C46.9307 60.112 47.0961 60.064 47.3094 60.064H48.7814L48.1734 60.192L48.9254 56.368L49.3574 56.528H47.6294C47.4907 56.528 47.3734 56.5067 47.2774 56.464C47.1814 56.4107 47.1067 56.3467 47.0534 56.272C47.0001 56.1867 46.9734 56.0853 46.9734 55.968C46.9734 55.7867 47.0321 55.6533 47.1494 55.568C47.2667 55.472 47.4267 55.424 47.6294 55.424H49.5654L49.0534 55.568L49.5334 53.184C49.5761 52.9813 49.6561 52.8373 49.7734 52.752C49.8907 52.656 50.0401 52.608 50.2214 52.608C50.4134 52.608 50.5467 52.672 50.6214 52.8C50.7067 52.9173 50.7281 53.088 50.6854 53.312L50.2694 55.424H52.5734L53.0214 53.184C53.0641 52.9813 53.1441 52.8373 53.2614 52.752C53.3787 52.656 53.5281 52.608 53.7094 52.608C53.9014 52.608 54.0347 52.672 54.1094 52.8C54.1947 52.9173 54.2161 53.088 54.1734 53.312L53.7414 55.568L53.3094 55.424H54.4454C54.5947 55.424 54.7174 55.4453 54.8134 55.488C54.9094 55.5307 54.9787 55.5947 55.0214 55.68C55.0747 55.7547 55.1014 55.8507 55.1014 55.968C55.1014 56.1387 55.0427 56.2773 54.9254 56.384C54.8187 56.48 54.6587 56.528 54.4454 56.528H53.0854L53.5814 56.368L52.8294 60.192L52.3974 60.064H54.1254C54.2641 60.064 54.3814 60.0853 54.4774 60.128C54.5734 60.1707 54.6481 60.2347 54.7014 60.32C54.7547 60.3947 54.7814 60.4907 54.7814 60.608C54.7814 60.7893 54.7227 60.928 54.6054 61.024C54.4987 61.12 54.3387 61.168 54.1254 61.168H52.1894L52.7014 61.04L52.1894 63.536C52.1574 63.7387 52.0827 63.888 51.9654 63.984C51.8481 64.0693 51.6987 64.112 51.5174 64.112C51.3254 64.112 51.1867 64.0533 51.1014 63.936C51.0161 63.808 50.9947 63.632 51.0374 63.408L51.4854 61.168H49.1814L48.7174 63.536C48.6854 63.7387 48.6107 63.888 48.4934 63.984C48.3761 64.0693 48.2267 64.112 48.0454 64.112ZM49.3894 60.064H51.6774L52.3654 56.528H50.0774L49.3894 60.064ZM57.8671 64C57.5791 64 57.3711 63.936 57.2431 63.808C57.1151 63.6693 57.0511 63.4827 57.0511 63.248C57.0511 63.0987 57.0885 62.9547 57.1631 62.816C57.2378 62.6773 57.3445 62.5333 57.4831 62.384L60.8911 58.736C61.4138 58.1813 61.7871 57.6747 62.0111 57.216C62.2458 56.7467 62.3631 56.2773 62.3631 55.808C62.3631 55.2107 62.1818 54.7573 61.8191 54.448C61.4565 54.1387 60.9231 53.984 60.2191 53.984C59.7925 53.984 59.3818 54.048 58.9871 54.176C58.5925 54.304 58.1978 54.512 57.8031 54.8C57.6431 54.9067 57.4938 54.9547 57.3551 54.944C57.2165 54.9333 57.0938 54.88 56.9871 54.784C56.8911 54.688 56.8271 54.5707 56.7951 54.432C56.7631 54.2933 56.7685 54.1493 56.8111 54C56.8538 53.8507 56.9551 53.7227 57.1151 53.616C57.5525 53.2853 58.0591 53.0293 58.6351 52.848C59.2111 52.6667 59.7978 52.576 60.3951 52.576C61.1738 52.576 61.8298 52.6987 62.3631 52.944C62.9071 53.1787 63.3178 53.5253 63.5951 53.984C63.8725 54.4427 64.0111 55.0027 64.0111 55.664C64.0111 56.112 63.9365 56.5493 63.7871 56.976C63.6485 57.4027 63.4298 57.84 63.1311 58.288C62.8431 58.7253 62.4645 59.1893 61.9951 59.68L58.7631 63.072V62.608H63.8511C64.0858 62.608 64.2671 62.6667 64.3951 62.784C64.5231 62.9013 64.5871 63.072 64.5871 63.296C64.5871 63.52 64.5231 63.696 64.3951 63.824C64.2671 63.9413 64.0858 64 63.8511 64H57.8671ZM67.9449 64C67.7209 64 67.5449 63.936 67.4169 63.808C67.2889 63.68 67.2249 63.5093 67.2249 63.296C67.2249 63.072 67.2889 62.9013 67.4169 62.784C67.5449 62.6667 67.7209 62.608 67.9449 62.608H69.8969V54.096H70.7289L68.3929 55.584C68.2222 55.68 68.0622 55.7173 67.9129 55.696C67.7742 55.6747 67.6516 55.616 67.5449 55.52C67.4489 55.424 67.3796 55.3067 67.3369 55.168C67.3049 55.0293 67.3156 54.8853 67.3689 54.736C67.4329 54.5867 67.5449 54.464 67.7049 54.368L69.9129 52.976C70.0942 52.8693 70.2649 52.784 70.4249 52.72C70.5956 52.6453 70.7556 52.608 70.9049 52.608C71.0862 52.608 71.2356 52.6613 71.3529 52.768C71.4809 52.864 71.5449 53.0293 71.5449 53.264V62.608H73.3369C73.5716 62.608 73.7529 62.6667 73.8809 62.784C74.0089 62.9013 74.0729 63.072 74.0729 63.296C74.0729 63.52 74.0089 63.696 73.8809 63.824C73.7529 63.9413 73.5716 64 73.3369 64H67.9449ZM79.7826 64.144C79.1853 64.144 78.5773 64.064 77.9586 63.904C77.34 63.7333 76.8013 63.4827 76.3426 63.152C76.172 63.0453 76.0546 62.9173 75.9906 62.768C75.9373 62.608 75.9266 62.464 75.9586 62.336C75.9906 62.1973 76.0546 62.08 76.1506 61.984C76.2573 61.888 76.3853 61.8347 76.5346 61.824C76.684 61.8027 76.8493 61.8453 77.0306 61.952C77.4893 62.2293 77.9373 62.432 78.3746 62.56C78.812 62.6773 79.2653 62.736 79.7346 62.736C80.2466 62.736 80.6786 62.6613 81.0306 62.512C81.3826 62.3627 81.644 62.144 81.8146 61.856C81.996 61.568 82.0866 61.2213 82.0866 60.816C82.0866 60.208 81.884 59.7547 81.4786 59.456C81.084 59.1467 80.508 58.992 79.7506 58.992H78.6626C78.4173 58.992 78.2306 58.9333 78.1026 58.816C77.9746 58.688 77.9106 58.512 77.9106 58.288C77.9106 58.0747 77.9746 57.9093 78.1026 57.792C78.2306 57.664 78.4173 57.6 78.6626 57.6H79.5906C80.0493 57.6 80.4386 57.5253 80.7586 57.376C81.0786 57.216 81.324 56.9973 81.4946 56.72C81.676 56.432 81.7666 56.0853 81.7666 55.68C81.7666 55.136 81.5853 54.72 81.2226 54.432C80.8706 54.1333 80.3533 53.984 79.6706 53.984C79.2333 53.984 78.8173 54.0427 78.4226 54.16C78.0386 54.2773 77.6386 54.4853 77.2226 54.784C77.0626 54.8907 76.908 54.9387 76.7586 54.928C76.62 54.9067 76.4973 54.8533 76.3906 54.768C76.2946 54.672 76.2253 54.5547 76.1826 54.416C76.1506 54.2773 76.1613 54.1333 76.2146 53.984C76.268 53.8347 76.3746 53.7067 76.5346 53.6C76.9826 53.2693 77.4893 53.0187 78.0546 52.848C78.62 52.6667 79.2013 52.576 79.7986 52.576C80.5453 52.576 81.1853 52.6933 81.7186 52.928C82.2626 53.1627 82.6733 53.4987 82.9506 53.936C83.2386 54.3733 83.3826 54.896 83.3826 55.504C83.3826 55.9627 83.2973 56.3787 83.1266 56.752C82.956 57.1253 82.7106 57.4453 82.3906 57.712C82.0813 57.968 81.7026 58.1493 81.2546 58.256V58.08C82.0333 58.208 82.636 58.528 83.0626 59.04C83.4893 59.5413 83.7026 60.1707 83.7026 60.928C83.7026 61.5893 83.5426 62.1653 83.2226 62.656C82.9133 63.136 82.4653 63.504 81.8786 63.76C81.292 64.016 80.5933 64.144 79.7826 64.144ZM89.8284 64.144C89.2417 64.144 88.6497 64.064 88.0524 63.904C87.4551 63.7333 86.9111 63.472 86.4204 63.12C86.2604 63.024 86.1537 62.9013 86.1004 62.752C86.0471 62.6027 86.0364 62.4587 86.0684 62.32C86.1004 62.1707 86.1644 62.048 86.2604 61.952C86.3671 61.856 86.4951 61.8027 86.6444 61.792C86.7937 61.7707 86.9537 61.8133 87.1244 61.92C87.5404 62.1867 87.9671 62.3893 88.4044 62.528C88.8524 62.6667 89.3164 62.736 89.7964 62.736C90.2871 62.736 90.7084 62.6453 91.0604 62.464C91.4124 62.2827 91.6791 62.032 91.8604 61.712C92.0524 61.3813 92.1484 60.9973 92.1484 60.56C92.1484 59.888 91.9511 59.3387 91.5564 58.912C91.1617 58.4853 90.6124 58.272 89.9084 58.272C89.5031 58.272 89.1244 58.3467 88.7724 58.496C88.4204 58.6347 88.0844 58.8693 87.7644 59.2C87.6897 59.2853 87.5884 59.3653 87.4604 59.44C87.3431 59.504 87.2097 59.536 87.0604 59.536C86.8364 59.536 86.6657 59.4773 86.5484 59.36C86.4311 59.2427 86.3724 59.0827 86.3724 58.88V53.456C86.3724 53.2213 86.4364 53.04 86.5644 52.912C86.6924 52.784 86.8737 52.72 87.1084 52.72H92.4684C92.7031 52.72 92.8844 52.7787 93.0124 52.896C93.1404 53.0133 93.2044 53.184 93.2044 53.408C93.2044 53.632 93.1404 53.808 93.0124 53.936C92.8844 54.0533 92.7031 54.112 92.4684 54.112H87.9884V58.176H87.5404C87.8284 57.7707 88.2071 57.456 88.6764 57.232C89.1564 57.008 89.6844 56.896 90.2604 56.896C90.9751 56.896 91.5937 57.0453 92.1164 57.344C92.6391 57.6427 93.0444 58.064 93.3324 58.608C93.6204 59.1413 93.7644 59.7653 93.7644 60.48C93.7644 61.2053 93.6044 61.8453 93.2844 62.4C92.9644 62.944 92.5111 63.3707 91.9244 63.68C91.3377 63.9893 90.6391 64.144 89.8284 64.144ZM96.7541 64C96.4661 64 96.2421 63.9253 96.0821 63.776C95.9328 63.616 95.8581 63.392 95.8581 63.104V53.616C95.8581 53.328 95.9328 53.1093 96.0821 52.96C96.2421 52.8 96.4661 52.72 96.7541 52.72H99.8421C101.698 52.72 103.127 53.2053 104.13 54.176C105.143 55.136 105.65 56.528 105.65 58.352C105.65 59.2587 105.522 60.064 105.266 60.768C105.01 61.472 104.631 62.064 104.13 62.544C103.639 63.0133 103.037 63.376 102.322 63.632C101.607 63.8773 100.781 64 99.8421 64H96.7541ZM97.5221 62.608H99.7461C100.45 62.608 101.058 62.5227 101.57 62.352C102.093 62.1707 102.53 61.904 102.882 61.552C103.234 61.2 103.495 60.7573 103.666 60.224C103.837 59.6907 103.922 59.0667 103.922 58.352C103.922 56.9333 103.57 55.872 102.866 55.168C102.173 54.464 101.133 54.112 99.7461 54.112H97.5221V62.608ZM110.63 64.144C110.16 64.144 109.67 64.064 109.158 63.904C108.656 63.7333 108.198 63.4827 107.782 63.152C107.643 63.056 107.552 62.9387 107.51 62.8C107.478 62.6507 107.478 62.512 107.51 62.384C107.542 62.2453 107.606 62.128 107.702 62.032C107.798 61.9253 107.915 61.8667 108.054 61.856C108.203 61.8347 108.358 61.8773 108.518 61.984C108.88 62.2507 109.238 62.4427 109.59 62.56C109.952 62.6773 110.31 62.736 110.662 62.736C111.323 62.736 111.883 62.576 112.342 62.256C112.8 61.936 113.147 61.456 113.382 60.816C113.616 60.176 113.734 59.3813 113.734 58.432V57.072H113.91C113.835 57.6373 113.654 58.1333 113.366 58.56C113.088 58.9867 112.726 59.312 112.278 59.536C111.83 59.76 111.334 59.872 110.79 59.872C110.139 59.872 109.558 59.7173 109.046 59.408C108.534 59.0987 108.134 58.672 107.846 58.128C107.558 57.584 107.414 56.9707 107.414 56.288C107.414 55.5627 107.568 54.9227 107.878 54.368C108.187 53.8027 108.614 53.3653 109.158 53.056C109.712 52.736 110.347 52.576 111.062 52.576C111.979 52.576 112.752 52.7947 113.382 53.232C114.011 53.6587 114.491 54.288 114.822 55.12C115.163 55.952 115.334 56.9493 115.334 58.112C115.334 59.0827 115.227 59.9413 115.014 60.688C114.8 61.4347 114.491 62.064 114.086 62.576C113.68 63.088 113.184 63.4773 112.598 63.744C112.022 64.0107 111.366 64.144 110.63 64.144ZM111.174 58.512C111.6 58.512 111.979 58.416 112.31 58.224C112.64 58.032 112.896 57.76 113.078 57.408C113.27 57.056 113.366 56.656 113.366 56.208C113.366 55.7493 113.27 55.3493 113.078 55.008C112.896 54.656 112.64 54.384 112.31 54.192C111.979 54 111.6 53.904 111.174 53.904C110.736 53.904 110.352 54 110.022 54.192C109.702 54.384 109.446 54.656 109.254 55.008C109.072 55.3493 108.982 55.7493 108.982 56.208C108.982 56.656 109.072 57.056 109.254 57.408C109.446 57.76 109.702 58.032 110.022 58.224C110.352 58.416 110.736 58.512 111.174 58.512Z" fill="#02040D"/>
<path d="M48.0454 204.112C47.8427 204.112 47.6987 204.048 47.6134 203.92C47.5387 203.792 47.5227 203.621 47.5654 203.408L48.0134 201.04L48.5734 201.168H47.3094C47.1707 201.168 47.0481 201.147 46.9414 201.104C46.8454 201.061 46.7707 200.997 46.7174 200.912C46.6747 200.827 46.6534 200.725 46.6534 200.608C46.6534 200.427 46.7067 200.293 46.8134 200.208C46.9307 200.112 47.0961 200.064 47.3094 200.064H48.7814L48.1734 200.192L48.9254 196.368L49.3574 196.528H47.6294C47.4907 196.528 47.3734 196.507 47.2774 196.464C47.1814 196.411 47.1067 196.347 47.0534 196.272C47.0001 196.187 46.9734 196.085 46.9734 195.968C46.9734 195.787 47.0321 195.653 47.1494 195.568C47.2667 195.472 47.4267 195.424 47.6294 195.424H49.5654L49.0534 195.568L49.5334 193.184C49.5761 192.981 49.6561 192.837 49.7734 192.752C49.8907 192.656 50.0401 192.608 50.2214 192.608C50.4134 192.608 50.5467 192.672 50.6214 192.8C50.7067 192.917 50.7281 193.088 50.6854 193.312L50.2694 195.424H52.5734L53.0214 193.184C53.0641 192.981 53.1441 192.837 53.2614 192.752C53.3787 192.656 53.5281 192.608 53.7094 192.608C53.9014 192.608 54.0347 192.672 54.1094 192.8C54.1947 192.917 54.2161 193.088 54.1734 193.312L53.7414 195.568L53.3094 195.424H54.4454C54.5947 195.424 54.7174 195.445 54.8134 195.488C54.9094 195.531 54.9787 195.595 55.0214 195.68C55.0747 195.755 55.1014 195.851 55.1014 195.968C55.1014 196.139 55.0427 196.277 54.9254 196.384C54.8187 196.48 54.6587 196.528 54.4454 196.528H53.0854L53.5814 196.368L52.8294 200.192L52.3974 200.064H54.1254C54.2641 200.064 54.3814 200.085 54.4774 200.128C54.5734 200.171 54.6481 200.235 54.7014 200.32C54.7547 200.395 54.7814 200.491 54.7814 200.608C54.7814 200.789 54.7227 200.928 54.6054 201.024C54.4987 201.12 54.3387 201.168 54.1254 201.168H52.1894L52.7014 201.04L52.1894 203.536C52.1574 203.739 52.0827 203.888 51.9654 203.984C51.8481 204.069 51.6987 204.112 51.5174 204.112C51.3254 204.112 51.1867 204.053 51.1014 203.936C51.0161 203.808 50.9947 203.632 51.0374 203.408L51.4854 201.168H49.1814L48.7174 203.536C48.6854 203.739 48.6107 203.888 48.4934 203.984C48.3761 204.069 48.2267 204.112 48.0454 204.112ZM49.3894 200.064H51.6774L52.3654 196.528H50.0774L49.3894 200.064ZM57.8671 204C57.5791 204 57.3711 203.936 57.2431 203.808C57.1151 203.669 57.0511 203.483 57.0511 203.248C57.0511 203.099 57.0885 202.955 57.1631 202.816C57.2378 202.677 57.3445 202.533 57.4831 202.384L60.8911 198.736C61.4138 198.181 61.7871 197.675 62.0111 197.216C62.2458 196.747 62.3631 196.277 62.3631 195.808C62.3631 195.211 62.1818 194.757 61.8191 194.448C61.4565 194.139 60.9231 193.984 60.2191 193.984C59.7925 193.984 59.3818 194.048 58.9871 194.176C58.5925 194.304 58.1978 194.512 57.8031 194.8C57.6431 194.907 57.4938 194.955 57.3551 194.944C57.2165 194.933 57.0938 194.88 56.9871 194.784C56.8911 194.688 56.8271 194.571 56.7951 194.432C56.7631 194.293 56.7685 194.149 56.8111 194C56.8538 193.851 56.9551 193.723 57.1151 193.616C57.5525 193.285 58.0591 193.029 58.6351 192.848C59.2111 192.667 59.7978 192.576 60.3951 192.576C61.1738 192.576 61.8298 192.699 62.3631 192.944C62.9071 193.179 63.3178 193.525 63.5951 193.984C63.8725 194.443 64.0111 195.003 64.0111 195.664C64.0111 196.112 63.9365 196.549 63.7871 196.976C63.6485 197.403 63.4298 197.84 63.1311 198.288C62.8431 198.725 62.4645 199.189 61.9951 199.68L58.7631 203.072V202.608H63.8511C64.0858 202.608 64.2671 202.667 64.3951 202.784C64.5231 202.901 64.5871 203.072 64.5871 203.296C64.5871 203.52 64.5231 203.696 64.3951 203.824C64.2671 203.941 64.0858 204 63.8511 204H57.8671ZM67.6729 204C67.3849 204 67.1609 203.925 67.0009 203.776C66.8516 203.616 66.7769 203.392 66.7769 203.104V193.616C66.7769 193.328 66.8516 193.109 67.0009 192.96C67.1609 192.8 67.3849 192.72 67.6729 192.72H73.5129C73.7369 192.72 73.9076 192.779 74.0249 192.896C74.1422 193.003 74.2009 193.163 74.2009 193.376C74.2009 193.6 74.1422 193.771 74.0249 193.888C73.9076 194.005 73.7369 194.064 73.5129 194.064H68.3769V197.6H73.1609C73.3956 197.6 73.5662 197.659 73.6729 197.776C73.7902 197.893 73.8489 198.059 73.8489 198.272C73.8489 198.496 73.7902 198.667 73.6729 198.784C73.5662 198.891 73.3956 198.944 73.1609 198.944H68.3769V202.656H73.5129C73.7369 202.656 73.9076 202.715 74.0249 202.832C74.1422 202.949 74.2009 203.115 74.2009 203.328C74.2009 203.552 74.1422 203.723 74.0249 203.84C73.9076 203.947 73.7369 204 73.5129 204H67.6729ZM76.016 204.112C75.8027 204.112 75.632 204.064 75.504 203.968C75.376 203.872 75.3014 203.744 75.28 203.584C75.2587 203.424 75.2907 203.243 75.376 203.04L79.712 193.312C79.8187 193.056 79.952 192.875 80.112 192.768C80.2827 192.661 80.4694 192.608 80.672 192.608C80.864 192.608 81.04 192.661 81.2 192.768C81.3707 192.875 81.5094 193.056 81.616 193.312L85.952 203.04C86.048 203.243 86.0854 203.429 86.064 203.6C86.0427 203.76 85.9734 203.888 85.856 203.984C85.7387 204.069 85.5734 204.112 85.36 204.112C85.1254 204.112 84.9387 204.053 84.8 203.936C84.6614 203.819 84.5387 203.637 84.432 203.392L83.312 200.8L84.064 201.248H77.248L77.984 200.8L76.88 203.392C76.7734 203.648 76.656 203.835 76.528 203.952C76.4 204.059 76.2294 204.112 76.016 204.112ZM80.64 194.56L78.224 200.288L77.824 199.904H83.472L83.104 200.288L80.672 194.56H80.64ZM91.4493 204.144C90.1373 204.144 89.1346 203.648 88.4413 202.656C87.7586 201.653 87.4173 200.219 87.4173 198.352C87.4173 197.083 87.5719 196.021 87.8813 195.168C88.1906 194.315 88.6439 193.669 89.2413 193.232C89.8386 192.795 90.5746 192.576 91.4493 192.576C92.7719 192.576 93.7746 193.067 94.4573 194.048C95.1399 195.019 95.4813 196.448 95.4813 198.336C95.4813 199.584 95.3266 200.64 95.0173 201.504C94.7079 202.368 94.2546 203.024 93.6573 203.472C93.0599 203.92 92.3239 204.144 91.4493 204.144ZM91.4493 202.768C92.2706 202.768 92.8733 202.411 93.2573 201.696C93.6519 200.971 93.8493 199.851 93.8493 198.336C93.8493 196.811 93.6519 195.701 93.2573 195.008C92.8733 194.304 92.2706 193.952 91.4493 193.952C90.6386 193.952 90.0359 194.304 89.6413 195.008C89.2466 195.701 89.0493 196.811 89.0493 198.336C89.0493 199.851 89.2466 200.971 89.6413 201.696C90.0359 202.411 90.6386 202.768 91.4493 202.768ZM98.535 204.112C98.2577 204.112 98.039 204.037 97.879 203.888C97.7297 203.739 97.655 203.52 97.655 203.232V193.616C97.655 193.328 97.7297 193.109 97.879 192.96C98.039 192.8 98.263 192.72 98.551 192.72H104.247C104.482 192.72 104.652 192.779 104.759 192.896C104.876 193.003 104.935 193.163 104.935 193.376C104.935 193.6 104.876 193.771 104.759 193.888C104.652 194.005 104.482 194.064 104.247 194.064H99.319V197.664H103.927C104.14 197.664 104.306 197.723 104.423 197.84C104.551 197.947 104.615 198.107 104.615 198.32C104.615 198.544 104.551 198.715 104.423 198.832C104.306 198.949 104.14 199.008 103.927 199.008H99.319V203.232C99.319 203.819 99.0577 204.112 98.535 204.112ZM107.51 204C107.222 204 106.998 203.925 106.838 203.776C106.689 203.616 106.614 203.392 106.614 203.104V193.616C106.614 193.328 106.689 193.109 106.838 192.96C106.998 192.8 107.222 192.72 107.51 192.72H111.318C112.097 192.72 112.758 192.837 113.302 193.072C113.857 193.307 114.278 193.643 114.566 194.08C114.865 194.517 115.014 195.045 115.014 195.664C115.014 196.347 114.812 196.923 114.406 197.392C114.001 197.861 113.452 198.176 112.758 198.336V198.096C113.548 198.203 114.166 198.501 114.614 198.992C115.062 199.472 115.286 200.101 115.286 200.88C115.286 201.883 114.956 202.656 114.294 203.2C113.633 203.733 112.705 204 111.51 204H107.51ZM108.214 202.72H111.318C112.118 202.72 112.71 202.565 113.094 202.256C113.478 201.936 113.67 201.456 113.67 200.816C113.67 200.176 113.478 199.701 113.094 199.392C112.71 199.083 112.118 198.928 111.318 198.928H108.214V202.72ZM108.214 197.648H111.062C111.83 197.648 112.412 197.493 112.806 197.184C113.201 196.875 113.398 196.421 113.398 195.824C113.398 195.227 113.201 194.773 112.806 194.464C112.412 194.155 111.83 194 111.062 194H108.214V197.648Z" fill="#02040D"/>
<path d="M48.0454 344.112C47.8427 344.112 47.6987 344.048 47.6134 343.92C47.5387 343.792 47.5227 343.621 47.5654 343.408L48.0134 341.04L48.5734 341.168H47.3094C47.1707 341.168 47.0481 341.147 46.9414 341.104C46.8454 341.061 46.7707 340.997 46.7174 340.912C46.6747 340.827 46.6534 340.725 46.6534 340.608C46.6534 340.427 46.7067 340.293 46.8134 340.208C46.9307 340.112 47.0961 340.064 47.3094 340.064H48.7814L48.1734 340.192L48.9254 336.368L49.3574 336.528H47.6294C47.4907 336.528 47.3734 336.507 47.2774 336.464C47.1814 336.411 47.1067 336.347 47.0534 336.272C47.0001 336.187 46.9734 336.085 46.9734 335.968C46.9734 335.787 47.0321 335.653 47.1494 335.568C47.2667 335.472 47.4267 335.424 47.6294 335.424H49.5654L49.0534 335.568L49.5334 333.184C49.5761 332.981 49.6561 332.837 49.7734 332.752C49.8907 332.656 50.0401 332.608 50.2214 332.608C50.4134 332.608 50.5467 332.672 50.6214 332.8C50.7067 332.917 50.7281 333.088 50.6854 333.312L50.2694 335.424H52.5734L53.0214 333.184C53.0641 332.981 53.1441 332.837 53.2614 332.752C53.3787 332.656 53.5281 332.608 53.7094 332.608C53.9014 332.608 54.0347 332.672 54.1094 332.8C54.1947 332.917 54.2161 333.088 54.1734 333.312L53.7414 335.568L53.3094 335.424H54.4454C54.5947 335.424 54.7174 335.445 54.8134 335.488C54.9094 335.531 54.9787 335.595 55.0214 335.68C55.0747 335.755 55.1014 335.851 55.1014 335.968C55.1014 336.139 55.0427 336.277 54.9254 336.384C54.8187 336.48 54.6587 336.528 54.4454 336.528H53.0854L53.5814 336.368L52.8294 340.192L52.3974 340.064H54.1254C54.2641 340.064 54.3814 340.085 54.4774 340.128C54.5734 340.171 54.6481 340.235 54.7014 340.32C54.7547 340.395 54.7814 340.491 54.7814 340.608C54.7814 340.789 54.7227 340.928 54.6054 341.024C54.4987 341.12 54.3387 341.168 54.1254 341.168H52.1894L52.7014 341.04L52.1894 343.536C52.1574 343.739 52.0827 343.888 51.9654 343.984C51.8481 344.069 51.6987 344.112 51.5174 344.112C51.3254 344.112 51.1867 344.053 51.1014 343.936C51.0161 343.808 50.9947 343.632 51.0374 343.408L51.4854 341.168H49.1814L48.7174 343.536C48.6854 343.739 48.6107 343.888 48.4934 343.984C48.3761 344.069 48.2267 344.112 48.0454 344.112ZM49.3894 340.064H51.6774L52.3654 336.528H50.0774L49.3894 340.064ZM57.9791 344C57.6911 344 57.4671 343.925 57.3071 343.776C57.1578 343.616 57.0831 343.392 57.0831 343.104V333.616C57.0831 333.328 57.1578 333.109 57.3071 332.96C57.4671 332.8 57.6911 332.72 57.9791 332.72H61.7871C62.5658 332.72 63.2271 332.837 63.7711 333.072C64.3258 333.307 64.7471 333.643 65.0351 334.08C65.3338 334.517 65.4831 335.045 65.4831 335.664C65.4831 336.347 65.2805 336.923 64.8751 337.392C64.4698 337.861 63.9205 338.176 63.2271 338.336V338.096C64.0165 338.203 64.6351 338.501 65.0831 338.992C65.5311 339.472 65.7551 340.101 65.7551 340.88C65.7551 341.883 65.4245 342.656 64.7631 343.2C64.1018 343.733 63.1738 344 61.9791 344H57.9791ZM58.6831 342.72H61.7871C62.5871 342.72 63.1791 342.565 63.5631 342.256C63.9471 341.936 64.1391 341.456 64.1391 340.816C64.1391 340.176 63.9471 339.701 63.5631 339.392C63.1791 339.083 62.5871 338.928 61.7871 338.928H58.6831V342.72ZM58.6831 337.648H61.5311C62.2991 337.648 62.8805 337.493 63.2751 337.184C63.6698 336.875 63.8671 336.421 63.8671 335.824C63.8671 335.227 63.6698 334.773 63.2751 334.464C62.8805 334.155 62.2991 334 61.5311 334H58.6831V337.648ZM67.9316 344.112C67.7183 344.112 67.5476 344.064 67.4196 343.968C67.2916 343.872 67.217 343.744 67.1956 343.584C67.1743 343.424 67.2063 343.243 67.2916 343.04L71.6276 333.312C71.7343 333.056 71.8676 332.875 72.0276 332.768C72.1983 332.661 72.385 332.608 72.5876 332.608C72.7796 332.608 72.9556 332.661 73.1156 332.768C73.2863 332.875 73.425 333.056 73.5316 333.312L77.8676 343.04C77.9636 343.243 78.001 343.429 77.9796 343.6C77.9583 343.76 77.889 343.888 77.7716 343.984C77.6543 344.069 77.489 344.112 77.2756 344.112C77.041 344.112 76.8543 344.053 76.7156 343.936C76.577 343.819 76.4543 343.637 76.3476 343.392L75.2276 340.8L75.9796 341.248H69.1636L69.8996 340.8L68.7956 343.392C68.689 343.648 68.5716 343.835 68.4436 343.952C68.3156 344.059 68.145 344.112 67.9316 344.112ZM72.5556 334.56L70.1396 340.288L69.7396 339.904H75.3876L75.0196 340.288L72.5876 334.56H72.5556ZM80.7729 344C80.4849 344 80.2609 343.925 80.1009 343.776C79.9516 343.616 79.8769 343.392 79.8769 343.104V333.616C79.8769 333.328 79.9516 333.109 80.1009 332.96C80.2609 332.8 80.4849 332.72 80.7729 332.72H84.5809C85.3596 332.72 86.0209 332.837 86.5649 333.072C87.1196 333.307 87.5409 333.643 87.8289 334.08C88.1276 334.517 88.2769 335.045 88.2769 335.664C88.2769 336.347 88.0742 336.923 87.6689 337.392C87.2636 337.861 86.7142 338.176 86.0209 338.336V338.096C86.8102 338.203 87.4289 338.501 87.8769 338.992C88.3249 339.472 88.5489 340.101 88.5489 340.88C88.5489 341.883 88.2182 342.656 87.5569 343.2C86.8956 343.733 85.9676 344 84.7729 344H80.7729ZM81.4769 342.72H84.5809C85.3809 342.72 85.9729 342.565 86.3569 342.256C86.7409 341.936 86.9329 341.456 86.9329 340.816C86.9329 340.176 86.7409 339.701 86.3569 339.392C85.9729 339.083 85.3809 338.928 84.5809 338.928H81.4769V342.72ZM81.4769 337.648H84.3249C85.0929 337.648 85.6742 337.493 86.0689 337.184C86.4636 336.875 86.6609 336.421 86.6609 335.824C86.6609 335.227 86.4636 334.773 86.0689 334.464C85.6742 334.155 85.0929 334 84.3249 334H81.4769V337.648ZM90.7254 344.112C90.5121 344.112 90.3414 344.064 90.2134 343.968C90.0854 343.872 90.0107 343.744 89.9894 343.584C89.9681 343.424 90.0001 343.243 90.0854 343.04L94.4214 333.312C94.5281 333.056 94.6614 332.875 94.8214 332.768C94.9921 332.661 95.1787 332.608 95.3814 332.608C95.5734 332.608 95.7494 332.661 95.9094 332.768C96.0801 332.875 96.2187 333.056 96.3254 333.312L100.661 343.04C100.757 343.243 100.795 343.429 100.773 343.6C100.752 343.76 100.683 343.888 100.565 343.984C100.448 344.069 100.283 344.112 100.069 344.112C99.8347 344.112 99.6481 344.053 99.5094 343.936C99.3707 343.819 99.2481 343.637 99.1414 343.392L98.0214 340.8L98.7734 341.248H91.9574L92.6934 340.8L91.5894 343.392C91.4827 343.648 91.3654 343.835 91.2374 343.952C91.1094 344.059 90.9387 344.112 90.7254 344.112ZM95.3494 334.56L92.9334 340.288L92.5334 339.904H98.1814L97.8134 340.288L95.3814 334.56H95.3494ZM103.551 344.112C103.273 344.112 103.055 344.037 102.895 343.888C102.745 343.739 102.671 343.52 102.671 343.232V333.616C102.671 333.328 102.745 333.109 102.895 332.96C103.055 332.8 103.279 332.72 103.567 332.72H109.263C109.497 332.72 109.668 332.779 109.775 332.896C109.892 333.003 109.951 333.163 109.951 333.376C109.951 333.6 109.892 333.771 109.775 333.888C109.668 334.005 109.497 334.064 109.263 334.064H104.335V337.664H108.943C109.156 337.664 109.321 337.723 109.439 337.84C109.567 337.947 109.631 338.107 109.631 338.32C109.631 338.544 109.567 338.715 109.439 338.832C109.321 338.949 109.156 339.008 108.943 339.008H104.335V343.232C104.335 343.819 104.073 344.112 103.551 344.112ZM112.51 344.112C112.233 344.112 112.014 344.037 111.854 343.888C111.705 343.739 111.63 343.52 111.63 343.232V333.616C111.63 333.328 111.705 333.109 111.854 332.96C112.014 332.8 112.238 332.72 112.526 332.72H118.222C118.457 332.72 118.627 332.779 118.734 332.896C118.851 333.003 118.91 333.163 118.91 333.376C118.91 333.6 118.851 333.771 118.734 333.888C118.627 334.005 118.457 334.064 118.222 334.064H113.294V337.664H117.902C118.115 337.664 118.281 337.723 118.398 337.84C118.526 337.947 118.59 338.107 118.59 338.32C118.59 338.544 118.526 338.715 118.398 338.832C118.281 338.949 118.115 339.008 117.902 339.008H113.294V343.232C113.294 343.819 113.033 344.112 112.51 344.112Z" fill="#02040D"/>
<path d="M48.0454 484.112C47.8427 484.112 47.6987 484.048 47.6134 483.92C47.5387 483.792 47.5227 483.621 47.5654 483.408L48.0134 481.04L48.5734 481.168H47.3094C47.1707 481.168 47.0481 481.147 46.9414 481.104C46.8454 481.061 46.7707 480.997 46.7174 480.912C46.6747 480.827 46.6534 480.725 46.6534 480.608C46.6534 480.427 46.7067 480.293 46.8134 480.208C46.9307 480.112 47.0961 480.064 47.3094 480.064H48.7814L48.1734 480.192L48.9254 476.368L49.3574 476.528H47.6294C47.4907 476.528 47.3734 476.507 47.2774 476.464C47.1814 476.411 47.1067 476.347 47.0534 476.272C47.0001 476.187 46.9734 476.085 46.9734 475.968C46.9734 475.787 47.0321 475.653 47.1494 475.568C47.2667 475.472 47.4267 475.424 47.6294 475.424H49.5654L49.0534 475.568L49.5334 473.184C49.5761 472.981 49.6561 472.837 49.7734 472.752C49.8907 472.656 50.0401 472.608 50.2214 472.608C50.4134 472.608 50.5467 472.672 50.6214 472.8C50.7067 472.917 50.7281 473.088 50.6854 473.312L50.2694 475.424H52.5734L53.0214 473.184C53.0641 472.981 53.1441 472.837 53.2614 472.752C53.3787 472.656 53.5281 472.608 53.7094 472.608C53.9014 472.608 54.0347 472.672 54.1094 472.8C54.1947 472.917 54.2161 473.088 54.1734 473.312L53.7414 475.568L53.3094 475.424H54.4454C54.5947 475.424 54.7174 475.445 54.8134 475.488C54.9094 475.531 54.9787 475.595 55.0214 475.68C55.0747 475.755 55.1014 475.851 55.1014 475.968C55.1014 476.139 55.0427 476.277 54.9254 476.384C54.8187 476.48 54.6587 476.528 54.4454 476.528H53.0854L53.5814 476.368L52.8294 480.192L52.3974 480.064H54.1254C54.2641 480.064 54.3814 480.085 54.4774 480.128C54.5734 480.171 54.6481 480.235 54.7014 480.32C54.7547 480.395 54.7814 480.491 54.7814 480.608C54.7814 480.789 54.7227 480.928 54.6054 481.024C54.4987 481.12 54.3387 481.168 54.1254 481.168H52.1894L52.7014 481.04L52.1894 483.536C52.1574 483.739 52.0827 483.888 51.9654 483.984C51.8481 484.069 51.6987 484.112 51.5174 484.112C51.3254 484.112 51.1867 484.053 51.1014 483.936C51.0161 483.808 50.9947 483.632 51.0374 483.408L51.4854 481.168H49.1814L48.7174 483.536C48.6854 483.739 48.6107 483.888 48.4934 483.984C48.3761 484.069 48.2267 484.112 48.0454 484.112ZM49.3894 480.064H51.6774L52.3654 476.528H50.0774L49.3894 480.064ZM57.9631 484.112C57.6858 484.112 57.4671 484.037 57.3071 483.888C57.1578 483.739 57.0831 483.52 57.0831 483.232V473.616C57.0831 473.328 57.1578 473.109 57.3071 472.96C57.4671 472.8 57.6911 472.72 57.9791 472.72H63.6751C63.9098 472.72 64.0805 472.779 64.1871 472.896C64.3045 473.003 64.3631 473.163 64.3631 473.376C64.3631 473.6 64.3045 473.771 64.1871 473.888C64.0805 474.005 63.9098 474.064 63.6751 474.064H58.7471V477.664H63.3551C63.5685 477.664 63.7338 477.723 63.8511 477.84C63.9791 477.947 64.0431 478.107 64.0431 478.32C64.0431 478.544 63.9791 478.715 63.8511 478.832C63.7338 478.949 63.5685 479.008 63.3551 479.008H58.7471V483.232C58.7471 483.819 58.4858 484.112 57.9631 484.112ZM66.9225 484.112C66.6452 484.112 66.4265 484.037 66.2665 483.888C66.1172 483.739 66.0425 483.52 66.0425 483.232V473.616C66.0425 473.328 66.1172 473.109 66.2665 472.96C66.4265 472.8 66.6505 472.72 66.9385 472.72H72.6345C72.8692 472.72 73.0399 472.779 73.1465 472.896C73.2639 473.003 73.3225 473.163 73.3225 473.376C73.3225 473.6 73.2639 473.771 73.1465 473.888C73.0399 474.005 72.8692 474.064 72.6345 474.064H67.7065V477.664H72.3145C72.5279 477.664 72.6932 477.723 72.8105 477.84C72.9385 477.947 73.0025 478.107 73.0025 478.32C73.0025 478.544 72.9385 478.715 72.8105 478.832C72.6932 478.949 72.5279 479.008 72.3145 479.008H67.7065V483.232C67.7065 483.819 67.4452 484.112 66.9225 484.112ZM75.8819 484.112C75.6046 484.112 75.3859 484.037 75.2259 483.888C75.0766 483.739 75.0019 483.52 75.0019 483.232V473.616C75.0019 473.328 75.0766 473.109 75.2259 472.96C75.3859 472.8 75.6099 472.72 75.8979 472.72H81.5939C81.8286 472.72 81.9992 472.779 82.1059 472.896C82.2232 473.003 82.2819 473.163 82.2819 473.376C82.2819 473.6 82.2232 473.771 82.1059 473.888C81.9992 474.005 81.8286 474.064 81.5939 474.064H76.6659V477.664H81.2739C81.4872 477.664 81.6526 477.723 81.7699 477.84C81.8979 477.947 81.9619 478.107 81.9619 478.32C81.9619 478.544 81.8979 478.715 81.7699 478.832C81.6526 478.949 81.4872 479.008 81.2739 479.008H76.6659V483.232C76.6659 483.819 76.4046 484.112 75.8819 484.112ZM84.8413 484.112C84.5639 484.112 84.3453 484.037 84.1853 483.888C84.0359 483.739 83.9613 483.52 83.9613 483.232V473.616C83.9613 473.328 84.0359 473.109 84.1853 472.96C84.3453 472.8 84.5693 472.72 84.8573 472.72H90.5533C90.7879 472.72 90.9586 472.779 91.0653 472.896C91.1826 473.003 91.2413 473.163 91.2413 473.376C91.2413 473.6 91.1826 473.771 91.0653 473.888C90.9586 474.005 90.7879 474.064 90.5533 474.064H85.6253V477.664H90.2333C90.4466 477.664 90.6119 477.723 90.7293 477.84C90.8573 477.947 90.9213 478.107 90.9213 478.32C90.9213 478.544 90.8573 478.715 90.7293 478.832C90.6119 478.949 90.4466 479.008 90.2333 479.008H85.6253V483.232C85.6253 483.819 85.3639 484.112 84.8413 484.112ZM93.8006 484.112C93.5233 484.112 93.3046 484.037 93.1446 483.888C92.9953 483.739 92.9206 483.52 92.9206 483.232V473.616C92.9206 473.328 92.9953 473.109 93.1446 472.96C93.3046 472.8 93.5286 472.72 93.8166 472.72H99.5126C99.7473 472.72 99.918 472.779 100.025 472.896C100.142 473.003 100.201 473.163 100.201 473.376C100.201 473.6 100.142 473.771 100.025 473.888C99.918 474.005 99.7473 474.064 99.5126 474.064H94.5846V477.664H99.1926C99.406 477.664 99.5713 477.723 99.6886 477.84C99.8166 477.947 99.8806 478.107 99.8806 478.32C99.8806 478.544 99.8166 478.715 99.6886 478.832C99.5713 478.949 99.406 479.008 99.1926 479.008H94.5846V483.232C94.5846 483.819 94.3233 484.112 93.8006 484.112ZM102.76 484.112C102.483 484.112 102.264 484.037 102.104 483.888C101.955 483.739 101.88 483.52 101.88 483.232V473.616C101.88 473.328 101.955 473.109 102.104 472.96C102.264 472.8 102.488 472.72 102.776 472.72H108.472C108.707 472.72 108.877 472.779 108.984 472.896C109.101 473.003 109.16 473.163 109.16 473.376C109.16 473.6 109.101 473.771 108.984 473.888C108.877 474.005 108.707 474.064 108.472 474.064H103.544V477.664H108.152C108.365 477.664 108.531 477.723 108.648 477.84C108.776 477.947 108.84 478.107 108.84 478.32C108.84 478.544 108.776 478.715 108.648 478.832C108.531 478.949 108.365 479.008 108.152 479.008H103.544V483.232C103.544 483.819 103.283 484.112 102.76 484.112Z" fill="#02040D"/>
<path d="M48.0454 511.703C47.8427 511.703 47.6987 511.639 47.6134 511.511C47.5387 511.383 47.5227 511.212 47.5654 510.999L48.0134 508.631L48.5734 508.759H47.3094C47.1707 508.759 47.0481 508.737 46.9414 508.695C46.8454 508.652 46.7707 508.588 46.7174 508.503C46.6747 508.417 46.6534 508.316 46.6534 508.199C46.6534 508.017 46.7067 507.884 46.8134 507.799C46.9307 507.703 47.0961 507.655 47.3094 507.655H48.7814L48.1734 507.783L48.9254 503.959L49.3574 504.119H47.6294C47.4907 504.119 47.3734 504.097 47.2774 504.055C47.1814 504.001 47.1067 503.937 47.0534 503.863C47.0001 503.777 46.9734 503.676 46.9734 503.559C46.9734 503.377 47.0321 503.244 47.1494 503.159C47.2667 503.063 47.4267 503.015 47.6294 503.015H49.5654L49.0534 503.159L49.5334 500.775C49.5761 500.572 49.6561 500.428 49.7734 500.343C49.8907 500.247 50.0401 500.199 50.2214 500.199C50.4134 500.199 50.5467 500.263 50.6214 500.391C50.7067 500.508 50.7281 500.679 50.6854 500.903L50.2694 503.015H52.5734L53.0214 500.775C53.0641 500.572 53.1441 500.428 53.2614 500.343C53.3787 500.247 53.5281 500.199 53.7094 500.199C53.9014 500.199 54.0347 500.263 54.1094 500.391C54.1947 500.508 54.2161 500.679 54.1734 500.903L53.7414 503.159L53.3094 503.015H54.4454C54.5947 503.015 54.7174 503.036 54.8134 503.079C54.9094 503.121 54.9787 503.185 55.0214 503.271C55.0747 503.345 55.1014 503.441 55.1014 503.559C55.1014 503.729 55.0427 503.868 54.9254 503.975C54.8187 504.071 54.6587 504.119 54.4454 504.119H53.0854L53.5814 503.959L52.8294 507.783L52.3974 507.655H54.1254C54.2641 507.655 54.3814 507.676 54.4774 507.719C54.5734 507.761 54.6481 507.825 54.7014 507.911C54.7547 507.985 54.7814 508.081 54.7814 508.199C54.7814 508.38 54.7227 508.519 54.6054 508.615C54.4987 508.711 54.3387 508.759 54.1254 508.759H52.1894L52.7014 508.631L52.1894 511.127C52.1574 511.329 52.0827 511.479 51.9654 511.575C51.8481 511.66 51.6987 511.703 51.5174 511.703C51.3254 511.703 51.1867 511.644 51.1014 511.527C51.0161 511.399 50.9947 511.223 51.0374 510.999L51.4854 508.759H49.1814L48.7174 511.127C48.6854 511.329 48.6107 511.479 48.4934 511.575C48.3761 511.66 48.2267 511.703 48.0454 511.703ZM49.3894 507.655H51.6774L52.3654 504.119H50.0774L49.3894 507.655ZM60.5711 511.735C59.2591 511.735 58.2565 511.239 57.5631 510.247C56.8805 509.244 56.5391 507.809 56.5391 505.943C56.5391 504.673 56.6938 503.612 57.0031 502.759C57.3125 501.905 57.7658 501.26 58.3631 500.823C58.9605 500.385 59.6965 500.167 60.5711 500.167C61.8938 500.167 62.8965 500.657 63.5791 501.639C64.2618 502.609 64.6031 504.039 64.6031 505.927C64.6031 507.175 64.4485 508.231 64.1391 509.095C63.8298 509.959 63.3765 510.615 62.7791 511.063C62.1818 511.511 61.4458 511.735 60.5711 511.735ZM60.5711 510.359C61.3925 510.359 61.9951 510.001 62.3791 509.287C62.7738 508.561 62.9711 507.441 62.9711 505.927C62.9711 504.401 62.7738 503.292 62.3791 502.599C61.9951 501.895 61.3925 501.543 60.5711 501.543C59.7605 501.543 59.1578 501.895 58.7631 502.599C58.3685 503.292 58.1711 504.401 58.1711 505.927C58.1711 507.441 58.3685 508.561 58.7631 509.287C59.1578 510.001 59.7605 510.359 60.5711 510.359ZM67.5609 511.591C67.2729 511.591 67.0649 511.527 66.9369 511.399C66.8089 511.26 66.7449 511.073 66.7449 510.839C66.7449 510.689 66.7822 510.545 66.8569 510.407C66.9316 510.268 67.0382 510.124 67.1769 509.975L70.5849 506.327C71.1076 505.772 71.4809 505.265 71.7049 504.807C71.9396 504.337 72.0569 503.868 72.0569 503.399C72.0569 502.801 71.8756 502.348 71.5129 502.039C71.1502 501.729 70.6169 501.575 69.9129 501.575C69.4862 501.575 69.0756 501.639 68.6809 501.767C68.2862 501.895 67.8916 502.103 67.4969 502.391C67.3369 502.497 67.1876 502.545 67.0489 502.535C66.9102 502.524 66.7876 502.471 66.6809 502.375C66.5849 502.279 66.5209 502.161 66.4889 502.023C66.4569 501.884 66.4622 501.74 66.5049 501.591C66.5476 501.441 66.6489 501.313 66.8089 501.207C67.2462 500.876 67.7529 500.62 68.3289 500.439C68.9049 500.257 69.4916 500.167 70.0889 500.167C70.8676 500.167 71.5236 500.289 72.0569 500.535C72.6009 500.769 73.0116 501.116 73.2889 501.575C73.5662 502.033 73.7049 502.593 73.7049 503.255C73.7049 503.703 73.6302 504.14 73.4809 504.567C73.3422 504.993 73.1236 505.431 72.8249 505.879C72.5369 506.316 72.1582 506.78 71.6889 507.271L68.4569 510.663V510.199H73.5449C73.7796 510.199 73.9609 510.257 74.0889 510.375C74.2169 510.492 74.2809 510.663 74.2809 510.887C74.2809 511.111 74.2169 511.287 74.0889 511.415C73.9609 511.532 73.7796 511.591 73.5449 511.591H67.5609ZM79.9586 511.735C78.6466 511.735 77.644 511.239 76.9506 510.247C76.268 509.244 75.9266 507.809 75.9266 505.943C75.9266 504.673 76.0813 503.612 76.3906 502.759C76.7 501.905 77.1533 501.26 77.7506 500.823C78.348 500.385 79.084 500.167 79.9586 500.167C81.2813 500.167 82.284 500.657 82.9666 501.639C83.6493 502.609 83.9906 504.039 83.9906 505.927C83.9906 507.175 83.836 508.231 83.5266 509.095C83.2173 509.959 82.764 510.615 82.1666 511.063C81.5693 511.511 80.8333 511.735 79.9586 511.735ZM79.9586 510.359C80.78 510.359 81.3826 510.001 81.7666 509.287C82.1613 508.561 82.3586 507.441 82.3586 505.927C82.3586 504.401 82.1613 503.292 81.7666 502.599C81.3826 501.895 80.78 501.543 79.9586 501.543C79.148 501.543 78.5453 501.895 78.1506 502.599C77.756 503.292 77.5586 504.401 77.5586 505.927C77.5586 507.441 77.756 508.561 78.1506 509.287C78.5453 510.001 79.148 510.359 79.9586 510.359ZM91.5084 511.703C91.2524 511.703 91.0497 511.633 90.9004 511.495C90.7511 511.345 90.6764 511.143 90.6764 510.887V509.303H86.3884C86.1217 509.303 85.9084 509.244 85.7484 509.127C85.5884 509.009 85.5084 508.828 85.5084 508.583C85.5084 508.444 85.5404 508.295 85.6044 508.135C85.6791 507.975 85.8071 507.767 85.9884 507.511L90.6444 500.743C90.7617 500.561 90.8951 500.428 91.0444 500.343C91.1937 500.247 91.3644 500.199 91.5564 500.199C91.7804 500.199 91.9617 500.268 92.1004 500.407C92.2497 500.535 92.3244 500.737 92.3244 501.015V507.911H93.3324C93.5884 507.911 93.7751 507.969 93.8924 508.087C94.0204 508.204 94.0844 508.375 94.0844 508.599C94.0844 508.833 94.0204 509.009 93.8924 509.127C93.7751 509.244 93.5884 509.303 93.3324 509.303H92.3244V510.887C92.3244 511.143 92.2497 511.345 92.1004 511.495C91.9617 511.633 91.7644 511.703 91.5084 511.703ZM90.6764 507.911V502.263H91.1084L86.9324 508.359V507.911H90.6764ZM99.3461 511.735C98.0341 511.735 97.0315 511.239 96.3381 510.247C95.6555 509.244 95.3141 507.809 95.3141 505.943C95.3141 504.673 95.4688 503.612 95.7781 502.759C96.0875 501.905 96.5408 501.26 97.1381 500.823C97.7355 500.385 98.4715 500.167 99.3461 500.167C100.669 500.167 101.671 500.657 102.354 501.639C103.037 502.609 103.378 504.039 103.378 505.927C103.378 507.175 103.223 508.231 102.914 509.095C102.605 509.959 102.151 510.615 101.554 511.063C100.957 511.511 100.221 511.735 99.3461 511.735ZM99.3461 510.359C100.167 510.359 100.77 510.001 101.154 509.287C101.549 508.561 101.746 507.441 101.746 505.927C101.746 504.401 101.549 503.292 101.154 502.599C100.77 501.895 100.167 501.543 99.3461 501.543C98.5355 501.543 97.9328 501.895 97.5381 502.599C97.1435 503.292 96.9461 504.401 96.9461 505.927C96.9461 507.441 97.1435 508.561 97.5381 509.287C97.9328 510.001 98.5355 510.359 99.3461 510.359ZM106.448 511.591C106.16 511.591 105.936 511.516 105.776 511.367C105.627 511.207 105.552 510.983 105.552 510.695V501.207C105.552 500.919 105.627 500.7 105.776 500.551C105.936 500.391 106.16 500.311 106.448 500.311H109.536C111.392 500.311 112.821 500.796 113.824 501.767C114.837 502.727 115.344 504.119 115.344 505.943C115.344 506.849 115.216 507.655 114.96 508.359C114.704 509.063 114.325 509.655 113.824 510.135C113.333 510.604 112.731 510.967 112.016 511.223C111.301 511.468 110.475 511.591 109.536 511.591H106.448ZM107.216 510.199H109.44C110.144 510.199 110.752 510.113 111.264 509.943C111.787 509.761 112.224 509.495 112.576 509.143C112.928 508.791 113.189 508.348 113.36 507.815C113.531 507.281 113.616 506.657 113.616 505.943C113.616 504.524 113.264 503.463 112.56 502.759C111.867 502.055 110.827 501.703 109.44 501.703H107.216V510.199Z" fill="#02040D"/>
</svg>
