<?xml version="1.0" encoding="UTF-8"?>
<svg id="Layer_2" data-name="Layer 2" xmlns="http://www.w3.org/2000/svg" viewBox="0 0 15.64 26.13">
  <defs>
    <style>
      .cls-1 {
        fill: #babaff;
      }

      .cls-2 {
        fill: rgba(33, 53, 217, .75);
      }

      .cls-3 {
        fill: rgba(46, 160, 251, .6);
        fill-rule: evenodd;
      }
    </style>
  </defs>
  <g id="Layer_1-2" data-name="Layer 1">
    <path class="cls-1" d="m12.57,2.78c4.09,2.36,4.09,8.26,0,10.62l-3.37,1.95c-4.09,2.36-9.2-.59-9.2-5.31s0-3.9,0-3.9C0,2.07,3.85-.72,7.46.17c.58.1,1.17.33,1.74.66l3.37,1.95Z"/>
    <path class="cls-2" d="m12.57,12.72c4.09,2.36,4.09,8.26,0,10.62l-3.37,1.95c-4.09,2.36-9.2-.59-9.2-5.31v-3.9c0-4.72,5.11-7.67,9.2-5.31l3.37,1.95Z"/>
    <path class="cls-3" d="m0,5.74v14.53c.04,3.34,3.61,6.99,8.12,5.52V1.07c0-.26-.03-.52-.07-.77,0,0,0,0,0,.01,0,0-1.1-.31-1.81-.31-1.74,0-3.54.67-4.7,2.08C.07,3.85,0,5.74,0,5.74Z"/>
  </g>
</svg>