<?xml version="1.0" encoding="utf-8"?>
<!-- Generator: Adobe Illustrator 27.1.1, SVG Export Plug-In . SVG Version: 6.00 Build 0)  -->
<svg version="1.1" id="Layer_1" xmlns="http://www.w3.org/2000/svg" xmlns:xlink="http://www.w3.org/1999/xlink" x="0px" y="0px"
	 viewBox="0 0 2000 2000" style="enable-background:new 0 0 2000 2000;" xml:space="preserve">
<style type="text/css">
	.st0{fill:#FFFFFF;}
</style>
<g>
	<path class="st0" d="M1797.4,1055.7c-4.1,27.6-7.4,55.3-12.4,82.7c-30.6,167.2-109.4,308.2-232.9,424.3
		c-7.5,7.1-10.7,12.6-7.2,23.6c12.5,39.6-2.5,80.5-36.5,104c-34.8,24.1-78,23.4-111.3-3c-7.9-6.2-13.5-6.1-22-2.1
		c-226.7,108.1-453.5,107.5-680.1-0.6c-8.1-3.9-13.3-3.4-20.8,1.8c-33.2,23.2-73.3,22.8-106.3,0.3c-33.5-22.8-48.4-60.7-38.7-100.6
		c2.2-8.8,0.2-14.2-6.3-20.2c-127-117.7-206.1-262.2-237.2-432.3c-7.6-41.6-8.6-84.4-11.8-126.8c-0.7-8.9-3-13.4-11.6-16.9
		c-42.4-17.5-64.3-55.6-58.8-100.6c5.1-41.9,34.8-73.2,78.9-80.1c13.6-2.1,17.4-8.9,20.5-20.1c18.5-67.3,46.5-130.6,83-190.1
		c11.2-18.3,26.2-21.2,39.3-7.9c10.3,10.4,8,21.2,1.1,32.5c-32.6,52.7-57.5,108.9-75.3,168.2c-2.6,8.8-4.9,17.8-6.7,24.3
		c11.8,12.9,21.9,24.6,33,35.3c2.9,2.8,9.2,4.2,13.3,3.4c89.7-18.2,180.3-27.4,271.7-29.7c5.3-0.1,12.4-4.4,15.5-8.9
		c24-34.1,55.6-49.6,97.6-44.6c5.7,0.7,14.4-2.7,17.8-7.2c44.6-59,94.6-112.9,149.6-162.3c3.4-3.1,5.2-10.1,4.7-15
		c-2-19.7-5.2-39.3-8.6-63.7c-69.3-41.6-148.4-75.4-233.1-100.2c-13.9,24.7-34.5,41.9-62.5,48.9c-27.6,6.9-53.4,1.6-79-15
		c-21.7,22.4-43.2,44.8-65,67c-13.6,13.9-35.1,10.6-39.8-7.2c-2-7.4,1-19.1,6.2-25c18.9-21.3,39.2-41.4,59.8-61.1
		c6.9-6.6,8.8-11.4,5.7-21.1c-13.6-41.9,1.4-83.7,37.3-107.7c36.4-24.3,78.9-22.1,113.6,6.7c6.6,5.5,11.3,6.4,19.1,2.6
		c107.8-53.5,222.2-78.6,342.3-77.4c110.8,1,216.8,24.6,317,72.5c7.8,3.7,13.3,6.1,22-0.8c32.3-25.6,73.1-26.7,107.3-4.9
		c34.9,22.3,51.5,61.5,41.8,102.2c-2.3,9.8-0.9,15.7,6.8,21.1c3,2.1,5.9,4.4,8.1,7.2c18,22.2,37.6,30,68.5,23.3
		c35.7-7.7,65.4,12.5,84.9,43.2c20.3,31.9,21.7,65.9,1.3,98.3c-7.3,11.7-6.1,19.3,0.1,30.4c53.8,95.2,84.2,197.7,93.2,306.6
		c0.4,4.6,1.9,9,2.9,13.5C1797.4,983,1797.4,1019.3,1797.4,1055.7z M701,1557.6c8.5-3.3,15.7-6.1,22.9-8.9
		c238.2-91.5,436.9-237.1,597.4-435.2c5.3-6.5,7-11.1,2.2-18.9c-10.8-17.3-14.2-36.7-11.7-56.7c1.2-10-1.1-15.5-11-20.3
		c-120.2-59-246.2-100.1-377.9-123.6c-23.3-4.2-46.8-7-70.4-10.5c-7.2,28.2-21.7,48.8-44.9,63c-23.8,14.7-49.7,15.6-76.6,10.7
		c-84.3,173.7-117.2,355.8-100.5,547c0.4,4.1,5.6,10.4,9.6,11.3C665.7,1521.3,685,1535.8,701,1557.6z M1412,1144.5
		c-13-2.2-23.7-2.4-33.1-6c-10.6-4.1-16.1-1.7-23,6.8c-161.3,199.2-360.9,346.7-599.2,441.1c-25.2,10-47.7,17.9-45.4,50.5
		c0.1,1,0.5,1.9,0.9,3.4c3.4,1.8,7,3.8,10.7,5.5c111.5,53.5,228.7,77.9,352.4,71c94.8-5.3,184.7-28.8,270.5-69.3
		c12.1-5.7,18.6-11.4,15.8-26.5c-2-10.7-0.1-22.9,2.9-33.6c10.6-37.8,36.9-59.8,76.7-69.6c1.5-39.7,3.2-79.6,4.4-119.4
		c0.6-18.9,7.7-28.1,23.2-28.2c15.6-0.1,23.8,9,23.3,27.9c-1.1,38.3-3.1,76.7-4,115c-0.1,4.4,3,10,6.4,13c4.9,4.2,11.4,6.4,17.3,9.5
		c72.5-65.3,128.9-141.4,170.5-228.6c3.5-7.3,2.7-12-3.2-17.4c-22.9-21.1-44.4-43.8-68.2-63.7c-45.3-37.7-91.9-73.9-137.7-110.6
		c-7.8,6-12.6,9.6-16.1,12.3c7.9,41,15.8,80.5,22.9,120.2c3.2,18.2-4,28.9-19,31.3c-14.3,2.3-24.3-7.2-27.6-24.9
		C1426.4,1217.6,1419.1,1181.1,1412,1144.5z M319.1,995.2c12,210.7,87.8,392.2,237.6,539.6c23.7-6.6,28.1-19.8,26.1-40.5
		c-8-81.3-4.8-162.6,7.4-243.4c16.2-107.6,48-210.5,95.1-308.7c2.4-5,0.6-13.2-1.6-19c-4.7-12.4-12.7-23.9-16.1-36.6
		c-2.9-10.7-6.4-14.3-17.6-13.2c-51,5.2-102.2,9-153.1,14.6c-34.9,3.8-69.5,9.9-104.9,15.1C389.8,950.7,365,980,319.1,995.2z
		 M1356.1,426.2c-77.7,23.2-151.2,54.8-220.5,95.9c-3.8,2.3-5.9,9.4-6.6,14.6c-2,15.2-1.2,30.9-4.7,45.7c-2.3,9.8-2.1,15.4,5.9,22.5
		c101.3,89.6,182.9,194.7,243.8,315.4c10.5,20.8,19.7,39.4,47.4,33.5c5.1-1.1,12.1-2.6,14.3-6.2c57.7-96.9,103.1-199.3,135.6-307.4
		c1.1-3.7-0.5-10.3-3.3-12.7c-45.4-39.7-53.2-78.6-25.6-135c-13.6-12.7-27.4-25.8-41-38.5C1444.3,489.9,1394.6,480.5,1356.1,426.2z
		 M1654.8,638.1c-10,1.8-17.5,2-24.1,4.7c-5.3,2.2-12.1,6.5-13.6,11.4c-34.4,111.3-81.1,217.2-140.2,317.6c-2,3.3-3.3,10.1-1.4,12.2
		c23.5,27.5,27.7,59.1,21.5,88.4c71.7,59.1,141.1,116.2,211.1,173.8C1779,1036.6,1761.6,833.9,1654.8,638.1z M827.8,798
		c5.6,8.9,12.3,16.6,15.8,25.5c3.8,9.8,10.2,12.5,19.6,14.1c50,8.5,100.2,15.8,149.6,26.9c108.4,24.4,212.1,62.8,311.8,112
		c4.8,2.4,11.7,0.3,17.7,0.2c-0.1-5.5,1.5-11.8-0.6-16.2c-9.2-19.1-19.1-37.9-29.5-56.4c-56.1-99.9-127.4-187.6-212.5-264.2
		c-7.5-6.8-13-8.2-22.7-3.2c-28.1,14.2-56.8,13.1-85.2-0.7c-4.1-2-11.8-2.4-14.6,0C921.1,684.5,871.4,738.5,827.8,798z
		 M1346.6,352.5c-2.3-1.1-5.5-2.8-8.8-4.3c-85.4-40.3-175.2-61.7-269.5-65.9c-118.1-5.3-230.7,16.7-337.5,67.2
		c-6.9,3.3-17.9,3.3-17.3,16.5c0.6,13.4,10.9,13.1,19.2,16.3c47.8,18.2,96.1,35.1,143.2,55.1c31.7,13.5,61.5,31.3,91.9,47
		c46-37,91.6-35.7,136.6,0.7c68.7-40.5,140-73.3,215.4-96.7C1338,382.6,1351.8,376.9,1346.6,352.5z M1667.1,550.5
		c0.8-27.1-18.7-48.8-44.6-49.5c-28.1-0.7-49,18.9-49.4,46.5c-0.4,26.3,18.8,46.8,44.8,47.9C1644.7,596.4,1666.3,576.7,1667.1,550.5
		z M343.6,902.9c0.2-27.4-19-47.5-46.1-48.1c-25.7-0.6-47.6,20.8-47.9,46.9c-0.3,25.8,21.3,48.1,46.7,48.2
		C323.2,950,343.3,930,343.6,902.9z M1486.8,380.1c0-26.3-21.1-47.3-47.3-47.1c-25.1,0.2-46.5,21.4-46.9,46.4
		c-0.5,27.5,20.2,48.3,47.8,48.1C1467.6,427.3,1486.8,407.7,1486.8,380.1z M1452,1047.4c-0.1-26.8-20.5-47.5-47.1-47.7
		c-25.2-0.2-47,22.2-46.9,48.2c0.1,25.9,22.3,48.3,47.4,47.6C1432.2,1094.9,1452.1,1074.3,1452,1047.4z M667.6,381.6
		c0.2-27.4-19.1-47.9-45.8-48.5c-26.9-0.6-48.4,20.6-48.4,47.9c0,25.4,20.6,46.4,46.1,47C646,428.5,667.4,407.9,667.6,381.6z
		 M1454.9,1660.1c26.1-0.1,47.1-21.5,46.8-47.7c-0.3-27.1-20.2-46.7-47.4-46.6c-27.2,0.1-46.6,19.8-46.6,47.3
		C1407.7,1639.4,1428.6,1660.2,1454.9,1660.1z M759.4,818.3c-26.4-0.1-47.6,21-47.4,47c0.2,27.1,20.3,47.3,47,47.4
		c26.5,0.1,47.1-20.2,47.8-46.9C807.4,840.2,785.6,818.4,759.4,818.3z M667.6,1609.4c0.2-25.9-21-48.3-46.3-48.8
		c-25.2-0.5-47.6,21.6-47.8,47.3c-0.3,25.7,21.1,48.1,46.5,48.6C645.5,1657.1,667.4,1635.5,667.6,1609.4z M1082.2,551.9
		c0-27.2-19.8-47.4-46.6-47.6c-25.4-0.2-47.6,21.9-47.6,47.4c-0.1,25.9,21.7,47.6,47.5,47.4C1062.9,598.9,1082.2,579.3,1082.2,551.9
		z"/>
</g>
</svg>
