<svg width="53" height="52" viewBox="0 0 53 52" fill="none" xmlns="http://www.w3.org/2000/svg">
<path d="M30.6424 15.7787C34.7315 18.1396 34.7315 24.0417 30.6424 26.4026L27.2689 28.3503C23.1798 30.7111 18.0684 27.7601 18.0684 23.0384C18.0684 18.3167 18.0684 19.143 18.0684 19.143C18.0684 15.0738 21.9189 12.2845 25.531 13.1705C26.1103 13.2727 26.7037 13.5047 27.2689 13.831L30.6424 15.7787Z" fill="#BABAFF"/>
<path d="M30.6424 25.7254C34.7315 28.0862 34.7315 33.9884 30.6424 36.3492L27.2689 38.2969C23.1798 40.6578 18.0684 37.7067 18.0684 32.985L18.0684 29.0896C18.0684 24.3679 23.1798 21.4168 27.2689 23.7777L30.6424 25.7254Z" fill="#2135D9" fill-opacity="0.75"/>
<path fill-rule="evenodd" clip-rule="evenodd" d="M18.0684 18.7413V33.2684C18.1096 36.6121 21.6817 40.2616 26.1836 38.791V14.0674C26.1836 13.804 26.1585 13.5463 26.1105 13.2969C26.1105 13.3009 26.1104 13.3049 26.1103 13.3089C26.1103 13.3089 25.0144 13.0022 24.3043 13.0022C22.5664 13.0022 20.7692 13.6691 19.6018 15.0808C18.1365 16.8528 18.0684 18.7413 18.0684 18.7413Z" fill="#2EA0FB" fill-opacity="0.6"/>
</svg>
