<svg width="40" height="40" viewBox="0 0 40 40" fill="none" xmlns="http://www.w3.org/2000/svg">
<path d="M17.9278 5.62942C15.2028 6.6229 13.7551 8.7234 13.7551 11.789C13.7551 14.2017 14.8622 16.2171 16.7924 17.3525C17.9278 18.0337 18.4671 18.1473 20.1418 18.1473C22.2991 18.1189 23.2926 17.7499 24.655 16.3874C26.4717 14.5991 27.0678 11.3916 25.9891 9.03564C24.655 6.14035 20.965 4.55078 17.9278 5.62942Z" fill="white"/>
<path d="M18.4387 20.2762C14.5216 20.8722 10.349 23.7391 8.70262 27.0034C8.02138 28.3092 7.2266 30.9206 7.2266 31.8005C7.2266 33.3333 7.11306 33.3333 20.1135 33.3333C31.723 33.3333 32.1204 33.3049 32.6313 32.7656C33.0855 32.2831 33.1139 32.0276 32.8016 30.6084C31.4675 23.9662 25.0241 19.3111 18.4387 20.2762Z" fill="white"/>
</svg>
