<svg width="33" height="41" viewBox="0 0 33 41" fill="none" xmlns="http://www.w3.org/2000/svg">
<path d="M8.18691 4.10891C2.67682 6.79752 0.269574 8.00114 0.175785 8.13401C-0.0977656 8.53261 -0.0430556 12.4796 0.277389 15.2151C1.59825 26.4697 6.83479 35.0748 15.2054 39.7643C16.3856 40.4208 16.4325 40.4208 17.6205 39.7564C21.0829 37.8181 24.2013 35.0279 26.4992 31.8078C29.8834 27.0793 31.892 21.3582 32.6345 14.3553C32.7283 13.4878 32.7752 12.3779 32.7752 10.721C32.783 8.56387 32.7674 8.32158 32.6423 8.14182C32.5485 8.00114 30.2429 6.84441 24.5999 4.09328C17.9175 0.841933 16.6435 0.247938 16.3778 0.255754C16.1199 0.263569 14.416 1.06077 8.18691 4.10891ZM17.6283 10.0254C18.9414 10.2052 20.4185 10.7757 21.5909 11.5651C22.3177 12.0419 23.451 13.183 23.9747 13.9489C26.4366 17.552 26.0693 22.2805 23.0759 25.4224C21.2783 27.3138 18.9882 28.3064 16.4091 28.3064C13.8455 28.3064 11.5399 27.3138 9.75787 25.438C7.09271 22.6322 6.45963 18.5836 8.16346 15.1369C9.922 11.5495 13.7517 9.48613 17.6283 10.0254Z" fill="#2EA0FB"/>
<path d="M20.2061 14.9805C19.9638 15.0665 19.2995 15.6839 17.3768 17.6066L14.8523 20.1311L13.891 19.1932C13.0938 18.4116 12.8593 18.2397 12.5623 18.1537C11.3743 17.8176 10.3504 18.9509 10.8194 20.0842C10.9835 20.475 13.7581 23.2652 14.1802 23.4684C14.5631 23.6482 15.0868 23.656 15.4229 23.4997C15.7511 23.3433 21.9255 17.1533 22.0271 16.8719C22.2304 16.3405 22.0584 15.5901 21.6598 15.2306C21.4644 15.0509 20.9798 14.8711 20.7063 14.8711C20.5969 14.8711 20.3702 14.918 20.2061 14.9805Z" fill="#2EA0FB"/>
</svg>
