<svg width="40" height="40" viewBox="0 0 40 40" fill="none" xmlns="http://www.w3.org/2000/svg">
<path d="M21.3658 31.1111C27.382 31.1111 31.1128 28.6623 31.1128 24.7513C31.1128 21.8091 28.3019 19.608 24.4739 19.376V19.2521C25.9399 19.078 27.2787 18.4965 28.2488 17.6125C29.2189 16.7284 29.7565 15.6001 29.7645 14.431C29.7645 11.0291 26.445 8.88892 21.1544 8.88892H8.89062V31.1111H21.3658ZM14.7897 12.3538H19.6347C22.3856 12.3538 23.9683 13.3699 23.9683 15.1564C23.9683 17.0353 22.1714 18.1302 19.0262 18.1302H14.7897V12.3516V12.3538ZM14.7897 27.6462V21.194H19.7318C23.2084 21.194 25.1024 22.3025 25.1024 24.3818C25.1024 26.5063 23.2655 27.6462 19.8689 27.6462H14.7868H14.7897Z" fill="#02040D"/>
</svg>
