<svg width="40" height="40" viewBox="0 0 40 40" fill="none" xmlns="http://www.w3.org/2000/svg">
<path d="M3.32812 31.6667C3.32812 34.5 5.49479 36.6667 8.32812 36.6667H31.6615C34.4948 36.6667 36.6615 34.5 36.6615 31.6667V18.3334H3.32812V31.6667ZM31.6615 6.66671H28.3281V5.00004C28.3281 4.00004 27.6615 3.33337 26.6615 3.33337C25.6615 3.33337 24.9948 4.00004 24.9948 5.00004V6.66671H14.9948V5.00004C14.9948 4.00004 14.3281 3.33337 13.3281 3.33337C12.3281 3.33337 11.6615 4.00004 11.6615 5.00004V6.66671H8.32812C5.49479 6.66671 3.32812 8.83337 3.32812 11.6667V15H36.6615V11.6667C36.6615 8.83337 34.4948 6.66671 31.6615 6.66671Z" fill="#2035D9"/>
</svg>
