<svg width="40" height="40" viewBox="0 0 40 40" fill="none" xmlns="http://www.w3.org/2000/svg">
<path d="M11.1111 21.1111H17.7778C18.0725 21.1111 18.3551 20.994 18.5635 20.7857C18.7718 20.5773 18.8889 20.2947 18.8889 20V11.1111C18.8889 10.8164 18.7718 10.5338 18.5635 10.3254C18.3551 10.1171 18.0725 10 17.7778 10H11.1111C10.8164 10 10.5338 10.1171 10.3254 10.3254C10.1171 10.5338 10 10.8164 10 11.1111V20C10 20.2947 10.1171 20.5773 10.3254 20.7857C10.5338 20.994 10.8164 21.1111 11.1111 21.1111ZM10 28.8889C10 29.1836 10.1171 29.4662 10.3254 29.6746C10.5338 29.8829 10.8164 30 11.1111 30H17.7778C18.0725 30 18.3551 29.8829 18.5635 29.6746C18.7718 29.4662 18.8889 29.1836 18.8889 28.8889V24.4444C18.8889 24.1498 18.7718 23.8671 18.5635 23.6588C18.3551 23.4504 18.0725 23.3333 17.7778 23.3333H11.1111C10.8164 23.3333 10.5338 23.4504 10.3254 23.6588C10.1171 23.8671 10 24.1498 10 24.4444V28.8889ZM21.1111 28.8889C21.1111 29.1836 21.2282 29.4662 21.4365 29.6746C21.6449 29.8829 21.9275 30 22.2222 30H28.8889C29.1836 30 29.4662 29.8829 29.6746 29.6746C29.8829 29.4662 30 29.1836 30 28.8889V21.1111C30 20.8164 29.8829 20.5338 29.6746 20.3254C29.4662 20.1171 29.1836 20 28.8889 20H22.2222C21.9275 20 21.6449 20.1171 21.4365 20.3254C21.2282 20.5338 21.1111 20.8164 21.1111 21.1111V28.8889ZM22.2222 17.7778H28.8889C29.1836 17.7778 29.4662 17.6607 29.6746 17.4523C29.8829 17.244 30 16.9614 30 16.6667V11.1111C30 10.8164 29.8829 10.5338 29.6746 10.3254C29.4662 10.1171 29.1836 10 28.8889 10H22.2222C21.9275 10 21.6449 10.1171 21.4365 10.3254C21.2282 10.5338 21.1111 10.8164 21.1111 11.1111V16.6667C21.1111 16.9614 21.2282 17.244 21.4365 17.4523C21.6449 17.6607 21.9275 17.7778 22.2222 17.7778Z" fill="#02040D"/>
</svg>
