<svg width="41" height="41" viewBox="0 0 41 41" fill="none" xmlns="http://www.w3.org/2000/svg">
<path d="M25.4817 2.16012C28.2173 2.16012 30.7502 3.02557 32.8209 4.50316L13.541 23.7815C13.3394 23.9762 13.1786 24.2091 13.068 24.4666C12.9574 24.7242 12.8991 25.0012 12.8967 25.2814C12.8943 25.5617 12.9477 25.8397 13.0538 26.0991C13.1599 26.3585 13.3167 26.5942 13.5149 26.7924C13.713 26.9906 13.9487 27.1473 14.2081 27.2534C14.4675 27.3596 14.7455 27.413 15.0257 27.4105C15.306 27.4081 15.583 27.3499 15.8405 27.2392C16.098 27.1286 16.331 26.9678 16.5257 26.7662L35.8055 7.48578C37.3319 9.62835 38.1503 12.1945 38.1464 14.8252V35.9336C38.1464 37.0533 37.7016 38.1271 36.9099 38.9188C36.1182 39.7105 35.0445 40.1553 33.9248 40.1553H4.3739C3.25428 40.1553 2.18051 39.7105 1.38881 38.9188C0.597114 38.1271 0.152344 37.0533 0.152344 35.9336V6.38181C0.152344 5.26215 0.597114 4.18834 1.38881 3.39662C2.18051 2.60491 3.25428 2.16012 4.3739 2.16012H25.4817ZM39.5332 0.773299C39.9289 1.16914 40.1512 1.70594 40.1512 2.26566C40.1512 2.82538 39.9289 3.36219 39.5332 3.75803L35.8034 7.48578C34.9814 6.33181 33.9727 5.32306 32.8188 4.50105L36.5464 0.773299C36.9422 0.377577 37.479 0.155273 38.0387 0.155273C38.5984 0.155273 39.1373 0.377577 39.5332 0.773299Z" fill="white"/>
</svg>
