<svg width="40" height="40" viewBox="0 0 40 40" fill="none" xmlns="http://www.w3.org/2000/svg">
<g clip-path="url(#clip0_423_2854)">
<path d="M15.5709 31.3033L12.3526 30.44L13.6643 25.5417C11.7009 24.8175 9.87614 23.7623 8.26927 22.4217L4.68094 26.0117L2.3226 23.6533L5.9126 20.065C3.88606 17.6379 2.52442 14.7263 1.96094 11.615L5.24094 11.0167C6.50594 18.02 12.6326 23.3333 20.0009 23.3333C27.3676 23.3333 33.4959 18.02 34.7609 11.0167L38.0409 11.6133C37.4782 14.725 36.1171 17.6373 34.0909 20.065L37.6793 23.6533L35.3209 26.0117L31.7326 22.4217C30.1257 23.7623 28.301 24.8175 26.3376 25.5417L27.6493 30.4417L24.4309 31.3033L23.1176 26.4033C21.0549 26.7568 18.947 26.7568 16.8843 26.4033L15.5709 31.3033Z" fill="#9197A6"/>
</g>
<defs>
<clipPath id="clip0_423_2854">
<rect width="40" height="40" fill="white"/>
</clipPath>
</defs>
</svg>
