<svg width="40" height="40" viewBox="0 0 40 40" fill="none" xmlns="http://www.w3.org/2000/svg">
<path d="M19.3816 4.66517H20.6161V1.66693H19.3816V4.66517Z" fill="#02040D"/>
<path d="M8.12949 6.48185L7.74148 6.8875L8.85259 7.98097L9.9637 9.09208L10.3341 8.68644L10.7221 8.28079L9.64624 7.16968C9.06423 6.57004 8.57041 6.07621 8.55277 6.07621C8.53513 6.07621 8.34113 6.25258 8.12949 6.48185Z" fill="#02040D"/>
<path d="M30.2813 7.20479L29.2584 8.3159L29.6641 8.68627L30.0697 9.07428L31.1632 7.96317L32.2743 6.85206L31.851 6.46405C31.6217 6.25241 31.4101 6.09368 31.3572 6.09368C31.3219 6.11132 30.8281 6.60514 30.2813 7.20479Z" fill="#02040D"/>
<path d="M17.8824 7.39883C13.8788 8.22776 10.2986 11.614 9.22274 15.5999C8.85237 16.9756 8.79946 19.6916 9.13455 21.0673C9.55783 22.8838 10.616 24.7533 12.0622 26.3406C13.773 28.1925 14.3021 29.286 14.4079 31.1554L14.4961 32.5311H25.5014L25.5896 31.1554C25.6954 29.286 26.2421 28.1572 27.9176 26.3583C30.1222 24.0126 31.1099 21.5435 31.0746 18.4218C31.0746 16.3759 30.7042 14.9297 29.7342 13.0602C27.5649 8.89795 22.4679 6.44645 17.8824 7.39883ZM18.3233 13.5717C18.3233 13.6069 18.0234 13.8009 17.6707 13.995C16.0658 14.8239 15.1663 16.3935 15.1487 18.3336C15.1487 20.2736 15.9247 21.614 17.6178 22.6369C18.5349 23.1837 17.8647 23.0778 16.5772 22.4782C15.0958 21.7727 13.5437 20.644 12.2739 19.3565L11.2686 18.3159L12.4503 17.1343C14.1963 15.4235 15.2368 14.7181 17.2298 13.9068C18.3585 13.4482 18.3233 13.4482 18.3233 13.5717ZM23.8083 14.3653C25.0076 14.9826 26.5949 16.1643 27.7236 17.3106L28.7466 18.3512L27.4591 19.5858C25.9423 21.0496 24.8841 21.7904 23.3497 22.4958C21.9035 23.1484 21.5508 23.1484 22.5913 22.4958C24.1081 21.5258 24.8488 20.1502 24.8488 18.2983C24.8312 16.3935 23.9141 14.8062 22.3444 13.995C21.9741 13.8009 21.6742 13.6246 21.6742 13.5717C21.6742 13.4659 22.9264 13.9244 23.8083 14.3653ZM20.616 14.8768C20.616 15.0532 20.8982 15.4941 21.2333 15.8292C22.027 16.6228 22.0622 17.1872 21.3039 17.1872C20.9511 17.1872 20.6513 17.0461 20.4573 16.7992C20.1222 16.3935 19.6284 16.4465 19.452 16.9226C19.3109 17.2754 19.6813 17.7163 20.1222 17.7163C20.6689 17.7163 21.4097 18.1925 21.639 18.6863C22.027 19.5152 21.9035 20.1678 21.2333 20.838C20.8982 21.1731 20.616 21.5611 20.616 21.7022C20.616 21.8609 20.4044 21.9491 19.9988 21.9491C19.5931 21.9491 19.3815 21.8609 19.3815 21.7022C19.3815 21.5611 19.0993 21.1731 18.7642 20.838C17.9705 20.0443 17.9353 19.48 18.6936 19.48C19.0464 19.48 19.3462 19.6211 19.5402 19.868C19.7518 20.1149 19.9635 20.2031 20.1575 20.1325C20.8806 19.8503 20.5984 18.9509 19.7871 18.9509C19.1346 18.9509 18.1469 17.8927 18.1469 17.1872C18.1469 16.517 18.6231 15.6352 19.064 15.4941C19.258 15.4412 19.3815 15.2295 19.3815 14.965C19.3815 14.5946 19.4697 14.5417 19.9988 14.5417C20.4926 14.5417 20.616 14.6122 20.616 14.8768Z" fill="#02040D"/>
<path d="M3.33203 18.951H6.33027V17.7164H3.33203V18.951Z" fill="#02040D"/>
<path d="M33.6673 18.951H36.6656V17.7164H33.6673V18.951Z" fill="#02040D"/>
<path d="M14.4961 34.7886C14.6548 36.5523 15.5543 37.928 17.1239 38.7922C18.0058 39.286 18.1821 39.3213 19.9987 39.3213C21.8153 39.3213 21.9917 39.286 22.8735 38.7922C24.4432 37.928 25.3426 36.5523 25.5014 34.7886L25.6072 33.7657H14.3902L14.4961 34.7886Z" fill="#02040D"/>
</svg>
