<svg width="40" height="40" viewBox="0 0 40 40" fill="none" xmlns="http://www.w3.org/2000/svg">
<path d="M30.5203 2.49097C30.0093 2.83159 29.8958 3.2006 29.8958 4.336V5.72687H28.5333C26.9437 5.72687 26.4896 6.0675 26.4896 7.28806C26.4896 8.50862 26.9437 8.84924 28.5333 8.84924H29.8958V10.2117C29.8958 11.8013 30.2364 12.2555 31.457 12.2555C32.6775 12.2555 33.0182 11.8013 33.0182 10.2117V8.84924H34.4374C35.6296 8.84924 35.9135 8.7357 36.3392 8.11123C36.765 7.42998 36.765 7.28806 36.396 6.60681C36.0554 5.98234 35.7715 5.8688 34.4942 5.78364L33.0182 5.69849V4.30762C33.0182 3.2006 32.9046 2.83159 32.3937 2.49097C32.0531 2.2355 31.6273 2.0368 31.457 2.0368C31.2867 2.0368 30.8609 2.2355 30.5203 2.49097Z" fill="white"/>
<path d="M13.9426 4.64823C12.5517 5.01723 10.6499 6.69196 9.99704 8.11121C8.80487 10.751 9.74158 14.583 11.9556 16.0874C12.5233 16.4848 13.091 16.7971 13.2046 16.7971C13.3465 16.7971 13.4316 15.9739 13.4316 15.0088C13.4316 11.631 15.9579 8.08283 19.0235 7.14612C19.6196 6.97581 20.3009 6.74873 20.5279 6.69196C21.1808 6.46487 19.4777 5.24431 17.8597 4.73338C16.2985 4.25083 15.4754 4.25083 13.9426 4.64823Z" fill="white"/>
<path d="M19.5913 8.96277C16.8664 9.95625 15.4187 12.0567 15.4187 15.1223C15.4187 17.5351 16.5257 19.5504 18.4559 20.6858C19.5913 21.3671 20.1307 21.4806 21.8054 21.4806C23.9627 21.4522 24.9561 21.0832 26.3186 19.7207C28.1353 17.9325 28.7314 14.725 27.6527 12.369C26.3186 9.4737 22.6286 7.88413 19.5913 8.96277Z" fill="white"/>
<path d="M11.4448 18.3015C7.21539 20.033 4.32011 23.5243 3.49694 27.8673C3.07116 30.1381 3.32663 30.4219 5.99483 30.4219H8.18049L8.86173 29.2014C10.0539 27.1009 11.4732 25.6249 13.6304 24.1772C14.7942 23.3824 15.9012 22.7579 16.0716 22.7579C16.2703 22.7579 16.5825 22.6444 16.8096 22.5025C17.0934 22.3038 16.9515 22.0199 16.0716 21.2535C15.4755 20.6858 14.6807 19.664 14.3117 18.9543C13.9711 18.2447 13.5169 17.6486 13.3466 17.6486C13.1479 17.6486 12.2963 17.9609 11.4448 18.3015Z" fill="white"/>
<path d="M20.1023 23.6095C16.1852 24.2056 12.0125 27.0725 10.3662 30.3368C9.68496 31.6425 8.89018 34.2539 8.89018 35.1339C8.89018 36.6667 8.77664 36.6667 21.777 36.6667C33.3866 36.6667 33.784 36.6383 34.2949 36.099C34.7491 35.6164 34.7774 35.361 34.4652 33.9417C33.1311 27.2996 26.6877 22.6444 20.1023 23.6095Z" fill="white"/>
</svg>
