<svg width="40" height="40" viewBox="0 0 40 40" fill="none" xmlns="http://www.w3.org/2000/svg">
<path d="M39.1999 20.4441C39.1999 18.7996 39.0664 17.5996 38.7777 16.3552H20V23.7773H31.0221C30.7999 25.6218 29.5999 28.3996 26.9332 30.2661L26.8959 30.5146L32.833 35.114L33.2443 35.1551C37.022 31.6662 39.1999 26.5329 39.1999 20.4441Z" fill="#4285F4"/>
<path d="M19.9994 40.0001C25.3993 40.0001 29.9331 38.2217 33.2443 35.1551L26.9332 30.2661C25.2444 31.4439 22.9771 32.2667 19.9994 32.2667C14.7106 32.2667 10.2218 28.7779 8.62162 23.9557L8.38708 23.9757L2.21355 28.7534L2.13281 28.9779C5.42165 35.5111 12.1772 40.0001 19.9994 40.0001Z" fill="#34A853"/>
<path d="M8.62162 23.9557C8.19941 22.7113 7.95552 21.3776 7.95552 19.9999C7.95552 18.622 8.19987 17.2888 8.59987 16.0443L8.58869 15.7793L2.33779 10.9248L2.13327 11.0221C0.777781 13.7332 0 16.7777 0 19.9999C0 23.2221 0.777325 26.2667 2.13281 28.9779L8.62162 23.9557Z" fill="#FBBC05"/>
<path d="M19.9994 7.73323C23.7549 7.73323 26.2882 9.35544 27.7326 10.7111L33.377 5.19997C29.9105 1.97777 25.3993 0 19.9994 0C12.1772 0 5.4221 4.48884 2.13327 11.0221L8.59987 16.0443C10.2222 11.2222 14.7106 7.73323 19.9994 7.73323Z" fill="#EB4335"/>
</svg>
