<svg width="40" height="40" viewBox="0 0 40 40" fill="none" xmlns="http://www.w3.org/2000/svg">
<path d="M19.9987 3.33333C10.7987 3.33333 3.33203 10.8 3.33203 20C3.33203 29.2 10.7987 36.6667 19.9987 36.6667C29.1987 36.6667 36.6654 29.2 36.6654 20C36.6654 10.8 29.1987 3.33333 19.9987 3.33333ZM21.6654 31.6667H18.332V28.3333H21.6654V31.6667ZM25.1154 18.75L23.6154 20.2833C22.4154 21.5 21.6654 22.5 21.6654 25H18.332V24.1667C18.332 22.3333 19.082 20.6667 20.282 19.45L22.3487 17.35C22.9654 16.75 23.332 15.9167 23.332 15C23.332 13.1667 21.832 11.6667 19.9987 11.6667C18.1654 11.6667 16.6654 13.1667 16.6654 15H13.332C13.332 11.3167 16.3154 8.33333 19.9987 8.33333C23.682 8.33333 26.6654 11.3167 26.6654 15C26.6654 16.4667 26.0654 17.8 25.1154 18.75Z" fill="#02040D"/>
</svg>
