<svg width="40" height="40" viewBox="0 0 40 40" fill="none" xmlns="http://www.w3.org/2000/svg">
<path d="M19.9959 17.0358C18.3637 17.0358 17.0317 18.3678 17.0317 20C17.0317 21.6322 18.3637 22.9642 19.9959 22.9642C21.6281 22.9642 22.96 21.6322 22.96 20C22.96 18.3678 21.6281 17.0358 19.9959 17.0358ZM28.8862 20C28.8862 18.7725 28.8973 17.5561 28.8283 16.3309C28.7594 14.9077 28.4348 13.6446 27.3941 12.6039C26.3512 11.561 25.0903 11.2385 23.6672 11.1696C22.4397 11.1007 21.2233 11.1118 19.9981 11.1118C18.7706 11.1118 17.5543 11.1007 16.329 11.1696C14.9059 11.2385 13.6428 11.5632 12.6021 12.6039C11.5592 13.6468 11.2368 14.9077 11.1679 16.3309C11.0989 17.5584 11.11 18.7747 11.11 20C11.11 21.2253 11.0989 22.4439 11.1679 23.6692C11.2368 25.0923 11.5614 26.3554 12.6021 27.3961C13.645 28.439 14.9059 28.7615 16.329 28.8304C17.5565 28.8994 18.7728 28.8882 19.9981 28.8882C21.2256 28.8882 22.4419 28.8994 23.6672 28.8304C25.0903 28.7615 26.3534 28.4368 27.3941 27.3961C28.437 26.3532 28.7594 25.0923 28.8283 23.6692C28.8995 22.4439 28.8862 21.2275 28.8862 20V20ZM19.9959 24.5609C17.472 24.5609 15.4351 22.5239 15.4351 20C15.4351 17.4761 17.472 15.4391 19.9959 15.4391C22.5198 15.4391 24.5566 17.4761 24.5566 20C24.5566 22.5239 22.5198 24.5609 19.9959 24.5609ZM24.7434 16.3175C24.1542 16.3175 23.6783 15.8416 23.6783 15.2524C23.6783 14.6631 24.1542 14.1872 24.7434 14.1872C25.3327 14.1872 25.8086 14.6631 25.8086 15.2524C25.8088 15.3923 25.7813 15.5309 25.7279 15.6602C25.6744 15.7895 25.5959 15.907 25.497 16.0059C25.3981 16.1049 25.2806 16.1833 25.1513 16.2368C25.022 16.2903 24.8834 16.3177 24.7434 16.3175V16.3175Z" fill="white"/>
<rect x="0.25" y="0.25" width="39.5" height="39.5" rx="19.75" stroke="white" stroke-opacity="0.5" stroke-width="0.5"/>
</svg>
