<svg width="45" height="41" viewBox="0 0 45 41" fill="none" xmlns="http://www.w3.org/2000/svg">
<path d="M13.6785 0.695505C10.6325 1.1701 8.20776 3.39638 7.50018 6.36475C7.24994 7.40023 7.24994 8.74635 7.50018 9.78182C8.02655 12.0081 9.51073 13.8202 11.5903 14.8039C12.5999 15.2871 13.4283 15.4683 14.6709 15.477C15.853 15.4856 16.4657 15.3648 17.5529 14.9506C20.2452 13.8978 22.1781 11.033 22.1781 8.07329C22.1781 4.69072 19.7965 1.65332 16.5261 0.859456C15.6977 0.660989 14.3947 0.591958 13.6785 0.695505ZM15.1023 4.13847C15.1023 4.475 15.1023 4.475 15.5165 4.52677C15.7409 4.56129 16.1292 4.62169 16.3794 4.67347L16.8281 4.75976V5.44145V6.11451L15.551 6.09725C14.0841 6.08862 13.9805 6.12314 13.9805 6.65813C13.9805 7.1241 14.1963 7.25353 15.0074 7.25353C15.3526 7.25353 15.8013 7.30531 15.9997 7.35708C16.4484 7.49514 16.9317 7.97837 17.0697 8.42707C17.1992 8.85852 17.2078 9.85949 17.0784 10.2996C16.8971 10.9554 16.3276 11.3782 15.4302 11.5249C15.1109 11.5767 15.1023 11.5853 15.1023 11.9563V12.3446H14.6277H14.1531V11.965V11.5853L13.4455 11.4904C12.3497 11.335 12.4273 11.3954 12.4273 10.6188V9.94578L13.7993 9.9544C15.0333 9.97166 15.1886 9.9544 15.3526 9.80771C15.5769 9.60062 15.5855 9.28997 15.3612 9.06562C15.2231 8.92756 15.0764 8.89304 14.5587 8.89304C13.4455 8.89304 12.6948 8.52199 12.436 7.8403C12.272 7.40885 12.2289 6.53733 12.341 6.00233C12.4791 5.35516 12.9537 4.82879 13.5491 4.66484C13.7648 4.60443 13.9892 4.54403 14.0496 4.52677C14.11 4.50952 14.1531 4.35419 14.1531 4.1471V3.80194H14.6277H15.1023V4.13847Z" fill="#2EA0FB"/>
<path d="M37.8047 2.51613C34.8449 2.74049 32.4029 2.95621 32.377 2.9821C32.3512 3.00799 33.1623 3.87088 34.1891 4.89773L36.053 6.76159L30.2198 12.6638L24.378 18.5574L23.8602 18.0224C23.5755 17.7204 22.8506 16.9611 22.2552 16.3311L21.1766 15.1921L20.5812 15.6667C19.8391 16.2535 18.3204 17.0215 17.3626 17.289C16.9657 17.4011 16.6378 17.5133 16.6291 17.5392C16.5946 17.6341 20.3137 21.7242 21.004 22.3455C21.8497 23.1135 22.7989 23.7521 23.3943 23.9505C23.7222 24.0627 24.0242 24.0886 24.5419 24.0627C25.3703 24.0196 26.0779 23.7089 26.958 23.0013C27.4585 22.6044 30.2888 19.8949 37.3042 13.0866L39.8756 10.5842L41.6791 12.3877C42.6714 13.38 43.4998 14.1739 43.5257 14.1566C43.5602 14.1135 44.1815 2.99073 44.1815 2.39533V2.07606L43.6896 2.08469C43.4135 2.09331 40.7644 2.28315 37.8047 2.51613Z" fill="#2EA0FB"/>
<path d="M3.95978 17.703C1.94923 19.4633 0.223429 20.9734 0.12851 21.0683C-0.0354404 21.2323 0.0163335 21.2323 4.10647 21.2323H8.24838L10.3539 19.3598C11.5188 18.3329 12.4593 17.47 12.4507 17.4528C12.4421 17.4269 12.1659 17.3233 11.838 17.2198C10.4919 16.7883 9.12854 15.9772 8.11032 14.9849L7.6271 14.5103L3.95978 17.703Z" fill="#2EA0FB"/>
<path d="M36.647 20.1795L33.5664 23.1651L33.5837 31.6992L33.6096 40.2333L33.8512 40.4404L34.0928 40.6475H37.0698H40.0554L40.3056 40.3972L40.5559 40.147V28.9379V17.7375L40.2107 17.4528C40.0295 17.3061 39.8483 17.1766 39.8052 17.1853C39.7706 17.1853 38.3469 18.5314 36.647 20.1795Z" fill="#2EA0FB"/>
<path d="M12.7033 23.4844L11.1328 24.8823L11.1501 32.5535L11.176 40.2333L11.4176 40.4404L11.6592 40.6475H14.593C17.5873 40.6475 17.7685 40.6302 18.0101 40.3109C18.0964 40.2074 18.1137 38.5247 18.1223 33.0971V26.0127L17.5269 25.4863C17.2076 25.193 16.362 24.3128 15.6544 23.5276C14.9468 22.7337 14.3514 22.0951 14.3255 22.0951C14.2996 22.0951 13.5748 22.7251 12.7033 23.4844Z" fill="#2EA0FB"/>
<path d="M0 33.0453V40.2937L0.224354 40.4663C0.448707 40.6388 0.552255 40.6475 3.38256 40.6475C6.44585 40.6475 6.71335 40.6216 6.85141 40.2592C6.8773 40.1815 6.90319 36.8939 6.90319 32.959V25.8056H3.45159H0V33.0453Z" fill="#2EA0FB"/>
<path d="M28.9592 27.238C28.3638 27.6436 27.0608 28.2131 26.267 28.4116C25.6629 28.5583 25.2574 28.6014 24.3341 28.5928C23.6955 28.5928 23.0052 28.5496 22.7981 28.4979C22.5134 28.4288 22.4184 28.4375 22.3839 28.5151C22.3667 28.5669 22.358 31.2246 22.3667 34.426L22.3926 40.2333L22.6342 40.4404L22.8758 40.6475H25.801C28.9247 40.6475 29.08 40.6302 29.244 40.2246C29.313 40.0693 29.3303 38.007 29.3216 33.5027L29.2957 27.0137L28.9592 27.238Z" fill="#2EA0FB"/>
</svg>
