<svg width="46" height="40" viewBox="0 0 46 40" fill="none" xmlns="http://www.w3.org/2000/svg">
<path d="M21.6785 0.0269856C21.551 0.0371872 21.1174 0.0779938 20.7094 0.1188C17.9396 0.414648 15.9911 1.00634 14.9658 1.86838C14.2874 2.43968 14.2007 2.84264 14.2466 5.29614C14.2772 7.25995 14.3333 7.50479 14.8587 7.97917C15.5371 8.60147 17.2153 9.22887 19.2301 9.62674C20.0616 9.78996 20.7961 9.83587 22.6987 9.83587C25.3868 9.83587 26.1213 9.76956 27.723 9.3768C29.998 8.82591 31.3038 8.06078 31.4721 7.18344C31.5027 7.03042 31.5231 5.98985 31.5231 4.80136C31.5231 2.35806 31.5537 2.51109 30.9773 1.9551C30.1 1.09306 27.7638 0.348338 25.3256 0.144305C24.6523 0.0932963 22.2702 -0.013821 22.0356 0.00148148C21.9642 0.0065823 21.806 0.0167839 21.6785 0.0269856ZM24.7237 1.24098C26.5855 1.48582 27.9219 2.03671 28.2586 2.69982C28.4014 2.97016 28.3861 3.10278 28.1923 3.38843C27.8352 3.90361 26.8916 4.38309 25.7184 4.63303C24.535 4.88807 21.551 4.90337 20.2656 4.65853C19.73 4.55652 18.7353 4.22496 18.4242 4.04133C18.0773 3.8373 17.6132 3.37823 17.5418 3.16909C17.4193 2.79163 17.7509 2.33766 18.3987 1.9959C19.0822 1.62864 20.2554 1.3277 21.4031 1.21548C21.7091 1.18997 22.0509 1.15427 22.1631 1.14407C22.5559 1.10326 24.132 1.16447 24.7237 1.24098Z" fill="#2EA0FB"/>
<path d="M13.8589 9.6928C13.3692 10.4579 12.5837 11.7076 11.3901 13.6102C10.5689 14.916 10.0486 15.7526 8.68155 17.9204C7.64609 19.568 6.81975 20.8024 6.61572 20.9962C6.45249 21.1594 6.41169 21.1697 5.2742 21.3635C3.63684 21.6389 2.93292 21.8277 1.96377 22.2408C1.14254 22.5877 0.357008 23.2049 0.178479 23.6282C0.00505145 24.0414 -0.0561584 27.7854 0.101967 28.3108C0.351907 29.1473 1.74953 29.938 3.95819 30.4889C5.34561 30.8357 6.37598 30.9275 8.92639 30.9275C10.8239 30.9275 10.9259 30.9224 11.8594 30.7847C12.8234 30.6368 13.9915 30.3664 14.7668 30.1114C15.7564 29.7798 16.7664 29.1881 17.0571 28.7648C17.2662 28.4689 17.2917 28.1476 17.2917 25.8063C17.2917 23.3783 17.3325 23.5874 16.7613 23.0621C16.3634 22.6999 15.9502 22.45 15.2514 22.1592C13.9762 21.6185 12.4919 21.3278 10.0486 21.1339C9.49768 21.0931 9.00801 21.0574 8.9621 21.0574C8.91619 21.0574 8.87538 21.0268 8.87538 20.9911C8.87538 20.9095 9.79863 19.3742 11.1197 17.2573C12.6398 14.8242 13.5834 13.2685 13.7926 12.8553C13.8436 12.7635 13.9252 12.5136 13.9762 12.3095C14.1496 11.6362 14.1139 11.6413 14.6801 12.1922C15.2565 12.7584 15.6697 13.0134 16.5164 13.3348C18.2201 13.9826 20.2145 14.2733 22.9026 14.2784C25.5245 14.2784 27.5138 14.0081 29.0899 13.4368C30.0438 13.0899 30.5692 12.7788 31.2017 12.1718C31.4363 11.9525 31.6455 11.7739 31.671 11.7739C31.722 11.7739 31.7781 11.9321 31.9056 12.437C32.0433 12.9879 32.2933 13.4215 35.0783 17.8796C36.0985 19.5119 36.9452 20.8789 36.9605 20.9197C36.9809 20.9809 36.9095 21.0013 36.5627 21.0268C36.328 21.0421 35.7975 21.0829 35.3742 21.1135C32.5585 21.3125 29.9775 22.098 29.0287 23.0468C28.5391 23.5364 28.4625 23.8986 28.4625 25.7757C28.4676 27.3927 28.5238 28.1731 28.6615 28.4434C29.3399 29.7747 32.3698 30.7592 36.2413 30.8969C39.5466 31.0142 42.5408 30.5297 44.3669 29.5758C45.1014 29.1932 45.6217 28.6832 45.7543 28.2241C45.836 27.9333 45.8819 25.0922 45.8104 24.424C45.6982 23.312 45.4993 23.011 44.5301 22.4908C43.3672 21.8685 41.3574 21.3227 39.7099 21.1799C39.4854 21.1594 39.2508 21.1288 39.1947 21.1033C39.1284 21.0829 38.8529 20.6953 38.4959 20.1291C36.6647 17.2063 32.6503 10.7946 32.1402 9.97844C31.8138 9.45306 31.5281 9.02459 31.5026 9.01949C31.472 9.01949 31.3955 9.0756 31.3241 9.14191C31.0334 9.41225 30.4111 9.78971 29.8959 10.009C26.7742 11.3302 21.3316 11.5291 17.3121 10.4732C16.1747 10.1723 15.3075 9.77951 14.7209 9.29493C14.5373 9.14191 14.3639 9.01949 14.3384 9.01949C14.3129 9.01949 14.0986 9.32554 13.8589 9.6928ZM10.6556 22.353C12.1756 22.5826 13.3182 23.0008 13.8334 23.5109C14.1037 23.7813 14.1751 24.0057 14.0782 24.2914C13.8946 24.8575 12.8081 25.4339 11.3238 25.7604C10.8137 25.8675 10.6862 25.8726 8.69685 25.8726C6.70753 25.8726 6.58001 25.8675 6.06993 25.7604C4.6417 25.4492 3.62664 24.9392 3.36649 24.3985C3.21347 24.0873 3.25938 23.8884 3.53992 23.5721C4.07041 22.9804 5.49864 22.4602 7.04419 22.2867C7.68689 22.2153 10.0231 22.2561 10.6556 22.353ZM39.4548 22.3326C40.0414 22.4092 40.9647 22.6897 41.5156 22.9549C42.0511 23.21 42.5153 23.6384 42.5663 23.9241C42.7142 24.7249 41.2656 25.5054 39.0723 25.8063C38.4194 25.8981 35.9506 25.8981 35.2976 25.8063C33.8643 25.6074 32.6758 25.1993 32.0943 24.6994C31.8495 24.4903 31.7067 24.1689 31.7526 23.919C31.7985 23.6895 32.2627 23.2253 32.6809 23.0059C33.2828 22.6897 34.4254 22.3734 35.2976 22.2765C35.8383 22.2204 38.9039 22.2612 39.4548 22.3326Z" fill="#2EA0FB"/>
<path d="M14.267 13.7993C14.216 14.0952 14.2262 15.3653 14.2823 15.8447C14.3435 16.3752 14.4353 16.5793 14.7924 16.9261C15.3586 17.4821 16.4604 17.9973 17.8631 18.3543C19.4545 18.7675 20.7961 18.9154 22.8925 18.9154C24.9175 18.9154 26.0193 18.8134 27.5036 18.4768C29.493 18.033 30.9467 17.3138 31.4007 16.5385L31.5231 16.3293L31.5129 14.9674L31.4976 13.6106L31.115 13.9013C29.952 14.7787 27.5597 15.4673 25.0348 15.6509C23.4944 15.758 20.8624 15.6968 19.4647 15.5234C17.6641 15.2939 15.8176 14.6665 14.8179 13.9421C14.5935 13.784 14.3843 13.6412 14.3537 13.6259C14.318 13.6157 14.2823 13.6871 14.267 13.7993Z" fill="#2EA0FB"/>
<path d="M28.1565 30.091C27.9729 30.1114 25.4429 30.1267 22.5303 30.1318L17.2306 30.1369L16.8225 30.4481C16.593 30.6164 16.2359 30.8409 16.0217 30.948C14.4404 31.7437 11.6758 32.2283 8.6969 32.2283C5.01921 32.2283 1.90771 31.5295 0.515183 30.392C0.306049 30.2237 0.12242 30.0859 0.102016 30.0859C0.0255041 30.0859 0 30.4889 0 31.6264V32.7843L0.295848 33.1158C0.964056 33.8758 1.8363 34.3502 3.29513 34.7532C4.9274 35.2021 6.34542 35.3602 8.6969 35.3602C10.9719 35.3602 12.4154 35.2021 14.0273 34.7736C15.634 34.34 16.7613 33.7075 17.1796 33.0036C17.2969 32.7945 17.3173 32.7078 17.3224 32.3303L17.3275 31.8967H28.4371L28.4881 32.3303C28.5187 32.57 28.5697 32.8098 28.6003 32.8659C28.7176 33.075 29.4165 33.6973 29.7633 33.8962C30.3142 34.2176 31.2272 34.5594 32.1964 34.7991C33.8644 35.2174 34.7162 35.3041 37.1595 35.3041C39.5722 35.3041 40.4495 35.2174 42.0308 34.8297C44.1017 34.3145 45.3463 33.631 45.7136 32.7996C45.8105 32.5904 45.8258 32.4272 45.8462 31.4581C45.8717 30.4022 45.8513 30.0859 45.7646 30.0859C45.7442 30.0859 45.5657 30.2033 45.3718 30.3461C43.7141 31.5499 40.3373 32.2742 36.7259 32.1977C33.4563 32.1314 30.6815 31.4938 29.1563 30.4685C28.534 30.0502 28.5391 30.0502 28.1565 30.091Z" fill="#2EA0FB"/>
<path d="M28.4779 35.7025C28.5136 36.9573 28.5545 37.2225 28.7483 37.6255C29.0441 38.2274 30.1204 38.8191 31.8037 39.3088C32.6555 39.5536 33.5584 39.7474 34.2266 39.829C35.007 39.9157 37.5982 39.9515 38.8836 39.8851C40.2812 39.8137 40.6791 39.7678 41.5462 39.574C43.8569 39.0588 45.377 38.2784 45.6626 37.4572C45.8054 37.0491 45.8615 36.4523 45.8462 35.4831L45.8309 34.5803L45.4739 34.8608C44.3925 35.7025 42.2196 36.4013 39.8375 36.6716C39.1234 36.7532 35.8588 36.7532 34.8387 36.6716C32.3087 36.4676 30.2122 35.8402 28.9523 34.9118C28.7534 34.769 28.5596 34.6262 28.5187 34.6007C28.4575 34.565 28.4524 34.7282 28.4779 35.7025Z" fill="#2EA0FB"/>
<path d="M0.020522 35.0187C-0.0304862 35.5236 0.0307237 37.0539 0.117438 37.3395C0.484697 38.5382 2.63214 39.4819 5.85076 39.8542C7.83498 40.0838 10.5537 40.0379 12.4716 39.7471C14.313 39.4666 16.0116 38.7729 16.8991 37.9465C17.3276 37.5487 17.3174 37.5844 17.3123 36.0643C17.3072 35.3298 17.2919 34.7075 17.2715 34.6922C17.2562 34.6718 17.144 34.7534 17.0216 34.8656C16.1901 35.6716 14.1804 36.3449 11.579 36.6917C10.2528 36.8703 6.96784 36.8397 5.50901 36.6356C3.14733 36.3092 1.32123 35.692 0.403084 34.9064C0.25516 34.7789 0.117438 34.6769 0.0970344 34.6769C0.0766311 34.6769 0.0409253 34.8299 0.020522 35.0187Z" fill="#2EA0FB"/>
</svg>
