<svg width="40" height="40" viewBox="0 0 40 40" fill="none" xmlns="http://www.w3.org/2000/svg">
<path d="M19.9948 19.1666C18.8897 19.1666 17.8299 18.7276 17.0485 17.9462C16.2671 17.1648 15.8281 16.105 15.8281 14.9999C15.8281 13.8948 16.2671 12.835 17.0485 12.0536C17.8299 11.2722 18.8897 10.8333 19.9948 10.8333C21.0999 10.8333 22.1597 11.2722 22.9411 12.0536C23.7225 12.835 24.1615 13.8948 24.1615 14.9999C24.1615 15.5471 24.0537 16.0889 23.8443 16.5944C23.6349 17.1 23.328 17.5593 22.9411 17.9462C22.5542 18.3331 22.0948 18.64 21.5893 18.8494C21.0838 19.0588 20.542 19.1666 19.9948 19.1666ZM19.9948 3.33325C16.9006 3.33325 13.9331 4.56241 11.7452 6.75034C9.55729 8.93826 8.32813 11.9057 8.32812 14.9999C8.32813 23.7499 19.9948 36.6666 19.9948 36.6666C19.9948 36.6666 31.6615 23.7499 31.6615 14.9999C31.6615 11.9057 30.4323 8.93826 28.2444 6.75034C26.0564 4.56241 23.089 3.33325 19.9948 3.33325Z" fill="#2035D9"/>
</svg>
