<svg width="40" height="40" viewBox="0 0 40 40" fill="none" xmlns="http://www.w3.org/2000/svg">
<path d="M3.33203 36.8222H12.2133C17.1022 36.8222 21.0945 36.7884 21.0945 36.7376C21.0945 36.7038 20.7223 36.0948 20.2656 35.4012C19.1829 33.7434 18.8784 32.8468 18.7769 30.9521L18.6754 29.3789H14.1925C10.0649 29.3789 9.64194 29.3451 8.99911 29.0406C7.40894 28.2793 7.29053 26.2324 8.76227 25.1836C9.11752 24.9298 9.86186 24.8791 14.7846 24.8114L20.384 24.7268L20.993 23.9486C21.7035 23.0013 23.2768 21.7833 24.5793 21.1743C25.6789 20.6499 27.6582 20.2439 29.0623 20.2439H30.0603L30.0265 15.9302L29.9757 11.6164L26.9308 11.5657C23.6151 11.5149 23.4628 11.4811 22.3971 10.4661C21.3313 9.43417 21.0945 8.50375 21.0945 5.35726V2.65059H3.33203V36.8222ZM24.7485 16.573C25.8481 17.5711 25.6958 19.3135 24.4271 20.0747C23.9196 20.3962 23.5305 20.4131 16.6116 20.4131C9.69269 20.4131 9.30361 20.3962 8.79611 20.0747C7.52736 19.3135 7.37511 17.5711 8.47469 16.573L9.08369 16.0147H24.1395L24.7485 16.573Z" fill="white"/>
<path d="M23.293 4.88356C23.293 7.37031 23.4621 8.24997 24.0542 8.84206C24.4433 9.23114 24.5448 9.24806 27.2853 9.24806H30.0935L29.992 8.85897C29.9412 8.65597 29.8905 8.36839 29.8905 8.23306C29.8905 7.53947 25.7966 3.58098 24.4095 2.92123C23.293 2.39681 23.293 2.39681 23.293 4.88356Z" fill="white"/>
<path d="M26.4746 23.0013C24.2247 23.7795 22.4484 25.4542 21.5857 27.6534C21.2643 28.4316 21.1966 28.956 21.1966 30.3939C21.1966 32.4915 21.5349 33.5573 22.6684 35.046C26.5084 40.0871 34.4762 38.7507 36.337 32.7453C36.9968 30.6307 36.6415 27.9917 35.4743 26.1647C33.5796 23.2043 29.7903 21.8679 26.4746 23.0013ZM29.7734 25.6403C29.8579 25.7249 29.9256 26.5707 29.9087 27.5011L29.8749 29.2097H31.6849C33.7657 29.2097 34.1209 29.3789 34.1209 30.3431C34.1209 31.5611 34.0871 31.578 31.0421 31.578C28.7414 31.578 28.2678 31.5273 27.9971 31.2905C27.7264 31.0536 27.6926 30.7153 27.6926 28.4316C27.6926 25.9448 27.7095 25.8433 28.0817 25.5726C28.4708 25.2851 29.4519 25.3189 29.7734 25.6403Z" fill="white"/>
</svg>
