<svg width="40" height="40" viewBox="0 0 40 40" fill="none" xmlns="http://www.w3.org/2000/svg">
<path d="M18.4873 4.40963C17.1789 4.74802 15.69 5.78573 15.0133 6.84599C14.0884 8.33488 13.8402 9.28235 13.953 10.8389C14.2237 14.1325 16.6826 16.3884 19.9988 16.3884C24.6234 16.3884 27.4658 11.7638 25.3904 7.613C24.3752 5.58269 22.7735 4.49987 20.5176 4.3194C19.7958 4.27428 18.8934 4.3194 18.4873 4.40963Z" fill="white"/>
<path d="M13.2986 16.05C12.1481 16.5689 10.0276 18.351 9.59896 19.118C9.32825 19.6594 10.2306 21.0807 10.975 21.2386C13.5693 21.8251 14.2461 23.878 12.5091 25.7955C12.1707 26.1564 12.0804 26.4497 12.2158 26.9234L12.3737 27.5551L12.7121 26.9685C13.2084 26.1338 14.1559 25.6376 15.4868 25.4796C16.6148 25.3443 16.6599 25.3217 17.2915 24.0584C18.1037 22.4342 18.8707 21.8025 19.9986 21.8025C21.1266 21.8025 21.8936 22.4342 22.7057 24.0584C23.3373 25.3217 23.3824 25.3443 24.5104 25.4796C25.8414 25.6376 26.7888 26.1338 27.2851 26.9685L27.6235 27.5551L27.7814 26.9234C27.9168 26.4497 27.8265 26.1564 27.4882 25.7955C26.834 25.051 26.5407 24.3968 26.5407 23.6073C26.5407 22.344 27.2851 21.6446 29.0222 21.2611C29.7666 21.1032 30.5111 19.7722 30.1952 19.1631C29.7441 18.3285 27.6461 16.5689 26.4053 16.0049L25.1646 15.4409L24.6683 15.8921C23.6531 16.8396 21.6003 17.584 19.9986 17.584C18.3969 17.584 16.1185 16.7719 15.3515 15.9147C14.8552 15.3733 14.7198 15.3733 13.2986 16.05Z" fill="white"/>
<path d="M6.73407 20.9002C6.0573 22.1409 5.92195 22.2537 4.99703 22.4116C3.19232 22.6823 2.80882 23.72 4.07212 24.9382C4.81656 25.6601 4.83912 25.7503 4.72633 26.9009C4.56842 28.2995 4.86168 28.7958 5.76404 28.7958C6.07986 28.7958 6.68895 28.5928 7.09501 28.3446L7.83946 27.8934L8.71925 28.3446C10.4337 29.2244 11.0654 28.8184 10.9526 26.946C10.8849 25.8631 10.93 25.6827 11.6068 25.0285C12.8475 23.8103 12.5317 22.7726 10.8398 22.4567C10.2307 22.344 9.71184 22.1409 9.66673 22.0281C9.62161 21.9153 9.37346 21.4867 9.10275 21.0807C8.35831 19.9978 7.29804 19.9302 6.73407 20.9002Z" fill="white"/>
<path d="M31.0751 20.8099C30.8269 21.1258 30.5562 21.577 30.4886 21.8025C30.3532 22.2086 29.7441 22.4793 28.8643 22.4793C27.5333 22.4793 27.2852 23.9456 28.4357 25.0961C29.135 25.7955 29.1801 25.9308 29.0222 26.7429C28.7064 28.5477 29.6088 29.2019 31.2556 28.3672L32.1579 27.8934L32.9024 28.3446C33.3084 28.5928 33.9175 28.7958 34.2333 28.7958C35.1357 28.7958 35.429 28.2995 35.271 26.9009C35.1582 25.7503 35.1808 25.6601 35.9252 24.9382C37.1885 23.72 36.805 22.6823 35.0003 22.4116C34.0754 22.2537 33.9401 22.1409 33.2633 20.9227C32.767 19.9978 31.7519 19.9527 31.0751 20.8099Z" fill="white"/>
<path d="M19.0514 23.314C18.8484 23.5396 18.4197 24.284 18.0814 24.9608C17.743 25.6376 17.4497 26.2241 17.4046 26.2692C17.382 26.2918 16.7729 26.4271 16.0285 26.5625C14.0659 26.9009 13.9756 26.946 13.6824 27.6453C13.344 28.4574 13.5921 28.9537 14.9231 30.3749L15.9157 31.3901L15.645 33.1271C15.4194 34.7062 15.442 34.9093 15.8255 35.3379C16.3894 35.9695 17.2241 35.9019 18.713 35.0897L19.9989 34.3904L21.2396 35.0897C22.6834 35.9019 23.5857 35.9695 24.1723 35.3379C24.5558 34.9093 24.5783 34.7062 24.3527 33.1271L24.082 31.3901L25.0746 30.3749C26.4056 28.9537 26.6537 28.4574 26.3153 27.6453C26.0221 26.946 25.9318 26.9009 23.9692 26.5625C23.2248 26.4271 22.6157 26.2918 22.5931 26.2692C22.548 26.2241 22.2547 25.6376 21.9164 24.9608C21.1042 23.3366 20.7207 22.9305 19.9989 22.9305C19.6605 22.9305 19.2319 23.111 19.0514 23.314Z" fill="white"/>
<path d="M11.5165 29.1567C10.7269 30.0365 9.64411 30.1719 8.4936 29.5854C7.11751 28.8635 6.62121 30.1042 7.79428 31.2998L8.44848 31.954H11.5165C13.2084 31.954 14.5845 31.8864 14.5845 31.7961C14.5845 31.7059 14.2236 31.2773 13.7949 30.8261C13.3663 30.3975 12.8475 29.6756 12.6219 29.2244L12.2158 28.4123L11.5165 29.1567Z" fill="white"/>
<path d="M27.3755 29.1342C27.1725 29.5628 26.6536 30.3072 26.2024 30.781C25.7738 31.2773 25.4129 31.7285 25.4129 31.8187C25.4129 31.8864 26.789 31.954 28.4809 31.954H31.5489L32.2031 31.2998C32.9024 30.578 33.0829 29.6079 32.5189 29.3823C32.3385 29.3147 31.8422 29.4049 31.4135 29.5854C30.0826 30.1493 29.293 30.014 28.4583 29.1567L27.7364 28.3897L27.3755 29.1342Z" fill="white"/>
</svg>
