<svg width="40" height="40" viewBox="0 0 40 40" fill="none" xmlns="http://www.w3.org/2000/svg">
<path d="M23.6729 28.75C23.6731 29.3807 23.4349 29.9882 23.006 30.4507C22.5772 30.9132 21.9894 31.1964 21.3604 31.2438L21.1729 31.25H18.6729C18.0422 31.2502 17.4347 31.012 16.9722 30.5831C16.5097 30.1543 16.2265 29.5664 16.1792 28.9375L16.1729 28.75H23.6729ZM19.9229 7.5C22.1916 7.49996 24.3717 8.38112 26.0032 9.95759C27.6347 11.5341 28.5901 13.6826 28.6679 15.95L28.6729 16.25V20.955L30.9504 25.51C31.0498 25.7088 31.0995 25.9286 31.0954 26.1508C31.0912 26.373 31.0333 26.5908 30.9265 26.7857C30.8197 26.9806 30.6673 27.1467 30.4823 27.2698C30.2972 27.3929 30.0852 27.4693 29.8642 27.4925L29.7204 27.5H10.1254C9.90311 27.5001 9.68411 27.4462 9.48718 27.3431C9.29025 27.24 9.12125 27.0907 8.99468 26.9079C8.8681 26.7252 8.78772 26.5145 8.76041 26.2939C8.73311 26.0733 8.7597 25.8493 8.83791 25.6413L8.89541 25.51L11.1729 20.955V16.25C11.1729 13.9294 12.0948 11.7038 13.7357 10.0628C15.3767 8.42187 17.6023 7.5 19.9229 7.5Z" fill="#02040D"/>
</svg>
