<svg width="40" height="40" viewBox="0 0 40 40" fill="none" xmlns="http://www.w3.org/2000/svg">
<path d="M20.0013 28.3333C20.8854 28.3333 21.7332 27.9821 22.3583 27.357C22.9834 26.7319 23.3346 25.884 23.3346 25C23.3346 24.1159 22.9834 23.2681 22.3583 22.643C21.7332 22.0178 20.8854 21.6667 20.0013 21.6667C19.1172 21.6667 18.2694 22.0178 17.6443 22.643C17.0192 23.2681 16.668 24.1159 16.668 25C16.668 25.884 17.0192 26.7319 17.6443 27.357C18.2694 27.9821 19.1172 28.3333 20.0013 28.3333ZM30.0013 13.3333C30.8854 13.3333 31.7332 13.6845 32.3583 14.3096C32.9834 14.9348 33.3346 15.7826 33.3346 16.6667V33.3333C33.3346 34.2174 32.9834 35.0652 32.3583 35.6903C31.7332 36.3155 30.8854 36.6667 30.0013 36.6667H10.0013C9.11725 36.6667 8.2694 36.3155 7.64428 35.6903C7.01916 35.0652 6.66797 34.2174 6.66797 33.3333V16.6667C6.66797 15.7826 7.01916 14.9348 7.64428 14.3096C8.2694 13.6845 9.11725 13.3333 10.0013 13.3333H11.668V9.99999C11.668 7.78985 12.5459 5.67024 14.1087 4.10743C15.6715 2.54463 17.7912 1.66666 20.0013 1.66666C21.0957 1.66666 22.1793 1.8822 23.1903 2.30099C24.2014 2.71978 25.12 3.33361 25.8939 4.10743C26.6677 4.88125 27.2815 5.79991 27.7003 6.81096C28.1191 7.82201 28.3346 8.90564 28.3346 9.99999V13.3333H30.0013ZM20.0013 4.99999C18.6752 4.99999 17.4034 5.52677 16.4658 6.46446C15.5281 7.40214 15.0013 8.67391 15.0013 9.99999V13.3333H25.0013V9.99999C25.0013 8.67391 24.4745 7.40214 23.5368 6.46446C22.5992 5.52677 21.3274 4.99999 20.0013 4.99999Z" fill="#9197A6"/>
</svg>
