<svg width="40" height="40" viewBox="0 0 40 40" fill="none" xmlns="http://www.w3.org/2000/svg">
<path d="M5.82546 2.5514C4.64979 2.86284 3.74663 3.79715 3.46634 4.9806C3.28726 5.72805 3.28726 12.4862 3.46634 13.2336C3.83227 14.8142 5.1948 15.803 6.98556 15.803H7.52279L7.5695 13.7164C7.61622 11.3884 7.69407 10.9057 8.19237 9.91685C8.7841 8.74897 9.60162 7.91588 10.7539 7.31637C11.805 6.76357 12.2722 6.68571 14.6547 6.639L16.7335 6.59228V6.05505C16.7335 4.61466 16.1418 3.51685 15.005 2.84727C14.3121 2.4424 13.9773 2.41126 9.9987 2.41904C6.80648 2.41904 6.27704 2.43462 5.82546 2.5514Z" fill="white"/>
<path d="M12.2335 9.26276C12.0077 9.34062 11.7119 9.48077 11.5639 9.56641C11.1435 9.83113 10.5128 10.5552 10.287 11.0302L10.0768 11.4817V23.3163L10.3415 23.8613C10.9566 25.107 12.1012 25.7688 13.6583 25.7688H14.2423V22.0861C14.2423 18.6837 14.2578 18.3645 14.398 17.7649C14.7951 16.1221 15.8617 14.744 17.3566 13.981C18.6024 13.3348 18.797 13.3114 23.0248 13.3114H26.6997V12.7275C26.6997 11.1703 26.0379 10.0258 24.7921 9.41069L24.2471 9.14597L18.4467 9.1304C12.9031 9.11483 12.6306 9.11483 12.2335 9.26276Z" fill="white"/>
<path d="M18.961 15.8809C17.9566 16.2001 17.1157 17.0565 16.8121 18.0531C16.6564 18.5592 16.6564 18.7383 16.6719 25.8857L16.6953 33.2045L16.9445 33.7339C17.4194 34.7305 18.3459 35.4624 19.3737 35.657C19.6306 35.7037 22.3946 35.7349 26.6924 35.7349C32.6097 35.7349 33.6608 35.7193 34.0968 35.6103C34.9532 35.4079 35.6306 34.9251 36.1289 34.1543C36.6739 33.3135 36.6661 33.4614 36.6661 25.7456C36.6661 21.4633 36.635 18.6993 36.5882 18.4424C36.3936 17.4147 35.6617 16.4882 34.6651 16.0132L34.1357 15.7641L26.778 15.7485C19.7396 15.7329 19.397 15.7407 18.961 15.8809Z" fill="white"/>
</svg>
