<svg width="40" height="40" viewBox="0 0 40 40" fill="none" xmlns="http://www.w3.org/2000/svg">
<path d="M24.1126 23.3461C23.9291 23.2861 22.7695 22.7635 23.4941 20.5608H23.4837C25.3726 18.6154 26.8161 15.485 26.8161 12.4031C26.8161 7.66422 23.6649 5.17999 20.0026 5.17999C16.338 5.17999 13.2041 7.66307 13.2041 12.4031C13.2041 15.4977 14.6395 18.6408 16.5399 20.5815C17.2807 22.5246 15.9561 23.2458 15.6791 23.3473C11.8438 24.7342 7.34375 27.2623 7.34375 29.7581V30.6938C7.34375 34.0942 13.9368 34.8673 20.0384 34.8673C26.1491 34.8673 32.6591 34.0942 32.6591 30.6938V29.7581C32.6591 27.1873 28.1372 24.6788 24.1126 23.3461Z" fill="#9197A6"/>
</svg>
