<svg width="40" height="40" viewBox="0 0 40 40" fill="none" xmlns="http://www.w3.org/2000/svg">
<path d="M27.0654 12.9333C26.1391 12.0026 25.0378 11.2642 23.825 10.7608C22.6122 10.2574 21.3118 9.9988 19.9987 10V20L12.932 27.0667C16.832 30.9667 23.1654 30.9667 27.082 27.0667C28.0102 26.1383 28.7461 25.0359 29.2477 23.8227C29.7493 22.6095 30.0067 21.3093 30.0051 19.9966C30.0036 18.6838 29.7431 17.3842 29.2387 16.1722C28.7342 14.9602 27.9957 13.8596 27.0654 12.9333ZM19.9987 3.33334C10.7987 3.33334 3.33203 10.8 3.33203 20C3.33203 29.2 10.7987 36.6667 19.9987 36.6667C29.1987 36.6667 36.6654 29.2 36.6654 20C36.6654 10.8 29.1987 3.33334 19.9987 3.33334ZM19.9987 33.3333C12.632 33.3333 6.66536 27.3667 6.66536 20C6.66536 12.6333 12.632 6.66668 19.9987 6.66668C27.3654 6.66668 33.332 12.6333 33.332 20C33.332 27.3667 27.3654 33.3333 19.9987 33.3333Z" fill="#2135D9"/>
</svg>
