<svg width="40" height="40" viewBox="0 0 40 40" fill="none" xmlns="http://www.w3.org/2000/svg">
<path d="M30 14.1508C29.2645 14.4767 28.4744 14.6969 27.6438 14.7965C28.5008 14.2836 29.142 13.4765 29.4477 12.5257C28.6425 13.004 27.7612 13.3406 26.8422 13.521C26.2242 12.8612 25.4057 12.4238 24.5136 12.2768C23.6216 12.1299 22.706 12.2815 21.909 12.7082C21.1119 13.135 20.4781 13.8129 20.1058 14.6368C19.7336 15.4606 19.6437 16.3844 19.8503 17.2645C18.2187 17.1826 16.6226 16.7585 15.1655 16.0198C13.7085 15.2811 12.423 14.2443 11.3926 12.9767C11.0403 13.5844 10.8377 14.2891 10.8377 15.0396C10.8373 15.7152 11.0036 16.3804 11.322 16.9763C11.6404 17.5721 12.1009 18.0802 12.6627 18.4554C12.0112 18.4347 11.374 18.2586 10.8042 17.9419V17.9947C10.8041 18.9423 11.1319 19.8606 11.7319 20.594C12.3318 21.3274 13.1671 21.8307 14.0958 22.0183C13.4914 22.1819 12.8577 22.206 12.2426 22.0888C12.5046 22.9041 13.0151 23.6171 13.7024 24.1278C14.3898 24.6386 15.2197 24.9217 16.0759 24.9374C14.6224 26.0784 12.8273 26.6974 10.9795 26.6946C10.6521 26.6947 10.3251 26.6756 10 26.6374C11.8757 27.8434 14.0591 28.4834 16.2891 28.4809C23.8378 28.4809 27.9644 22.2289 27.9644 16.8065C27.9644 16.6303 27.96 16.4524 27.9521 16.2762C28.7548 15.6958 29.4476 14.9769 29.9982 14.1535L30 14.1508V14.1508Z" fill="white"/>
<rect x="0.25" y="0.25" width="39.5" height="39.5" rx="19.75" stroke="white" stroke-opacity="0.5" stroke-width="0.5"/>
</svg>
