<svg width="40" height="40" viewBox="0 0 40 40" fill="none" xmlns="http://www.w3.org/2000/svg">
<path d="M30.8351 28.8165H9.1684C9.01562 28.8165 8.89062 28.9191 8.89062 29.0459V30.8817C8.89062 31.0085 9.01562 31.1111 9.1684 31.1111H30.8351C30.9878 31.1111 31.1128 31.0085 31.1128 30.8817V29.0459C31.1128 28.9191 30.9878 28.8165 30.8351 28.8165ZM20.0017 26.5218C22.4115 26.5218 24.6753 25.7035 26.3837 24.221C28.092 22.7386 29.0295 20.7669 29.0295 18.6715V9.25123C29.0295 9.05196 28.842 8.88892 28.6128 8.88892H26.5295C26.3003 8.88892 26.1128 9.05196 26.1128 9.25123V18.6715C26.1128 21.6003 23.3698 23.9855 20.0017 23.9855C16.6337 23.9855 13.8906 21.6003 13.8906 18.6715V9.25123C13.8906 9.05196 13.7031 8.88892 13.474 8.88892H11.3906C11.1615 8.88892 10.974 9.05196 10.974 9.25123V18.6715C10.974 20.7669 11.9149 22.7355 13.6198 24.221C15.3247 25.7065 17.592 26.5218 20.0017 26.5218Z" fill="#02040D"/>
</svg>
