<svg width="40" height="40" viewBox="0 0 40 40" fill="none" xmlns="http://www.w3.org/2000/svg">
<path d="M13.8827 5.08816C8.52983 10.441 8.26513 10.8528 9.26511 12.2939C9.58864 12.7645 10.0004 12.941 10.7357 12.941C11.6768 12.941 12.118 12.5881 14.765 10.0293L17.765 7.08813L17.912 19.1468C18.0591 30.676 18.0885 31.2348 18.6179 31.6466C19.5297 32.3231 20.7355 32.1466 21.412 31.2937C22.0002 30.529 22.0296 30.2054 22.0296 18.7056V6.91167L25.059 9.94103C27.6178 12.4704 28.206 12.941 29.0001 12.941C30.4413 12.941 31.5295 11.4998 30.9119 10.4116C30.7648 10.1175 28.4119 7.67636 25.6766 4.94111C21.4708 0.764695 20.5885 0 19.8532 0C19.0885 0 18.2062 0.764695 13.8827 5.08816Z" fill="#2135D9"/>
<path d="M1.29169 23.2355C-0.00240536 23.7355 -0.0612281 24.0885 0.027006 29.9119C0.11524 36.1177 0.350531 37.0295 2.20345 38.4412C4.23283 39.9706 4.35047 39.9706 19.7914 40C30.2913 40 34.4971 39.9118 35.3794 39.6471C36.9677 39.1765 39.1441 37 39.6147 35.4118C39.8206 34.6765 39.9676 32.3236 39.9676 29.3237C39.9676 25.059 39.9088 24.412 39.4382 23.7944C38.6735 22.8826 37.1441 22.8826 36.3794 23.7944C35.9088 24.412 35.85 25.059 35.85 29.4707C35.85 34.353 35.85 34.4413 35.1147 35.1471L34.4089 35.8824H5.58575L3.93871 34.4707L3.85048 29.6472C3.76225 23.9414 3.73284 23.7355 2.76226 23.2944C2.3505 23.0885 1.96815 22.9414 1.93874 22.9708C1.90933 22.9708 1.61522 23.0885 1.29169 23.2355Z" fill="#2135D9"/>
</svg>
