<svg width="40" height="40" viewBox="0 0 40 40" fill="none" xmlns="http://www.w3.org/2000/svg">
<path d="M29.5812 15.4264C29.468 15.0224 29.2474 14.6568 28.943 14.3682C28.6299 14.0707 28.2462 13.8579 27.8281 13.7499C26.2633 13.3375 19.9942 13.3375 19.9942 13.3375C17.3806 13.3077 14.7677 13.4385 12.1702 13.7291C11.7521 13.8451 11.3691 14.0626 11.0554 14.3623C10.7471 14.659 10.5238 15.0247 10.4071 15.4255C10.1269 16.9351 9.99076 18.4679 10.0005 20.0032C9.99052 21.5372 10.1263 23.0695 10.4071 24.581C10.5213 24.9801 10.7437 25.3442 11.0529 25.6383C11.362 25.9324 11.7469 26.1449 12.1702 26.2574C13.7558 26.669 19.9942 26.669 19.9942 26.669C22.611 26.6988 25.2273 26.568 27.8281 26.2774C28.2462 26.1694 28.6299 25.9566 28.943 25.6592C29.2473 25.3706 29.4676 25.0049 29.5804 24.601C29.8679 23.092 30.0077 21.5585 29.9978 20.0224C30.0194 18.4798 29.8798 16.9391 29.5812 15.4255V15.4264ZM18.0011 22.8562V17.1511L23.2171 20.0041L18.0011 22.8562Z" fill="white"/>
<rect x="0.25" y="0.25" width="39.5" height="39.5" rx="19.75" stroke="white" stroke-opacity="0.5" stroke-width="0.5"/>
</svg>
