<svg width="764" height="764" viewBox="0 0 764 764" fill="none" xmlns="http://www.w3.org/2000/svg">
<path d="M453.5 134.491C513.5 169.132 513.5 255.735 453.5 290.376L404 318.955C344 353.596 269 310.294 269 241.012C269 171.73 269 183.855 269 183.855C269 124.148 325.5 83.2204 378.5 96.2203C387 97.7202 395.707 101.125 404 105.912L453.5 134.491Z" fill="#BABAFF"/>
<path d="M453.5 280.438C513.5 315.079 513.5 401.682 453.5 436.323L404 464.902C344 499.543 269 456.241 269 386.959L269 329.802C269 260.52 344 217.218 404 251.859L453.5 280.438Z" fill="#2135D9" fill-opacity="0.75"/>
<path fill-rule="evenodd" clip-rule="evenodd" d="M269 177.96V391.119C269.605 440.181 322.019 493.73 388.076 472.151V109.381C388.076 105.515 387.707 101.735 387.003 98.0739C387.002 98.1324 387.001 98.191 387 98.2495C387 98.2495 370.92 93.7495 360.5 93.7495C335 93.7495 308.629 103.535 291.5 124.25C270 150.25 269 177.96 269 177.96Z" fill="#2EA0FB" fill-opacity="0.6"/>
<path d="M189.142 639.313C186.086 639.313 183.725 638.526 182.058 636.952C180.483 635.285 179.696 632.923 179.696 629.867V550.826C179.696 547.77 180.483 545.455 182.058 543.88C183.725 542.213 186.086 541.38 189.142 541.38H222.482C229.335 541.38 235.169 542.398 239.985 544.436C244.8 546.473 248.458 549.39 250.959 553.187C253.552 556.984 254.848 561.522 254.848 566.801C254.848 572.728 253.135 577.729 249.708 581.803C246.282 585.878 241.605 588.61 235.678 589.999V587.916C242.531 588.934 247.856 591.527 251.653 595.695C255.45 599.862 257.349 605.28 257.349 611.948C257.349 620.653 254.385 627.413 248.458 632.229C242.624 636.952 234.474 639.313 224.01 639.313H189.142ZM196.783 625.839H221.787C228.084 625.839 232.715 624.635 235.678 622.227C238.642 619.727 240.123 616.022 240.123 611.114C240.123 606.113 238.642 602.409 235.678 600.001C232.715 597.593 228.084 596.389 221.787 596.389H196.783V625.839ZM196.783 582.915H219.425C225.538 582.915 230.075 581.757 233.039 579.442C236.095 577.034 237.623 573.515 237.623 568.885C237.623 564.254 236.095 560.781 233.039 558.466C230.075 556.058 225.538 554.854 219.425 554.854H196.783V582.915ZM282.558 640.425C279.687 640.425 277.465 639.684 275.89 638.202C274.409 636.628 273.668 634.405 273.668 631.534V579.025C273.668 576.154 274.409 573.978 275.89 572.496C277.372 571.015 279.456 570.274 282.141 570.274C284.827 570.274 286.911 571.015 288.393 572.496C289.874 573.978 290.615 576.154 290.615 579.025V587.777H289.226C290.523 582.22 293.069 578.007 296.866 575.136C300.663 572.265 305.71 570.552 312.008 569.996C313.953 569.811 315.481 570.32 316.592 571.524C317.796 572.635 318.49 574.395 318.676 576.803C318.861 579.118 318.305 581.016 317.009 582.498C315.805 583.887 313.953 584.721 311.452 584.998L308.396 585.276C302.747 585.832 298.487 587.592 295.616 590.555C292.745 593.426 291.31 597.501 291.31 602.779V631.534C291.31 634.405 290.569 636.628 289.087 638.202C287.605 639.684 285.429 640.425 282.558 640.425ZM336.679 640.286C333.901 640.286 331.771 639.452 330.289 637.785C328.807 636.118 328.066 633.803 328.066 630.84V579.859C328.066 576.803 328.807 574.487 330.289 572.913C331.771 571.246 333.901 570.413 336.679 570.413C339.457 570.413 341.587 571.246 343.069 572.913C344.643 574.487 345.43 576.803 345.43 579.859V630.84C345.43 633.803 344.69 636.118 343.208 637.785C341.726 639.452 339.55 640.286 336.679 640.286ZM336.679 557.494C333.438 557.494 330.891 556.707 329.039 555.132C327.279 553.465 326.399 551.196 326.399 548.325C326.399 545.362 327.279 543.093 329.039 541.519C330.891 539.944 333.438 539.157 336.679 539.157C340.013 539.157 342.56 539.944 344.319 541.519C346.079 543.093 346.958 545.362 346.958 548.325C346.958 551.196 346.079 553.465 344.319 555.132C342.56 556.707 340.013 557.494 336.679 557.494ZM389.588 640.703C383.662 640.703 378.429 639.267 373.891 636.396C369.446 633.525 365.973 629.451 363.473 624.172C360.972 618.801 359.722 612.503 359.722 605.28C359.722 597.964 360.972 591.713 363.473 586.527C365.973 581.248 369.446 577.173 373.891 574.302C378.429 571.431 383.662 569.996 389.588 569.996C395.238 569.996 400.146 571.385 404.313 574.163C408.573 576.942 411.444 580.6 412.926 585.137H411.398V549.02C411.398 546.149 412.139 543.973 413.62 542.491C415.102 541.009 417.232 540.268 420.01 540.268C422.789 540.268 424.919 541.009 426.4 542.491C427.975 543.973 428.762 546.149 428.762 549.02V631.534C428.762 634.405 428.021 636.628 426.539 638.202C425.058 639.684 422.928 640.425 420.149 640.425C417.371 640.425 415.241 639.684 413.759 638.202C412.278 636.628 411.537 634.405 411.537 631.534V620.699L413.065 624.867C411.676 629.682 408.851 633.525 404.591 636.396C400.331 639.267 395.33 640.703 389.588 640.703ZM394.45 627.506C397.877 627.506 400.887 626.672 403.48 625.005C406.073 623.338 408.064 620.884 409.453 617.643C410.935 614.309 411.676 610.188 411.676 605.28C411.676 597.871 410.101 592.361 406.953 588.749C403.804 585.045 399.637 583.193 394.45 583.193C391.024 583.193 388.014 584.026 385.421 585.693C382.828 587.267 380.791 589.722 379.309 593.055C377.92 596.297 377.225 600.372 377.225 605.28C377.225 612.596 378.8 618.152 381.948 621.949C385.097 625.654 389.264 627.506 394.45 627.506ZM478.439 665.707C473.438 665.707 468.576 665.244 463.853 664.318C459.222 663.392 455.009 661.956 451.212 660.012C449.452 659.085 448.248 657.974 447.6 656.678C447.044 655.381 446.859 654.038 447.044 652.649C447.322 651.353 447.878 650.195 448.711 649.176C449.637 648.158 450.749 647.463 452.045 647.093C453.342 646.722 454.684 646.907 456.074 647.648C460.148 649.686 463.992 650.982 467.603 651.538C471.308 652.186 474.456 652.51 477.049 652.51C483.254 652.51 487.885 650.982 490.941 647.926C494.089 644.963 495.664 640.517 495.664 634.59V622.088H496.914C495.525 626.811 492.608 630.608 488.162 633.479C483.81 636.257 478.855 637.647 473.299 637.647C467.187 637.647 461.862 636.257 457.324 633.479C452.786 630.608 449.267 626.626 446.766 621.533C444.266 616.439 443.016 610.512 443.016 603.752C443.016 598.658 443.71 594.074 445.099 589.999C446.581 585.832 448.619 582.267 451.212 579.303C453.897 576.34 457.092 574.071 460.797 572.496C464.594 570.829 468.761 569.996 473.299 569.996C479.041 569.996 484.041 571.431 488.301 574.302C492.654 577.08 495.479 580.785 496.775 585.415L495.386 588.888V579.025C495.386 576.154 496.127 573.978 497.609 572.496C499.183 571.015 501.313 570.274 503.999 570.274C506.777 570.274 508.907 571.015 510.389 572.496C511.87 573.978 512.611 576.154 512.611 579.025V632.507C512.611 643.527 509.694 651.816 503.86 657.372C498.025 662.929 489.552 665.707 478.439 665.707ZM478.022 624.45C481.634 624.45 484.736 623.616 487.329 621.949C489.922 620.282 491.913 617.921 493.302 614.865C494.784 611.716 495.525 608.012 495.525 603.752C495.525 597.362 493.951 592.361 490.802 588.749C487.653 585.045 483.393 583.193 478.022 583.193C474.41 583.193 471.308 584.026 468.715 585.693C466.122 587.36 464.084 589.722 462.602 592.778C461.213 595.834 460.519 599.492 460.519 603.752C460.519 610.142 462.093 615.189 465.242 618.893C468.391 622.598 472.651 624.45 478.022 624.45ZM547.828 665.429C545.79 665.429 544.123 664.873 542.827 663.762C541.53 662.743 540.743 661.354 540.465 659.595C540.28 657.835 540.604 655.983 541.438 654.038L550.884 633.062V640.286L525.602 581.803C524.768 579.766 524.49 577.868 524.768 576.108C525.046 574.348 525.88 572.959 527.269 571.941C528.75 570.829 530.742 570.274 533.242 570.274C535.372 570.274 537.085 570.783 538.382 571.802C539.678 572.728 540.836 574.534 541.855 577.219L560.608 624.033H556.44L575.61 577.08C576.629 574.487 577.833 572.728 579.222 571.802C580.611 570.783 582.463 570.274 584.779 570.274C586.816 570.274 588.437 570.829 589.641 571.941C590.845 572.959 591.585 574.348 591.863 576.108C592.141 577.775 591.817 579.627 590.891 581.665L557.135 658.761C555.931 661.354 554.635 663.114 553.245 664.04C551.856 664.966 550.05 665.429 547.828 665.429Z" fill="black"/>
</svg>
