<svg width="47" height="40" viewBox="0 0 47 40" fill="none" xmlns="http://www.w3.org/2000/svg">
<path d="M22.0583 0.0269578C21.9285 0.0371598 21.4872 0.0779678 21.0719 0.118776C18.2532 0.414634 16.2701 1.00635 15.2267 1.86842C14.5363 2.43973 14.4481 2.84271 14.4948 5.29629C14.5259 7.26018 14.583 7.50502 15.1177 7.97942C15.8081 8.60174 17.516 9.22916 19.5665 9.62704C20.4127 9.79027 21.1602 9.83618 23.0965 9.83618C25.8322 9.83618 26.5797 9.76987 28.2097 9.37709C30.525 8.82618 31.8539 8.06103 32.0252 7.18366C32.0564 7.03063 32.0771 5.99003 32.0771 4.80149C32.0771 2.35812 32.1083 2.51115 31.5217 1.95514C30.6288 1.09307 28.2513 0.348321 25.7699 0.144281C25.0847 0.0932708 22.6604 -0.0138502 22.4216 0.00145282C22.349 0.00655382 22.188 0.0167558 22.0583 0.0269578ZM25.1574 1.241C27.0521 1.48584 28.4122 2.03675 28.7548 2.69988C28.9002 2.97024 28.8846 3.10286 28.6873 3.38852C28.3239 3.90372 27.3636 4.38321 26.1696 4.63316C24.9653 4.88821 21.9285 4.90351 20.6203 4.65867C20.0752 4.55665 19.063 4.22508 18.7463 4.04145C18.3933 3.83741 17.9209 3.37832 17.8482 3.16917C17.7237 2.7917 18.0611 2.33771 18.7204 1.99594C19.416 1.62867 20.6099 1.32771 21.7779 1.21549C22.0894 1.18999 22.4372 1.15428 22.5514 1.14408C22.9511 1.10327 24.5552 1.16448 25.1574 1.241Z" fill="#2EA0FB"/>
<path d="M14.109 9.68873C13.6107 10.4539 12.8113 11.7036 11.5965 13.6063C10.7608 14.9122 10.2313 15.7487 8.84004 17.9166C7.78624 19.5643 6.94528 20.7987 6.73764 20.9925C6.57152 21.1558 6.52999 21.166 5.37237 21.3598C3.70602 21.6353 2.98964 21.824 2.00333 22.2372C1.16756 22.5841 0.368123 23.2013 0.186434 23.6247C0.0099357 24.0378 -0.0523578 27.782 0.108567 28.3074C0.362932 29.1439 1.7853 29.9346 4.03306 30.4855C5.44505 30.8324 6.49365 30.9242 9.08922 30.9242C11.0203 30.9242 11.1241 30.9191 12.0741 30.7814C13.0552 30.6334 14.244 30.3631 15.0331 30.108C16.0401 29.7765 17.068 29.1848 17.3639 28.7614C17.5767 28.4655 17.6027 28.1441 17.6027 25.8028C17.6027 23.3747 17.6442 23.5839 17.0628 23.0585C16.6579 22.6963 16.2374 22.4463 15.5262 22.1556C14.2284 21.6149 12.7178 21.3241 10.2313 21.1303C9.67062 21.0895 9.17227 21.0538 9.12555 21.0538C9.07883 21.0538 9.03731 21.0232 9.03731 20.9874C9.03731 20.9058 9.9769 19.3704 11.3214 17.2535C12.8684 14.8203 13.8287 13.2645 14.0416 12.8513C14.0935 12.7595 14.1765 12.5096 14.2284 12.3055C14.4049 11.6322 14.3686 11.6373 14.9448 12.1882C15.5314 12.7544 15.9519 13.0095 16.8136 13.3308C18.5474 13.9787 20.5772 14.2694 23.3129 14.2745C25.9811 14.2745 28.0057 14.0042 29.6097 13.4329C30.5805 13.086 31.1152 12.7748 31.7589 12.1678C31.9977 11.9485 32.2105 11.7699 32.2364 11.7699C32.2884 11.7699 32.3455 11.9281 32.4752 12.4331C32.6154 12.984 32.8698 13.4176 35.7041 17.8758C36.7423 19.5082 37.6041 20.8752 37.6196 20.916C37.6404 20.9772 37.5677 20.9976 37.2147 21.0232C36.9759 21.0385 36.4361 21.0793 36.0052 21.1099C33.1397 21.3088 30.513 22.0944 29.5474 23.0431C29.0491 23.5328 28.9712 23.895 28.9712 25.7722C28.9764 27.3892 29.0335 28.1697 29.1737 28.44C29.8641 29.7714 32.9476 30.7559 36.8877 30.8936C40.2515 31.0109 43.2987 30.5263 45.1572 29.5724C45.9047 29.1899 46.4342 28.6798 46.5692 28.2207C46.6522 27.9299 46.6989 25.0886 46.6263 24.4204C46.5121 23.3084 46.3096 23.0074 45.3233 22.4871C44.1397 21.8648 42.0944 21.319 40.4177 21.1762C40.1893 21.1558 39.9505 21.1252 39.8934 21.0997C39.8259 21.0793 39.5456 20.6916 39.1822 20.1254C37.3186 17.2025 33.2331 10.7905 32.714 9.97438C32.3818 9.44898 32.0911 9.02049 32.0651 9.01539C32.034 9.01539 31.9561 9.0715 31.8835 9.13782C31.5876 9.40817 30.9542 9.78564 30.4299 10.005C27.253 11.3261 21.714 11.5251 17.6234 10.4692C16.4658 10.1682 15.5833 9.77544 14.9863 9.29085C14.7995 9.13782 14.623 9.01539 14.597 9.01539C14.571 9.01539 14.353 9.32145 14.109 9.68873ZM10.849 22.3494C12.396 22.579 13.5588 22.9972 14.0831 23.5073C14.3582 23.7777 14.4309 24.0021 14.3323 24.2878C14.1454 24.854 13.0397 25.4304 11.529 25.7569C11.0099 25.864 10.8802 25.8691 8.85562 25.8691C6.83108 25.8691 6.7013 25.864 6.18219 25.7569C4.72867 25.4457 3.69564 24.9356 3.43089 24.3949C3.27515 24.0838 3.32187 23.8848 3.60739 23.5686C4.14726 22.9768 5.60078 22.4565 7.17369 22.2831C7.82777 22.2117 10.2053 22.2525 10.849 22.3494ZM40.1581 22.329C40.7551 22.4055 41.6947 22.6861 42.2553 22.9513C42.8004 23.2064 43.2728 23.6349 43.3247 23.9205C43.4752 24.7214 42.001 25.5018 39.7688 25.8028C39.1043 25.8946 36.5918 25.8946 35.9273 25.8028C34.4686 25.6038 33.2591 25.1958 32.6673 24.6959C32.4181 24.4867 32.2728 24.1654 32.3195 23.9154C32.3662 23.6859 32.8386 23.2217 33.2643 23.0023C33.8768 22.6861 35.0397 22.3698 35.9273 22.2729C36.4776 22.2168 39.5975 22.2576 40.1581 22.329Z" fill="#2EA0FB"/>
<path d="M14.518 13.7957C14.4661 14.0915 14.4765 15.3617 14.5336 15.8412C14.5959 16.3717 14.6894 16.5757 15.0527 16.9226C15.6289 17.4786 16.7502 17.9938 18.1778 18.3509C19.7974 18.7641 21.1627 18.912 23.2962 18.912C25.3571 18.912 26.4784 18.81 27.989 18.4733C30.0136 18.0295 31.493 17.3103 31.955 16.5349L32.0796 16.3258L32.0692 14.9638L32.0537 13.6069L31.6643 13.8977C30.4808 14.7751 28.0461 15.4637 25.4765 15.6473C23.9088 15.7545 21.2302 15.6933 19.8078 15.5198C17.9753 15.2903 16.0961 14.6629 15.0787 13.9385C14.8503 13.7804 14.6374 13.6376 14.6063 13.6222C14.57 13.612 14.5336 13.6835 14.518 13.7957Z" fill="#2EA0FB"/>
<path d="M28.655 30.0886C28.4681 30.109 25.8933 30.1243 22.9292 30.1294L17.5356 30.1345L17.1203 30.4456C16.8867 30.614 16.5234 30.8384 16.3053 30.9455C14.6961 31.7413 11.8825 32.2259 8.85087 32.2259C5.10807 32.2259 1.94148 31.5271 0.524304 30.3895C0.311468 30.2212 0.124587 30.0835 0.103823 30.0835C0.0259556 30.0835 0 30.4865 0 31.624L0 32.7819L0.301085 33.1135C0.981123 33.8735 1.86881 34.3479 3.35347 34.7509C5.01463 35.1998 6.45776 35.3579 8.85087 35.3579C11.1661 35.3579 12.6352 35.1998 14.2756 34.7713C15.9108 34.3377 17.058 33.7052 17.4837 33.0012C17.6031 32.7921 17.6239 32.7054 17.6291 32.3279L17.6343 31.8943H23.2874H28.9405L28.9924 32.3279C29.0236 32.5677 29.0755 32.8074 29.1067 32.8635C29.226 33.0727 29.9372 33.695 30.2902 33.8939C30.8509 34.2153 31.7801 34.5571 32.7664 34.7968C34.4639 35.2151 35.3308 35.3018 37.8174 35.3018C40.2728 35.3018 41.1656 35.2151 42.7749 34.8274C44.8825 34.3122 46.1491 33.6287 46.5229 32.7972C46.6215 32.5881 46.6371 32.4248 46.6579 31.4556C46.6838 30.3997 46.663 30.0835 46.5748 30.0835C46.554 30.0835 46.3723 30.2008 46.1751 30.3436C44.488 31.5475 41.0514 32.2718 37.3761 32.1953C34.0486 32.129 31.2246 31.4914 29.6725 30.4661C29.0392 30.0478 29.0444 30.0478 28.655 30.0886Z" fill="#2EA0FB"/>
<path d="M28.9835 35.7047C29.0198 36.9596 29.0613 37.2248 29.2586 37.6278C29.5597 38.2297 30.655 38.8214 32.3681 39.3111C33.235 39.556 34.1538 39.7498 34.8339 39.8314C35.6281 39.9181 38.2652 39.9539 39.5734 39.8875C40.9957 39.8161 41.4006 39.7702 42.2831 39.5764C44.6347 39.0612 46.1817 38.2807 46.4724 37.4595C46.6177 37.0514 46.6748 36.4546 46.6592 35.4854L46.6437 34.5825L46.2803 34.8631C45.1798 35.7047 42.9684 36.4036 40.5441 36.6739C39.8173 36.7555 36.495 36.7555 35.4568 36.6739C32.882 36.4699 30.7484 35.8424 29.4662 34.9141C29.2638 34.7712 29.0665 34.6284 29.025 34.6029C28.9627 34.5672 28.9575 34.7304 28.9835 35.7047Z" fill="#2EA0FB"/>
<path d="M0.0188998 35.0185C-0.0330115 35.5235 0.0292821 37.0538 0.117531 37.3394C0.491292 38.5382 2.67676 39.4819 5.95236 39.8542C7.97171 40.0838 10.7386 40.0379 12.6904 39.7471C14.5644 39.4666 16.2931 38.7728 17.1963 37.9465C17.6324 37.5486 17.622 37.5843 17.6168 36.0642C17.6116 35.3297 17.5961 34.7073 17.5753 34.692C17.5597 34.6716 17.4455 34.7532 17.3209 34.8655C16.4748 35.6714 14.4295 36.3448 11.782 36.6916C10.4323 36.8702 7.08921 36.8395 5.60455 36.6355C3.20106 36.309 1.34264 35.6918 0.408234 34.9063C0.257692 34.7787 0.117531 34.6767 0.0967667 34.6767C0.0760022 34.6767 0.0396643 34.8298 0.0188998 35.0185Z" fill="#2EA0FB"/>
</svg>
