<svg width="34" height="40" viewBox="0 0 34 40" fill="none" xmlns="http://www.w3.org/2000/svg">
<path d="M8.3259 3.85323C2.72226 6.54184 0.27415 7.74546 0.178769 7.87833C-0.0994255 8.27693 -0.0437865 12.2239 0.282099 14.9594C1.62538 26.214 6.95082 34.8191 15.4636 39.5086C16.6638 40.1651 16.7115 40.1651 17.9196 39.5008C21.4408 37.5625 24.6122 34.7723 26.9491 31.5522C30.3907 26.8237 32.4335 21.1025 33.1886 14.0997C33.2839 13.2321 33.3316 12.1223 33.3316 10.4653C33.3396 8.3082 33.3237 8.06591 33.1965 7.88615C33.1011 7.74546 30.7563 6.58874 25.0176 3.8376C18.2217 0.586257 16.9261 -0.0077383 16.6558 7.74297e-05C16.3935 0.00789316 14.6608 0.805097 8.3259 3.85323ZM17.9276 9.76974C19.2629 9.9495 20.7652 10.52 21.9574 11.3094C22.6966 11.7862 23.8492 12.9273 24.3817 13.6932C26.8855 17.2963 26.5119 22.0248 23.4676 25.1667C21.6395 27.0581 19.3106 28.0507 16.6876 28.0507C14.0806 28.0507 11.7358 27.0581 9.92353 25.1824C7.21312 22.3765 6.5693 18.328 8.30206 14.8812C10.0905 11.2938 13.9852 9.23045 17.9276 9.76974Z" fill="#2EA0FB"/>
<path d="M20.5471 14.7229C20.3007 14.8089 19.6251 15.4264 17.6698 17.349L15.1024 19.8735L14.1248 18.9356C13.314 18.154 13.0756 17.9821 12.7735 17.8961C11.5654 17.56 10.5241 18.6933 11.001 19.8266C11.168 20.2174 13.9897 23.0076 14.4189 23.2108C14.8083 23.3906 15.3409 23.3984 15.6827 23.2421C16.0165 23.0858 22.2958 16.8957 22.3991 16.6143C22.6057 16.0829 22.4309 15.3326 22.0255 14.973C21.8268 14.7933 21.334 14.6135 21.0558 14.6135C20.9445 14.6135 20.714 14.6604 20.5471 14.7229Z" fill="#2EA0FB"/>
</svg>
