<svg width="45" height="40" viewBox="0 0 45 40" fill="none" xmlns="http://www.w3.org/2000/svg">
<path d="M13.6787 0.0478265C10.6326 0.522433 8.20778 2.74877 7.50019 5.71721C7.24994 6.75272 7.24994 8.09887 7.50019 9.13438C8.02657 11.3607 9.51079 13.1728 11.5904 14.1566C12.6 14.6398 13.4284 14.821 14.6711 14.8297C15.8533 14.8383 16.4659 14.7175 17.5532 14.3033C20.2455 13.2505 22.1785 10.3856 22.1785 7.4258C22.1785 4.04315 19.7968 1.00567 16.5263 0.211781C15.6979 0.0133097 14.3949 -0.0557239 13.6787 0.0478265ZM15.1025 3.49088C15.1025 3.82742 15.1025 3.82742 15.5167 3.87919C15.7411 3.91371 16.1294 3.97411 16.3796 4.02589L16.8284 4.11218V4.79389V5.46697L15.5512 5.44971C14.0843 5.44108 13.9807 5.4756 13.9807 6.01061C13.9807 6.47658 14.1964 6.60602 15.0076 6.60602C15.3528 6.60602 15.8015 6.6578 15.9999 6.70957C16.4487 6.84764 16.9319 7.33087 17.07 7.77959C17.1994 8.21105 17.208 9.21204 17.0786 9.65213C16.8974 10.3079 16.3279 10.7308 15.4304 10.8775C15.1111 10.9293 15.1025 10.9379 15.1025 11.3089V11.6973H14.6279L14.1533 11.6973V11.3176V10.9379L13.4457 10.843C12.3498 10.6876 12.4275 10.748 12.4275 9.97141V9.29833L13.7995 9.30696C15.0335 9.32422 15.1888 9.30696 15.3528 9.16027C15.5771 8.95316 15.5857 8.64251 15.3614 8.41815C15.2233 8.28009 15.0766 8.24557 14.5589 8.24557C13.4457 8.24557 12.695 7.87451 12.4361 7.19281C12.2721 6.76135 12.229 5.8898 12.3412 5.35479C12.4792 4.7076 12.9538 4.18122 13.5493 4.01726C13.765 3.95686 13.9893 3.89645 14.0498 3.87919C14.1102 3.86193 14.1533 3.70661 14.1533 3.49951V3.15434H14.6279H15.1025V3.49088Z" fill="#2EA0FB"/>
<path d="M37.8013 1.86773C34.8415 2.09209 32.3994 2.30782 32.3735 2.3337C32.3476 2.35959 33.1588 3.22251 34.1857 4.24939L36.0496 6.1133L30.2162 12.0157L24.3743 17.9094L23.8565 17.3744C23.5717 17.0724 22.8469 16.313 22.2515 15.6831L21.1728 14.544L20.5774 15.0186C19.8353 15.6054 18.3166 16.3734 17.3587 16.6409C16.9618 16.7531 16.6339 16.8653 16.6252 16.8912C16.5907 16.9861 20.3099 21.0763 21.0002 21.6976C21.8459 22.4656 22.7951 23.1042 23.3905 23.3027C23.7184 23.4148 24.0205 23.4407 24.5382 23.4148C25.3666 23.3717 26.0742 23.061 26.9544 22.3535C27.4549 21.9565 30.2853 19.2469 37.3008 12.4385L39.8723 9.93603L41.6758 11.7395C42.6682 12.7319 43.4966 13.5258 43.5225 13.5085C43.557 13.4654 44.1783 2.34233 44.1783 1.74692V1.42764L43.6864 1.43627C43.4103 1.4449 40.7611 1.63474 37.8013 1.86773Z" fill="#2EA0FB"/>
<path d="M3.96378 17.0561C1.95318 18.8165 0.227339 20.3266 0.132418 20.4215C-0.0315372 20.5854 0.020238 20.5854 4.11048 20.5854H8.2525L10.358 18.7129C11.523 17.686 12.4635 16.8231 12.4549 16.8059C12.4463 16.78 12.1702 16.6764 11.8422 16.5729C10.4961 16.1414 9.13268 15.3303 8.11443 14.3379L7.6312 13.8633L3.96378 17.0561Z" fill="#2EA0FB"/>
<path d="M36.6509 19.5315L33.5703 22.5172L33.5876 31.0515L33.6135 39.5858L33.8551 39.7929L34.0967 40H37.0738H40.0595L40.3097 39.7498L40.56 39.4995V28.2902V17.0895L40.2148 16.8047C40.0336 16.658 39.8524 16.5286 39.8092 16.5372C39.7747 16.5372 38.3509 17.8834 36.6509 19.5315Z" fill="#2EA0FB"/>
<path d="M12.7033 22.8365L11.1328 24.2344L11.1501 31.9058L11.176 39.5858L11.4176 39.7929L11.6592 40H14.5931C17.5875 40 17.7687 39.9827 18.0103 39.6635C18.0966 39.5599 18.1138 37.8772 18.1225 32.4494L18.1225 25.3649L17.5271 24.8385C17.2078 24.5451 16.3621 23.6649 15.6545 22.8797C14.9469 22.0858 14.3515 21.4472 14.3256 21.4472C14.2997 21.4472 13.5749 22.0771 12.7033 22.8365Z" fill="#2EA0FB"/>
<path d="M0 32.3977L0 39.6462L0.224359 39.8188C0.448719 39.9914 0.552269 40 3.38265 40C6.44602 40 6.71352 39.9741 6.85159 39.6117C6.87748 39.534 6.90336 36.2463 6.90336 32.3114L6.90336 25.1578H3.45168H0L0 32.3977Z" fill="#2EA0FB"/>
<path d="M28.9633 26.5902C28.3679 26.9958 27.0649 27.5653 26.271 27.7638C25.6669 27.9105 25.2614 27.9536 24.338 27.945C23.6995 27.945 23.0091 27.9019 22.802 27.8501C22.5173 27.781 22.4223 27.7897 22.3878 27.8673C22.3706 27.9191 22.3619 30.5769 22.3706 33.7783L22.3965 39.5858L22.6381 39.7929L22.8797 40H25.805C28.9288 40 29.0841 39.9827 29.248 39.5772C29.3171 39.4218 29.3343 37.3595 29.3257 32.855L29.2998 26.3659L28.9633 26.5902Z" fill="#2EA0FB"/>
</svg>
