<svg width="40" height="40" viewBox="0 0 40 40" fill="none" xmlns="http://www.w3.org/2000/svg">
<path d="M21.1111 28.8889L21.1111 22.2222C21.1111 21.9275 20.994 21.6449 20.7857 21.4365C20.5773 21.2282 20.2947 21.1111 20 21.1111L11.1111 21.1111C10.8164 21.1111 10.5338 21.2282 10.3254 21.4365C10.1171 21.6449 10 21.9275 10 22.2222L10 28.8889C10 29.1836 10.1171 29.4662 10.3254 29.6746C10.5338 29.8829 10.8164 30 11.1111 30L20 30C20.2947 30 20.5773 29.8829 20.7857 29.6746C20.994 29.4662 21.1111 29.1836 21.1111 28.8889ZM28.8889 30C29.1836 30 29.4662 29.8829 29.6746 29.6746C29.8829 29.4662 30 29.1836 30 28.8889L30 22.2222C30 21.9275 29.8829 21.6449 29.6746 21.4365C29.4662 21.2282 29.1836 21.1111 28.8889 21.1111L24.4444 21.1111C24.1498 21.1111 23.8671 21.2282 23.6588 21.4365C23.4504 21.6449 23.3333 21.9275 23.3333 22.2222L23.3333 28.8889C23.3333 29.1836 23.4504 29.4662 23.6588 29.6746C23.8671 29.8829 24.1498 30 24.4444 30L28.8889 30ZM28.8889 18.8889C29.1836 18.8889 29.4662 18.7718 29.6746 18.5635C29.8829 18.3551 30 18.0725 30 17.7778L30 11.1111C30 10.8164 29.8829 10.5338 29.6746 10.3254C29.4662 10.1171 29.1836 10 28.8889 10L21.1111 10C20.8164 10 20.5338 10.1171 20.3254 10.3254C20.1171 10.5338 20 10.8164 20 11.1111L20 17.7778C20 18.0725 20.1171 18.3551 20.3254 18.5635C20.5338 18.7718 20.8164 18.8889 21.1111 18.8889L28.8889 18.8889ZM17.7778 17.7778L17.7778 11.1111C17.7778 10.8164 17.6607 10.5338 17.4523 10.3254C17.244 10.1171 16.9614 10 16.6667 10L11.1111 10C10.8164 10 10.5338 10.1171 10.3254 10.3254C10.1171 10.5338 10 10.8164 10 11.1111L10 17.7778C10 18.0725 10.1171 18.3551 10.3254 18.5635C10.5338 18.7718 10.8164 18.8889 11.1111 18.8889L16.6667 18.8889C16.9614 18.8889 17.244 18.7718 17.4523 18.5635C17.6607 18.3551 17.7778 18.0725 17.7778 17.7778Z" fill="#02040D"/>
</svg>
