<svg width="41" height="40" viewBox="0 0 41 40" fill="none" xmlns="http://www.w3.org/2000/svg">
<path d="M30.7039 2.49091C30.1929 2.83153 30.0794 3.20053 30.0794 4.33594V5.72681L28.7169 5.72681C27.1273 5.72681 26.6732 6.06743 26.6732 7.288C26.6732 8.50856 27.1273 8.84918 28.7169 8.84918H30.0794V10.2117C30.0794 11.8012 30.42 12.2554 31.6406 12.2554C32.8611 12.2554 33.2018 11.8012 33.2018 10.2117V8.84918L34.621 8.84918C35.8132 8.84918 36.097 8.73564 36.5228 8.11117C36.9486 7.42992 36.9486 7.288 36.5796 6.60675C36.239 5.98228 35.9551 5.86874 34.6778 5.78358L33.2018 5.69843V4.30756C33.2018 3.20053 33.0882 2.83153 32.5773 2.49091C32.2367 2.23544 31.8109 2.03674 31.6406 2.03674C31.4703 2.03674 31.0445 2.23544 30.7039 2.49091Z" fill="#02040D"/>
<path d="M14.1262 4.64816C12.7353 5.01717 10.8335 6.6919 10.1806 8.11115C8.98846 10.751 9.92517 14.583 12.1392 16.0874C12.7069 16.4848 13.2746 16.797 13.3882 16.797C13.5301 16.797 13.6152 15.9738 13.6152 15.0087C13.6152 11.6309 16.1415 8.08277 19.2071 7.14606C19.8032 6.97575 20.4844 6.74867 20.7115 6.6919C21.3644 6.46481 19.6613 5.24425 18.0433 4.73332C16.4821 4.25077 15.659 4.25077 14.1262 4.64816Z" fill="#02040D"/>
<path d="M19.7749 8.96271C17.05 9.95619 15.6023 12.0567 15.6023 15.1223C15.6023 17.535 16.7093 19.5504 18.6395 20.6858C19.7749 21.367 20.3143 21.4806 21.989 21.4806C24.1463 21.4522 25.1397 21.0832 26.5022 19.7207C28.3189 17.9324 28.915 14.7249 27.8363 12.3689C26.5022 9.47364 22.8121 7.88407 19.7749 8.96271Z" fill="#02040D"/>
<path d="M11.6284 18.3014C7.39899 20.0329 4.5037 23.5243 3.68053 27.8672C3.25475 30.138 3.51022 30.4219 6.17842 30.4219H8.36408L9.04532 29.2013C10.2375 27.1008 11.6568 25.6248 13.814 24.1771C14.9778 23.3824 16.0848 22.7579 16.2552 22.7579C16.4538 22.7579 16.7661 22.6443 16.9932 22.5024C17.277 22.3037 17.1351 22.0199 16.2552 21.2535C15.6591 20.6858 14.8643 19.6639 14.4953 18.9543C14.1547 18.2446 13.7005 17.6486 13.5302 17.6486C13.3315 17.6486 12.4799 17.9608 11.6284 18.3014Z" fill="#02040D"/>
<path d="M20.2859 23.6094C16.3688 24.2055 12.1961 27.0724 10.5498 30.3367C9.86855 31.6424 9.07377 34.2539 9.07377 35.1338C9.07377 36.6666 8.96023 36.6666 21.9606 36.6666C33.5702 36.6666 33.9675 36.6382 34.4785 36.0989C34.9326 35.6164 34.961 35.3609 34.6488 33.9416C33.3147 27.2995 26.8713 22.6443 20.2859 23.6094Z" fill="#02040D"/>
</svg>
