<svg width="40" height="40" viewBox="0 0 40 40" fill="none" xmlns="http://www.w3.org/2000/svg">
<path d="M12.9359 12.9333C12.0052 13.8596 11.2668 14.9608 10.7634 16.1736C10.2599 17.3864 10.0014 18.6868 10.0026 20L20.0026 20L27.0693 27.0666C30.9693 23.1666 30.9693 16.8333 27.0693 12.9166C26.1409 11.9885 25.0385 11.2525 23.8253 10.7509C22.6121 10.2494 21.3119 9.99197 19.9991 9.99351C18.6864 9.99506 17.3868 10.2555 16.1748 10.76C14.9628 11.2644 13.8622 12.0029 12.9359 12.9333ZM3.33594 20C3.33594 29.2 10.8026 36.6666 20.0026 36.6666C29.2026 36.6666 36.6693 29.2 36.6693 20C36.6693 10.8 29.2026 3.33329 20.0026 3.33329C10.8026 3.33329 3.33594 10.8 3.33594 20ZM33.3359 20C33.3359 27.3666 27.3693 33.3333 20.0026 33.3333C12.6359 33.3333 6.66927 27.3666 6.66927 20C6.66927 12.6333 12.6359 6.66662 20.0026 6.66662C27.3693 6.66662 33.3359 12.6333 33.3359 20Z" fill="#2135D9"/>
</svg>
