<svg width="41" height="40" viewBox="0 0 41 40" fill="none" xmlns="http://www.w3.org/2000/svg">
<path d="M20.1823 3.33337C10.9823 3.33337 3.51562 10.8 3.51562 20C3.51562 29.2 10.9823 36.6667 20.1823 36.6667C29.3823 36.6667 36.849 29.2 36.849 20C36.849 10.8 29.3823 3.33337 20.1823 3.33337ZM21.849 31.6667H18.5156L18.5156 28.3334H21.849V31.6667ZM25.299 18.75L23.799 20.2834C22.599 21.5 21.849 22.5 21.849 25H18.5156V24.1667C18.5156 22.3334 19.2656 20.6667 20.4656 19.45L22.5323 17.35C23.149 16.75 23.5156 15.9167 23.5156 15C23.5156 13.1667 22.0156 11.6667 20.1823 11.6667C18.349 11.6667 16.849 13.1667 16.849 15H13.5156C13.5156 11.3167 16.499 8.33337 20.1823 8.33337C23.8656 8.33337 26.849 11.3167 26.849 15C26.849 16.4667 26.249 17.8 25.299 18.75Z" fill="#02040D"/>
</svg>
