<svg width="41" height="40" viewBox="0 0 41 40" fill="none" xmlns="http://www.w3.org/2000/svg">
<path d="M11.213 17.9833C13.613 22.7 17.4797 26.55 22.1964 28.9667L25.863 25.3C26.313 24.85 26.9797 24.7 27.563 24.9C29.4297 25.5167 31.4464 25.85 33.513 25.85C34.4297 25.85 35.1797 26.6 35.1797 27.5167V33.3333C35.1797 34.25 34.4297 35 33.513 35C17.863 35 5.17969 22.3167 5.17969 6.66667C5.17969 5.75 5.92969 5 6.84635 5L12.6797 5C13.5964 5 14.3464 5.75 14.3464 6.66667C14.3464 8.75 14.6797 10.75 15.2964 12.6167C15.4797 13.2 15.3464 13.85 14.8797 14.3167L11.213 17.9833Z" fill="#9197A6"/>
</svg>
