<svg width="40" height="40" viewBox="0 0 40 40" fill="none" xmlns="http://www.w3.org/2000/svg">
<path d="M37.4292 9.99996C36.1458 10.5833 34.7625 10.9666 33.3292 11.15C34.7958 10.2666 35.9292 8.86663 36.4625 7.18329C35.0792 8.01663 33.5458 8.59996 31.9292 8.93329C30.6125 7.49996 28.7625 6.66663 26.6625 6.66663C22.7458 6.66663 19.5458 9.86663 19.5458 13.8166C19.5458 14.3833 19.6125 14.9333 19.7292 15.45C13.7958 15.15 8.5125 12.3 4.99583 7.98329C4.37917 9.03329 4.02917 10.2666 4.02917 11.5666C4.02917 14.05 5.27917 16.25 7.2125 17.5C6.02917 17.5 4.92917 17.1666 3.9625 16.6666V16.7166C3.9625 20.1833 6.42917 23.0833 9.69583 23.7333C8.64704 24.0203 7.54599 24.0602 6.47917 23.85C6.93184 25.2708 7.81839 26.514 9.01419 27.4048C10.21 28.2957 11.6549 28.7894 13.1458 28.8166C10.6185 30.8174 7.48583 31.8988 4.2625 31.8833C3.69583 31.8833 3.12917 31.85 2.5625 31.7833C5.72917 33.8166 9.49583 35 13.5292 35C26.6625 35 33.8792 24.1 33.8792 14.65C33.8792 14.3333 33.8792 14.0333 33.8625 13.7166C35.2625 12.7166 36.4625 11.45 37.4292 9.99996Z" fill="#02040D"/>
</svg>
