<svg width="40" height="40" viewBox="0 0 40 40" fill="none" xmlns="http://www.w3.org/2000/svg">
<path d="M20.0026 19.1667C18.8975 19.1667 17.8377 18.7277 17.0563 17.9463C16.2749 17.1649 15.8359 16.1051 15.8359 15C15.8359 13.895 16.2749 12.8352 17.0563 12.0538C17.8377 11.2724 18.8975 10.8334 20.0026 10.8334C21.1077 10.8334 22.1675 11.2724 22.9489 12.0538C23.7303 12.8352 24.1693 13.895 24.1693 15C24.1693 15.5472 24.0615 16.089 23.8521 16.5946C23.6427 17.1001 23.3358 17.5594 22.9489 17.9463C22.562 18.3332 22.1026 18.6401 21.5971 18.8495C21.0916 19.0589 20.5498 19.1667 20.0026 19.1667ZM20.0026 3.33337C16.9084 3.33337 13.9409 4.56254 11.753 6.75046C9.5651 8.93839 8.33594 11.9058 8.33594 15C8.33594 23.75 20.0026 36.6667 20.0026 36.6667C20.0026 36.6667 31.6693 23.75 31.6693 15C31.6693 11.9058 30.4401 8.93839 28.2522 6.75046C26.0643 4.56254 23.0968 3.33337 20.0026 3.33337Z" fill="#2035D9"/>
</svg>
