<svg width="41" height="40" viewBox="0 0 41 40" fill="none" xmlns="http://www.w3.org/2000/svg">
<path d="M20.1771 28.3333C21.0611 28.3333 21.909 27.9821 22.5341 27.357C23.1592 26.7319 23.5104 25.884 23.5104 25C23.5104 24.1159 23.1592 23.2681 22.5341 22.6429C21.909 22.0178 21.0611 21.6666 20.1771 21.6666C19.293 21.6666 18.4452 22.0178 17.8201 22.6429C17.1949 23.2681 16.8437 24.1159 16.8437 25C16.8437 25.884 17.1949 26.7319 17.8201 27.357C18.4452 27.9821 19.293 28.3333 20.1771 28.3333ZM30.1771 13.3333C31.0611 13.3333 31.909 13.6845 32.5341 14.3096C33.1592 14.9347 33.5104 15.7826 33.5104 16.6666V33.3333C33.5104 34.2173 33.1592 35.0652 32.5341 35.6903C31.909 36.3154 31.0611 36.6666 30.1771 36.6666L10.1771 36.6666C9.29303 36.6666 8.44518 36.3154 7.82006 35.6903C7.19494 35.0652 6.84375 34.2173 6.84375 33.3333L6.84375 16.6666C6.84375 15.7826 7.19494 14.9347 7.82006 14.3096C8.44518 13.6845 9.29303 13.3333 10.1771 13.3333H11.8437V9.99996C11.8437 7.78982 12.7217 5.67021 14.2845 4.1074C15.8473 2.5446 17.9669 1.66663 20.1771 1.66663C21.2714 1.66663 22.3551 1.88217 23.3661 2.30096C24.3772 2.71975 25.2958 3.33358 26.0696 4.1074C26.8435 4.88122 27.4573 5.79988 27.8761 6.81093C28.2949 7.82198 28.5104 8.90561 28.5104 9.99996L28.5104 13.3333H30.1771ZM20.1771 4.99996C18.851 4.99996 17.5792 5.52674 16.6415 6.46443C15.7039 7.40211 15.1771 8.67388 15.1771 9.99996V13.3333L25.1771 13.3333L25.1771 9.99996C25.1771 8.67388 24.6503 7.40211 23.7126 6.46443C22.7749 5.52674 21.5032 4.99996 20.1771 4.99996Z" fill="#9197A6"/>
</svg>
