<svg width="40" height="40" viewBox="0 0 40 40" fill="none" xmlns="http://www.w3.org/2000/svg">
<path d="M3.33594 36.8222H12.2172C17.1061 36.8222 21.0984 36.7883 21.0984 36.7376C21.0984 36.7038 20.7262 36.0948 20.2695 35.4012C19.1868 33.7434 18.8823 32.8468 18.7808 30.9521L18.6793 29.3789L14.1964 29.3789C10.0688 29.3789 9.64585 29.345 9.00301 29.0405C7.41285 28.2793 7.29443 26.2324 8.76618 25.1835C9.12143 24.9298 9.86576 24.879 14.7885 24.8114L20.3879 24.7268L20.9969 23.9486C21.7074 23.0013 23.2807 21.7833 24.5832 21.1743C25.6828 20.6499 27.6621 20.2439 29.0662 20.2439H30.0642L30.0304 15.9301L29.9797 11.6164L26.9347 11.5656C23.619 11.5149 23.4667 11.4811 22.401 10.4661C21.3352 9.43414 21.0984 8.50372 21.0984 5.35723V2.65056L3.33594 2.65056L3.33594 36.8222ZM24.7524 16.573C25.852 17.571 25.6997 19.3135 24.431 20.0747C23.9235 20.3961 23.5344 20.413 16.6155 20.413C9.6966 20.413 9.30751 20.3961 8.80001 20.0747C7.53127 19.3135 7.37902 17.571 8.4786 16.573L9.0876 16.0147L24.1434 16.0147L24.7524 16.573Z" fill="#02040D"/>
<path d="M23.2969 4.88353C23.2969 7.37028 23.466 8.24994 24.0581 8.84203C24.4472 9.23111 24.5487 9.24803 27.2892 9.24803H30.0974L29.9959 8.85894C29.9451 8.65594 29.8944 8.36836 29.8944 8.23303C29.8944 7.53944 25.8005 3.58095 24.4134 2.9212C23.2969 2.39678 23.2969 2.39678 23.2969 4.88353Z" fill="#02040D"/>
<path d="M26.4785 23.0013C24.2286 23.7794 22.4524 25.4542 21.5896 27.6534C21.2682 28.4315 21.2005 28.9559 21.2005 30.3939C21.2005 32.4915 21.5389 33.5573 22.6723 35.0459C26.5123 40.0871 34.4801 38.7507 36.3409 32.7453C37.0007 30.6307 36.6454 27.9917 35.4782 26.1647C33.5835 23.2043 29.7942 21.8679 26.4785 23.0013ZM29.7773 25.6403C29.8618 25.7249 29.9295 26.5707 29.9126 27.5011L29.8788 29.2097H31.6888C33.7696 29.2097 34.1248 29.3789 34.1248 30.3431C34.1248 31.5611 34.091 31.578 31.046 31.578C28.7453 31.578 28.2717 31.5273 28.001 31.2904C27.7303 31.0536 27.6965 30.7153 27.6965 28.4315C27.6965 25.9448 27.7134 25.8433 28.0856 25.5726C28.4747 25.285 29.4558 25.3189 29.7773 25.6403Z" fill="#02040D"/>
</svg>
