<svg width="41" height="40" viewBox="0 0 41 40" fill="none" xmlns="http://www.w3.org/2000/svg">
<path d="M18.6709 4.40969C17.3625 4.74808 15.8736 5.78579 15.1969 6.84605C14.2719 8.33494 14.0238 9.28241 14.1366 10.839C14.4073 14.1326 16.8662 16.3885 20.1824 16.3885C24.807 16.3885 27.6494 11.7639 25.574 7.61306C24.5588 5.58276 22.9571 4.49993 20.7012 4.31946C19.9793 4.27434 19.077 4.31946 18.6709 4.40969Z" fill="#02040D"/>
<path d="M13.4822 16.0501C12.3317 16.5689 10.2112 18.3511 9.78255 19.1181C9.51184 19.6595 10.4142 21.0807 11.1586 21.2386C13.7529 21.8252 14.4297 23.878 12.6926 25.7955C12.3543 26.1565 12.264 26.4497 12.3994 26.9235L12.5573 27.5551L12.8957 26.9686C13.392 26.1339 14.3394 25.6376 15.6704 25.4797C16.7984 25.3443 16.8435 25.3218 17.4751 24.0585C18.2873 22.4343 19.0543 21.8026 20.1822 21.8026C21.3101 21.8026 22.0771 22.4343 22.8893 24.0585C23.5209 25.3218 23.566 25.3443 24.694 25.4797C26.025 25.6376 26.9724 26.1339 27.4687 26.9686L27.8071 27.5551L27.965 26.9235C28.1004 26.4497 28.0101 26.1565 27.6718 25.7955C27.0175 25.0511 26.7243 24.3969 26.7243 23.6073C26.7243 22.344 27.4687 21.6447 29.2058 21.2612C29.9502 21.1033 30.6946 19.7723 30.3788 19.1632C29.9276 18.3285 27.8297 16.5689 26.5889 16.005L25.3482 15.441L24.8519 15.8922C23.8367 16.8396 21.7839 17.5841 20.1822 17.5841C18.5805 17.5841 16.3021 16.772 15.5351 15.9147C15.0388 15.3733 14.9034 15.3733 13.4822 16.0501Z" fill="#02040D"/>
<path d="M6.91766 20.9002C6.2409 22.141 6.10554 22.2538 5.18063 22.4117C3.37592 22.6824 2.99242 23.7201 4.25571 24.9383C5.00016 25.6602 5.02272 25.7504 4.90992 26.9009C4.75201 28.2996 5.04527 28.7959 5.94763 28.7959C6.26346 28.7959 6.87255 28.5928 7.27861 28.3447L8.02305 27.8935L8.90285 28.3447C10.6173 29.2245 11.249 28.8184 11.1362 26.946C11.0685 25.8632 11.1136 25.6827 11.7904 25.0285C13.0311 23.8103 12.7153 22.7726 11.0234 22.4568C10.4143 22.344 9.89544 22.141 9.85032 22.0282C9.8052 21.9154 9.55705 21.4868 9.28635 21.0807C8.5419 19.9979 7.48164 19.9302 6.91766 20.9002Z" fill="#02040D"/>
<path d="M31.2587 20.81C31.0105 21.1258 30.7398 21.577 30.6722 21.8026C30.5368 22.2087 29.9277 22.4794 29.0479 22.4794C27.7169 22.4794 27.4688 23.9457 28.6193 25.0962C29.3186 25.7955 29.3637 25.9309 29.2058 26.743C28.89 28.5477 29.7924 29.2019 31.4392 28.3672L32.3415 27.8935L33.086 28.3447C33.492 28.5928 34.1011 28.7959 34.4169 28.7959C35.3193 28.7959 35.6125 28.2996 35.4546 26.9009C35.3418 25.7504 35.3644 25.6602 36.1088 24.9383C37.3721 23.7201 36.9886 22.6824 35.1839 22.4117C34.259 22.2538 34.1237 22.141 33.4469 20.9228C32.9506 19.9979 31.9354 19.9528 31.2587 20.81Z" fill="#02040D"/>
<path d="M19.235 23.3141C19.0319 23.5396 18.6033 24.2841 18.2649 24.9609C17.9266 25.6376 17.6333 26.2242 17.5882 26.2693C17.5656 26.2918 16.9565 26.4272 16.2121 26.5625C14.2495 26.9009 14.1592 26.946 13.866 27.6454C13.5276 28.4575 13.7757 28.9538 15.1067 30.375L16.0993 31.3901L15.8286 33.1272C15.603 34.7063 15.6256 34.9093 16.0091 35.3379C16.573 35.9696 17.4077 35.9019 18.8966 35.0898L20.1825 34.3905L21.4232 35.0898C22.867 35.9019 23.7693 35.9696 24.3558 35.3379C24.7393 34.9093 24.7619 34.7063 24.5363 33.1272L24.2656 31.3901L25.2582 30.375C26.5892 28.9538 26.8373 28.4575 26.4989 27.6454C26.2057 26.946 26.1154 26.9009 24.1528 26.5625C23.4084 26.4272 22.7993 26.2918 22.7767 26.2693C22.7316 26.2242 22.4383 25.6376 22.1 24.9609C21.2878 23.3366 20.9043 22.9306 20.1825 22.9306C19.8441 22.9306 19.4155 23.111 19.235 23.3141Z" fill="#02040D"/>
<path d="M11.7001 29.1568C10.9105 30.0366 9.8277 30.172 8.6772 29.5854C7.3011 28.8635 6.80481 30.1043 7.97787 31.2999L8.63208 31.9541H11.7001C13.392 31.9541 14.7681 31.8864 14.7681 31.7962C14.7681 31.706 14.4072 31.2773 13.9785 30.8262C13.5499 30.3975 13.0311 29.6757 12.8055 29.2245L12.3994 28.4124L11.7001 29.1568Z" fill="#02040D"/>
<path d="M27.5591 29.1342C27.3561 29.5629 26.8372 30.3073 26.386 30.781C25.9574 31.2773 25.5965 31.7285 25.5965 31.8188C25.5965 31.8864 26.9726 31.9541 28.6645 31.9541H31.7325L32.3867 31.2999C33.086 30.578 33.2665 29.608 32.7025 29.3824C32.522 29.3147 32.0258 29.4049 31.5971 29.5854C30.2662 30.1494 29.4766 30.014 28.6419 29.1568L27.92 28.3898L27.5591 29.1342Z" fill="#02040D"/>
</svg>
