<svg width="41" height="40" viewBox="0 0 41 40" fill="none" xmlns="http://www.w3.org/2000/svg">
<path d="M2.73488 34.1732C3.04631 35.3489 3.98062 36.252 5.16407 36.5323C5.91152 36.7114 12.6697 36.7114 13.4171 36.5323C14.9976 36.1664 15.9865 34.8039 15.9865 33.0131L15.9865 32.4759L13.8998 32.4292C11.5719 32.3824 11.0891 32.3046 10.1003 31.8063C8.93244 31.2146 8.09935 30.397 7.49984 29.2447C6.94704 28.1936 6.86918 27.7265 6.82247 25.344L6.77575 23.2652L6.23852 23.2652C4.79814 23.2652 3.70033 23.8569 3.03074 24.9936C2.62587 25.6866 2.59473 26.0214 2.60252 30C2.60252 33.1922 2.61809 33.7216 2.73488 34.1732Z" fill="#02040D"/>
<path d="M9.44623 27.7651C9.52409 27.9909 9.66424 28.2868 9.74988 28.4347C10.0146 28.8552 10.7387 29.4858 11.2136 29.7116L11.6652 29.9218L23.4998 29.9218L24.0448 29.6571C25.2905 29.042 25.9523 27.8975 25.9523 26.3403L25.9523 25.7564L22.2696 25.7564C18.8672 25.7564 18.5479 25.7408 17.9484 25.6007C16.3056 25.2036 14.9275 24.1369 14.1645 22.642C13.5183 21.3963 13.4949 21.2016 13.4949 16.9739L13.4949 13.299L12.911 13.299C11.3538 13.299 10.2092 13.9608 9.59416 15.2065L9.32944 15.7515L9.31387 21.552C9.2983 27.0956 9.2983 27.3681 9.44623 27.7651Z" fill="#02040D"/>
<path d="M16.0643 21.0377C16.3835 22.042 17.24 22.8829 18.2366 23.1866C18.7427 23.3423 18.9217 23.3423 26.0692 23.3267L33.3879 23.3034L33.9174 23.0542C34.914 22.5793 35.6458 21.6527 35.8405 20.625C35.8872 20.3681 35.9183 17.6041 35.9183 13.3063C35.9183 7.389 35.9028 6.3379 35.7938 5.90189C35.5913 5.04545 35.1086 4.36807 34.3378 3.86978C33.4969 3.32476 33.6449 3.33255 25.929 3.33255C21.6468 3.33255 18.8828 3.3637 18.6259 3.41041C17.5981 3.60506 16.6716 4.33693 16.1967 5.33352L15.9475 5.86297L15.932 13.2206C15.9164 20.2591 15.9242 20.6016 16.0643 21.0377Z" fill="#02040D"/>
</svg>
