<svg width="40" height="40" viewBox="0 0 40 40" fill="none" xmlns="http://www.w3.org/2000/svg">
<path d="M21.7169 3.33542C22.9331 3.33076 24.1494 3.34298 25.3652 3.37209L25.6886 3.38376C26.0619 3.39709 26.4302 3.41376 26.8752 3.43376C28.6486 3.51709 29.8586 3.79709 30.9202 4.20876C32.0202 4.63209 32.9469 5.20542 33.8736 6.13209C34.7209 6.96477 35.3766 7.972 35.7952 9.08376C36.2069 10.1454 36.4869 11.3571 36.5702 13.1304C36.5902 13.5738 36.6069 13.9438 36.6202 14.3171L36.6302 14.6404C36.6598 15.8557 36.6726 17.0714 36.6686 18.2871L36.6702 19.5304V21.7138C36.6743 22.93 36.6616 24.1462 36.6319 25.3621L36.6219 25.6854C36.6086 26.0588 36.5919 26.4271 36.5719 26.8721C36.4886 28.6454 36.2052 29.8554 35.7952 30.9171C35.378 32.03 34.7221 33.0381 33.8736 33.8704C33.0402 34.7176 32.0324 35.3733 30.9202 35.7921C29.8586 36.2038 28.6486 36.4838 26.8752 36.5671C26.4302 36.5871 26.0619 36.6038 25.6886 36.6171L25.3652 36.6271C24.1494 36.6567 22.9331 36.6695 21.7169 36.6654L20.4736 36.6671H18.2919C17.0757 36.6712 15.8594 36.6584 14.6436 36.6288L14.3202 36.6188C13.9246 36.6044 13.529 36.5878 13.1336 36.5688C11.3602 36.4854 10.1502 36.2021 9.0869 35.7921C7.97471 35.3743 6.9673 34.7185 6.13523 33.8704C5.28697 33.0376 4.63061 32.0297 4.2119 30.9171C3.80023 29.8554 3.52023 28.6454 3.4369 26.8721C3.41834 26.4766 3.40167 26.0811 3.3869 25.6854L3.37857 25.3621C3.34784 24.1462 3.33395 22.93 3.3369 21.7138V18.2871C3.33225 17.0714 3.34447 15.8558 3.37357 14.6404L3.38523 14.3171C3.39857 13.9438 3.41523 13.5738 3.43523 13.1304C3.51857 11.3554 3.79857 10.1471 4.21023 9.08376C4.62919 7.97146 5.28684 6.9645 6.1369 6.13376C6.96839 5.28501 7.97517 4.62805 9.0869 4.20876C10.1502 3.79709 11.3586 3.51709 13.1336 3.43376L14.3202 3.38376L14.6436 3.37542C15.8589 3.34471 17.0745 3.33082 18.2902 3.33376L21.7169 3.33542ZM20.0036 11.6688C18.8994 11.6531 17.8032 11.8571 16.7785 12.2689C15.7539 12.6806 14.8213 13.2919 14.035 14.0672C13.2486 14.8425 12.6242 15.7663 12.198 16.785C11.7719 17.8037 11.5524 18.897 11.5524 20.0013C11.5524 21.1055 11.7719 22.1988 12.198 23.2175C12.6242 24.2362 13.2486 25.16 14.035 25.9353C14.8213 26.7106 15.7539 27.3219 16.7785 27.7336C17.8032 28.1454 18.8994 28.3494 20.0036 28.3338C22.2137 28.3338 24.3333 27.4558 25.8961 25.893C27.4589 24.3302 28.3369 22.2106 28.3369 20.0004C28.3369 17.7903 27.4589 15.6707 25.8961 14.1079C24.3333 12.5451 22.2137 11.6688 20.0036 11.6688ZM20.0036 15.0021C20.6677 14.9899 21.3277 15.1101 21.9449 15.3558C22.5621 15.6015 23.1241 15.9677 23.5982 16.433C24.0723 16.8983 24.4489 17.4535 24.706 18.066C24.9631 18.6785 25.0956 19.3361 25.0957 20.0004C25.0958 20.6647 24.9635 21.3224 24.7066 21.935C24.4497 22.5476 24.0733 23.1028 23.5994 23.5683C23.1255 24.0338 22.5635 24.4002 21.9464 24.6461C21.3293 24.892 20.6694 25.0124 20.0052 25.0004C18.6792 25.0004 17.4074 24.4736 16.4697 23.536C15.532 22.5983 15.0052 21.3265 15.0052 20.0004C15.0052 18.6743 15.532 17.4026 16.4697 16.4649C17.4074 15.5272 18.6792 15.0004 20.0052 15.0004L20.0036 15.0021ZM28.7536 9.16876C28.2159 9.19028 27.7074 9.41901 27.3346 9.80704C26.9618 10.1951 26.7535 10.7123 26.7535 11.2504C26.7535 11.7885 26.9618 12.3058 27.3346 12.6938C27.7074 13.0818 28.2159 13.3106 28.7536 13.3321C29.3061 13.3321 29.836 13.1126 30.2267 12.7219C30.6174 12.3312 30.8369 11.8013 30.8369 11.2488C30.8369 10.6962 30.6174 10.1663 30.2267 9.77562C29.836 9.38492 29.3061 9.16543 28.7536 9.16543V9.16876Z" fill="#02040D"/>
</svg>
