<svg width="40" height="40" viewBox="0 0 40 40" fill="none" xmlns="http://www.w3.org/2000/svg">
<path d="M3.33594 31.6667C3.33594 34.5 5.5026 36.6667 8.33594 36.6667L31.6693 36.6667C34.5026 36.6667 36.6693 34.5 36.6693 31.6667L36.6693 18.3334L3.33594 18.3334L3.33594 31.6667ZM31.6693 6.66671L28.3359 6.66671V5.00004C28.3359 4.00004 27.6693 3.33337 26.6693 3.33337C25.6693 3.33337 25.0026 4.00004 25.0026 5.00004V6.66671L15.0026 6.66671V5.00004C15.0026 4.00004 14.3359 3.33337 13.3359 3.33337C12.3359 3.33337 11.6693 4.00004 11.6693 5.00004V6.66671L8.33594 6.66671C5.5026 6.66671 3.33594 8.83337 3.33594 11.6667L3.33594 15L36.6693 15V11.6667C36.6693 8.83337 34.5026 6.66671 31.6693 6.66671Z" fill="#2035D9"/>
</svg>
