<svg width="40" height="40" viewBox="0 0 40 40" fill="none" xmlns="http://www.w3.org/2000/svg">
<path d="M24.1126 23.3462C23.9291 23.2862 22.7695 22.7635 23.4941 20.5608H23.4837C25.3726 18.6154 26.8161 15.4851 26.8161 12.4031C26.8161 7.66428 23.6649 5.18005 20.0026 5.18005C16.338 5.18005 13.2041 7.66313 13.2041 12.4031C13.2041 15.4977 14.6395 18.6408 16.5399 20.5816C17.2807 22.5247 15.9561 23.2458 15.6791 23.3474C11.8438 24.7343 7.34375 27.2624 7.34375 29.7581L7.34375 30.6939C7.34375 34.0943 13.9368 34.8674 20.0384 34.8674C26.1491 34.8674 32.6591 34.0943 32.6591 30.6939V29.7581C32.6591 27.1874 28.1372 24.6789 24.1126 23.3462Z" fill="#9197A6"/>
</svg>
