<svg width="38" height="40" viewBox="0 0 38 40" fill="none" xmlns="http://www.w3.org/2000/svg">
<path d="M25.1333 35.7895C25.1337 36.8517 24.7325 37.8749 24.0102 38.6538C23.2879 39.4327 22.2979 39.9098 21.2386 39.9895L20.9228 40H16.7123C15.65 40.0003 14.6269 39.5991 13.848 38.8769C13.069 38.1546 12.5919 37.1645 12.5123 36.1053L12.5017 35.7895H25.1333ZM18.8175 2.00856e-09C22.6385 -6.30422e-05 26.3102 1.48399 29.058 4.1391C31.8058 6.79422 33.4149 10.4128 33.5459 14.2316L33.5544 14.7368V22.6611L37.3902 30.3326C37.5576 30.6674 37.6413 31.0377 37.6343 31.4119C37.6273 31.7861 37.5297 32.153 37.3498 32.4812C37.17 32.8094 36.9133 33.0892 36.6017 33.2965C36.2901 33.5038 35.9329 33.6325 35.5607 33.6716L35.3186 33.6842H2.31647C1.94208 33.6843 1.57325 33.5937 1.24157 33.42C0.909895 33.2463 0.625271 32.9948 0.412089 32.6871C0.198906 32.3793 0.063521 32.0244 0.0175355 31.6529C-0.02845 31.2813 0.0163351 30.9041 0.148053 30.5537L0.244895 30.3326L4.08068 22.6611V14.7368C4.08068 10.8284 5.63331 7.08002 8.39701 4.31632C11.1607 1.55263 14.9091 2.00857e-09 18.8175 2.00856e-09Z" fill="#02040D"/>
</svg>
