<svg width="513.5" height="513.5" viewBox="0 0 513.5 513.5" fill="none" xmlns="http://www.w3.org/2000/svg">
<path d="M453.5 134.491C513.5 169.132 513.5 255.735 453.5 290.376L404 318.955C344 353.596 269 310.294 269 241.012C269 171.73 269 183.855 269 183.855C269 124.148 325.5 83.2204 378.5 96.2203C387 97.7202 395.707 101.125 404 105.912L453.5 134.491Z" fill="#BABAFF"/>
<path d="M453.5 280.438C513.5 315.079 513.5 401.682 453.5 436.323L404 464.902C344 499.543 269 456.241 269 386.959L269 329.802C269 260.52 344 217.218 404 251.859L453.5 280.438Z" fill="#2135D9" fill-opacity="0.75"/>
<path fill-rule="evenodd" clip-rule="evenodd" d="M269 177.96V391.119C269.605 440.181 322.019 493.73 388.076 472.151V109.381C388.076 105.515 387.707 101.735 387.003 98.0739C387.002 98.1324 387.001 98.191 387 98.2495C387 98.2495 370.92 93.7495 360.5 93.7495C335 93.7495 308.629 103.535 291.5 124.25C270 150.25 269 177.96 269 177.96Z" fill="#2EA0FB" fill-opacity="0.6"/>
</svg>
